<mxfile host="app.diagrams.net" agent="Mozilla/5.0 (Windows NT 10.0; Win64; x64) AppleWebKit/537.36 (KHTML, like Gecko) Chrome/129.0.0.0 Safari/537.36" version="24.7.16">
  <diagram id="81F2ChFms_YCo8Rnc0y9" name="Page-1">
    <mxGraphModel dx="915" dy="498" grid="1" gridSize="10" guides="1" tooltips="1" connect="1" arrows="1" fold="1" page="1" pageScale="1" pageWidth="827" pageHeight="1169" math="0" shadow="0">
      <root>
        <mxCell id="0" />
        <mxCell id="1" parent="0" />
        <mxCell id="bfAW2O5BcKK6ecr0y_9z-1" value="" style="shape=image;verticalLabelPosition=bottom;labelBackgroundColor=default;verticalAlign=top;aspect=fixed;imageAspect=0;image=data:image/png,iVBORw0KGgoAAAANSUhEUgAAAQAAAAEACAIAAADTED8xAAAAA3NCSVQICAjb4U/gAAAgAElEQVR4nLS8aYxkV3Ymds499741XmwZkVtVVmWtZBWX7i6ym02y1VIvWtijBVqmgbEhC6MxbNkD2MaMDdiQYQMeAwZs+LfmjwFDsmwDI6gxkDCSrNaoN5HNpVksLkUWqyors3LPyIztxVvvcvwjqqqpnqY8NHoO4sfLh5eIF/eee+53vvOdi//wP/ktYPqlr//OuQuf+v1//j//yf/9+9YCIjUa3ZPjnWKWeoEMJEWJt37uyqWrV1dWVh252Ti9t317d3N7ODnOszKrCgDy4tjZuizzbqv91LUXPvXsi6dWzqLDKGrEjebG7Xf/+s//6HB3y5d+UcykVEr5nvQAwDlrjCYHSJBXuecrZlFXpXWkPB8c1VVZFpMoTmyeNuIk8Pw4DJ/+zOdWTp3Kj3eNLRdOXYjb/ZmuLXr7w8Fbb778yve+bdlWVVHmmS4ZAKIAfL8BIAEIPoHZT/IwAHlVmaMzYRQrKRw76azyPEUiabbjZuJ5QRjFUZyg4LoqgZznB07TbDZ1FqVURaYno5M8SwGsH4aNZpi0OsunVx9/8tnHLl/6qS++GHnoq+DHfvn3v/WvvvF//p6U6uqnnzu1ciZKekvnn7JIv/e//Pd/9ZffIPKG4yyMkmZ32bLSdZ1neZ6ltqpIqiSOVBSlVeWAgTWiC0gFkWqGSRAGuq56i6vTLN3b3kjTzDlrHWqGurTGgjHaam2dBQBEAQBSKmYHAOycY2Z27BgA5jcfTAGrR9dCSOsKABaCwGkHtUBSiiyrRtLyg9AYk2dpVeTOlQBOoBJECoGZnTVB1Dh95sLa+uW40y7yWT4da10DAAlyrJlZCWmMsa4IwkYYxbPpGBkWV9ZknefW2XKWHh9sb9+9ZWzZXzyfZzOtc2M0O0vkh1HcbCWd3kK72/eDyJiCmYV1iE6SlFIoLQ2DNaVwkITR4sraytrZZqsrBCGilHKWjgcHu/ksNUajZXYspUKBzll2zhhjrWEGAWI+fHNDIR5eIAkSKECqIIwCL4gacRCGzlrleUmY9BZXQfqbt9/d3tkZTMfHR3tExAxSKuX5yBWiUB5JqYzhT+bQn9AQBUklHACANeBYMwiytjYWAHwv9kMfhdC6FkSIKFVEQgFBGCVKhSR8Z4fMA0Gka5ul07rOinzmrPH8wOjpYOudpZWlx5969uL5y//mt3/uxZeyNLt98/r4ZLDQXr7w5KVGq3vr9q3dvXtVkYdJ7PtBVdudnS0Byjqra+usVSTDqNHqdMJmywxPUJIkQHQKhO9jFDSCMHBhrDz/+c9+sdnuvv/O9b/+8z+6e2eztdBJp5lzgtkxu/ncCQJEwezYOQB45P0PXf/Hm3MGgAEcACEKZER0gjwBAsDoKsvzrCxSAIsgSQbz5WSNtmwRBAkCgCKfoUfG6Lnn6LqqrBUEKESeT7oLS0IGzE55fqe3NBsN97Y3ZKfZYYYqn3xw4+Xb77yaTUbLi+h0bbR2dc3sEJ0f+Y241UjaURwBGGtqU82csUSklOf5ziFUpQYQvud1F/uXHnv67Ppj7WbHWRvH7ShOdu7fPdjbskYrzxcOAqWkVI6dMdpobY12zIAEyET00JMQGNg5AAdoleejQCnVPIK22r240XLOoqSo2Wy2upoBUWTpdHCwezI4mA83CkFSogMAECh/cn7+sSYESqmQ5Xxjs2wRwQIpSSqIo0ZHKdK60pVGtEgQNYO5XwR+EEVtAJqkqQGuTG2cBrDIorZ6Mhttbd5OR/tvpke9Tuf9d99+/MlnLz729Mrp9XbD++G3K/zyL/79y09+dn/nTiPurp5eP54W77/71t7WZl1rk2aV0cbReDRGFMyIQFIqzw+8KAwb3UarO6s1C0CwzlYEQpDw/MAPImbX7S+/9Kv/wflLzTdf+wIAnPwf/3yWTo2xj3bU+Rpw1j7aNn8k8D9aJD/ONIADAHwYoFAIIqk8L4ojCYJZc0XWgUAAqx2zYHTMDOwpL05afhgJkqYqAaxAB2CNKa3RyimlfADQuor8qL985sy5x+qqfO/Gq/v7W7IZJb3FlXoy+vDtN6zWcRSW2diBNkY70A6MBKEEeoGHgm1dGYaqyOu8EKx9z7cWiMj3g1zkwpet9sLa+sWzFx7r9XqANk+HzbildX20v727dacsCyGIrfa8yDrjrDV1reuKmRERiBAIBDBbay0AsHP24VgoXzE7FIhCoOC4GTdbrdl0mGezZqubZ2lhXdJcWFm/cDybZHff17W14Jy1zPxwMtgYDeD/xJz9x5q1BICCmBHAEXrK85WnWo22H0SMAEAClQPrLDg2RaUdOLAAwjmbaaenk2GaTqoik8qL42aj02pEEUowmo8HR7ZMRycnm1v3r19//dTqxfVLlx97/FOnzp67cvnCA79BWDu3vnZuff7n9vbOzXfeGE/GlebJ+EAbCKKmBQIGIoWClPKRFDsu6gJnUyFEXsyKbMy69H3VbLQrmQM45fkL/eUoTna3jSD6xa//TlHWf/UX3zjY3wcnUSAAzMM8swNgZ8XDYXfwQ+Tztw0d8PwxiyAYLAAwawbNYAQGnqR2kjTbXc8PkiyeBH6epXmWF6YGAMlEgggoCKKk2e4uLLW63SKfOAfG6Pn+Q1IRKZIqabZn6RTQLq6cuXT1M/s7m/NXkGY2WX3qmcloXKeTa9deGB4Ptnd2m3F8MN4FU/uEXqDiZpI0k9BXzNqXjQqmQqLnB6GvAYA85QCiOGk020sra6fOnO8vLKODPJum45GioK7q2+/f2Ll/11mrlIfzNyNptDYPvV8qpaRPRAats85ZzczMzmmLAgVJItK1BQBnjdXa84M4aeazUW21iqKizLd3t7NKC5JSKmM0gGBm5wQ4eDg9FgDwE+H/T27WWgIC4RBAyMD3lecHUqqw2a2NGU8mcRCHUcPzFGswXGdZBoRsrLbOVIM8L6fDcV6WzjhUzAAMAITCI9a2tKKumB0Qsx5OJumtuxsffv87346SxtOfeeHxxz9z7XMvdlp/630Ojo42Nu+Np3muTV4AA7iiZoEkFaIvPQ8INJvZLK21lqOhI8jSSZ1PBQGJptb1eDiw1l688qlmq/fhe++88Td/yUJee/7L5y4+1b/+g8ODQxD4IK4LB07APPB/DOBhBPhImAd082tEgSwEWAADYASA78koDBZ6vWYjRiHAZDYOlUQBoCf1HGMygOcHwvdAkgyCZqtjbVVm47pI6zIXAMrzSBIJ8Hw/iBeDIMqz9N6H7x7ub2fplKSSy72ltZXT0sHaqbNha/n2rZvbmxu6wrqagTB+2Gh12ovLK4srq+1uJ4qiJI5tlWfezFPKV7611otiP0ziuN3odBeXV7v95SgMrSnqMrVGT8Ynh/s7h3tbuq6s0cZohVSJQnmetXbu/crzledJJEQBbOfGFhjEHM8pFM6xY60QkdiYUkoRxhGAXegvr66dL7XL797aP9jPDaRp6kUtW1VgDDhnAQQIAgQEth+3//7EDBkAwVpLRL4fJu2O7ysAsOzKLLN2ajo6CKIwSkA5bTzgEqV00ui0yPMsm00s2zCK66pEIfMyy/ezyciLmw3fDwDsyXDs+UGiElCJBjEbpQcHA2Y+PhjcfPv6D177ThzGcZJ8+toXLj1xiQH2dnf2dvdGk9Q6UJ4UKsiLgp2TSrDUAGAEIpQVFpQiSQFExpZKQJK0m0lbSlXMhrPpeHn17Nr6pcno+PDoYDw+ub+ztX1v496dD6x2D6ALigd+jEIQOfu3yINHyOdjMrD5apl7v0UAz5OtZmthYaHfbUuEPEt1lUYeLS6ehTWYzrKj/e3xaFRqAwDMnE7Hw5PDOElsVVdVWRe51hUpBQDs2ILx/OCpay8IIW6+/do7b/7NPEr6fiC/8OJXW+2uqaps7ezxMK3yKQrO0iGDkVJFcdjuLvQWF5eWlhqNRHk0x+jGaK1rrSsiara67f7y6vpjnh80Gq0gigXbwhQKKQ4D7WA4ONB11er0snSidU1E1hlhidkJeoBBpVRoH4QN56zVFlFYtsZoInKCLBTOWhXFSnngcqlIeZ4FXljoB3FsS9todcNsdryzN0vHUZw4EAVoNKVghwACBIBygv/dpsAARITuwXyqMIiaLaU8a0xZ5nmeGaODKK6cI+vIgWar/IZDcKBB1SCJhUCFyvcdWhSiLKqyyEQOlamjOCGlssoU1hqsKkc+KWscyYCkqpneu/nejTdf1UXZbCb3bt166pnnSsevvfztne1d7Ug7kNIH9NnNQMXGOgumtg7ACrBSkCfJMXkiiPwoioKk2Q6jCAA4iNjx6bMXVtfOv/bKtwHAaPetP/+Xx4d7VV0KEczjPfMcwDgh5Bz3z+1HQD+Dgx/dBxwA0HwfACAkQZwkjYWFhZWVpYVu2+hcl9gMwt7K2YtPXeu0lypjX/nuN99757X9vX0UyOxGJ4eVLnVdtpLAVLlExyTAWadroVgARY1kcfm0Mboqi+ODo1ZnIQxjJ0E+/fRnt7fuKgJfBfv33zwZ7CSNRm01CpRSBGHYiKNGnERhKCWCdWWVFnlWpmmepXVeUhA04lZvcXVt7aIFRyQFEetKkAzCSEo1SfNZOrXWNhrNqsjrqgQAo43nB+AECZJSSamIyFnnrAUC55xzTghgB8xsrVXKau0AnVKkPLK1EBJICmcr6+xwOKqNS9rdVeEfDEdFVRkGBIlo2DlrrQLhhANmdg7o3yEGQgZP+s4aV1uUQinP9wJSSlvrrDUOLDhrrdamKgowxgArhNpqY0xdlcboeWQBsIIkkQzCyBrtWFtrjdGW0cnIAdS1FWQrZ63OAaySQlJQlIUvIz9So+H09de/f3/nfprNbt66dXRw4EVNa3RVaa4qAGi0urPpiOew0FYOrJAKJEmpojjy/CCKAuV51hqBIm60kla33e2jDN59+40Pb77jhDoZHqkw9KO2NQ/fzWhmC8DOaQAU4hNRDtY9Cv9IvqIoCJqt1kKvH4e+rYBbttlpXXzsU888/6WltYt1rcfDweHRzvHhEQlAhCybZtnUae2tryuynh8oZl1Xlh07h1IpoU4G+3VVCkG9xVXfD4zRjp189Vt/Whu7f7h3Z+MOCrj2+S9t3NvY+Is/6i+trqxfAKMFQavT9vywyib9fv9wZ+f4aG9n87Yh6C+eMwKIaHn1PDNEccvayhgjSfp+UNbaD4Ptd25IKZXnV2U+T9W51vNIT0SSFAo0RmtdgbbMrigLIpJS1VUJpBrNNjtdlbkiRVIhsfLk+rmneouru1u38iz1/KDUG0VZTfNsPMunk5HRJstmo8GJFUCOUAgGBCckAUql7d9Fxn0iq6syihM/DLN0Ot9PkcHVOUmVmzxJesqjqs6aSZ+sUJHXlF1rjbF2f/eeAIiDVtRK0EMGVp6HiNPxcDoZOGsbzSSMAmutrrVjLVAozxNE1lpdaUaoy3oyHgKAJ1UYNYjk4OjEmlJK02om3dXzeT278eZr4ywdHI9RhnVVW0YmAUDggtl4BKYGpUgqkCiRPanCMFRK5tPp2acf01U2m476/cU8SzXj5194qdFeeufNl5XnF8VsZ2dbSmVqliH4QWSMZnbWaAB4xGN+LOmJAALAakCBKFAggUCUiqAuawRIkkZvod1bWjp1em1xZe3s2hmJ4KwBUr3+WndhCVHMESYJCQDGGCG0QESppFLMmoQQwCyApBDsJBEA7Gy+n82GRVVVRRHFSVnMKlMvnT4rb9+83uqtLPSXF9evahB3Nu+MXn+lKMoLyytfeuk3QuXf/eC1Is+6rW7gBZOT4fHR/uj42ArwvKg2Fcqg0eq3On0kyc4pGQrSrtZEQRhhkWdVkWtdO2vmHj8fA3YsiIQQSkgUgp2zDMzOWjt/khlQCCQSiE4gorBOmzKX3fbZi4899tgTnW43Gw+UT41mu6zNyfDkYLA/nqWDw/3xcJBVVeX0HIgQAIMA4axlgQ7gJ5MGEJGUktnVVcnsiOYJjBMESqFHQklEZO0qbUtjtB/Gyguqusym4+nxQJdlEnc7ZmExPC18T0pltBYEnq+sAQZdFjMiUh612h2pAs8PrNZ5lStfWcuOjSOQIIGEs6bWBK6Kw2aURJJUWuSzdJxnZZaXLAgcOCCHDpgA3HwAKGwxaGcqQvb8IGmEUZwoKXLAPEt1lSGKqswno+Pe4lJvcbWuytHJSZmViMoaW9ZWygCAjNFzuP/Q6enjic4HyOffNAFmznRIQYFSSbu5srp2Zv3i6sqpy1eeHJ8cjIZD3w+6y6tRq318dHTn1rt379zMZkNSKIgAQCnfi+IkDqPAd6bSXCrlJXFLeNIa1nWVlnmWTkqtdV0jSOdYKU9KJVXQAERttRLCOdi89/7GvQ+CpMFWSKnipBkEyTy1B+fS6fhob288HhIpz4+tgVan2z+97ketPEuLKm+2ul4QlyZVymMZHJ+cTMbDOfQHgHldDJEAwDkrBAmSiMgo3EO2EkGCQ0SQUgHRfElYa6Mo1FrHSePCY09de/4Lti7v3kwFSRVFFIhoNtMHO4PBwcHh9mQ6AlKmrhElETgEQAAAdmjhE1aB/05Tnu/YmUoDgJQKABg0ghDIfuQ1koYfeVVdTyeD4WhIUhERWpel43QyNFUdRbFSnlKepwLLtS5TNmUSR4jzpQTMDCAEURglUsoiw5JyiUpLYEQAgUIhOhRsXGm07i0mzU4vn05Go/FkMqjyqja1swRIzMAgwOIDFkwIBu10BaZwkhyjrqGAWiMhqsnwQCF1uv0gDKI4WTl94eLj145PTna3754M9rW1RVEbbX2frLWmLuc1LxQo4Iew5+8uez00C4Bz3sBZG6igEfuLK8vr5y4/8eS1c5cf6/SWpul4e/vezuZm0l2Iu0sUNO7dvfXG69/+4J03prOx8nxEdIKjJGw0unGjRQLmXEfk+53uAiiaTqdFPqmrMs/S2lhdVyCUUp7vNxCVfO6nXyrq6s7GrQ9v3TgajV7//ne37m+vnFkzbF97+a8bcZSEwcrSOcFiNkmrNJ9MR6W2oR85J4TvL58+3+2fHhwdHuzeL/LZ2vql3vJSUdWxCLWxx4cHw+OjIp/VVak8XwgCABQoUGhdISKzw48Qk8wOEed7AiLyPNuuS60L5bWVB1IqEhA3mrpCrctJOgyGh62FM61OLwijIi/Hw0FRmKAZgS3m00FE+IBlcw5Y8MfGoU9kjp1Svq1KY7RS/jz+CUHZdAQ2cAJIgVIiq6oinQzHh3VVeqqhpGKtLVovCqNGK2kmQRiRQpu5Mp+y1Y1WHIUxCFHO0lmelrMUUBEIiBIEG0jfEUpg9hSiL5Gss0ZrrS0RgZTa2WmRDqfHeZ5bA8Y4gQqYAVA8TM0BANC6sgS2QpKnCK0ussJUqDy/11szxkk/8IMoCIOV0+fOXrgSxUm1s72ztbm/s51laVEUYADJr7KUrRFs5+QP0kPW330CrkEwAFqrdavdW1paXTu7duHC1fVLlzq9BXbuxpuv3t/cONjdara7Rqjuwtb9e7fu3bm1u7eplCel79gp5QVRo9GIJUGVTaIwaLWXWgt934+LPLO11nXtSWWMNsZaZ+uqlFIJIq0r+dgLz9gMxll5b3f3aDiYZRMGQOnFzYXj44NyFvSvfKrV7LsqrbIsz1JTM8kAmMqyaibd1sJqkZdvv/nq1t33DfA4nZ6ZXQCAdquVZ+nGnZuz6aiqyo+SYsTAgqRU873SOWutravSlKXV2hHOuVEiCTCPgiBQ6LpqJIE25e727YO9DV+pPBtXZb6/sznN68lkvLOzMZ6cVLq2Foo8QykFSUGEKMRcbYI/KfgDAGC19v0ABSIKKZV1hoRc6C+Fy31bFSejgTWlNrk2JYNF5DAMAAAlEKkmNT0R+IFkZtYGhBRgfd9TIgkaURiGzrGrcgJ2tgZkaypTEWtAMGCNIpTKR09KUJXRAIYZVRCUVZHns5PBIM9LywIlEQqrHThiYGYHj1Y+CwBHigKffElsa0lep9dfXjwdRu3ZdMZgaj2j3J29cGV5eW04ODgZHBzub+/vbJbWWFMDeszgqgrAOHBz+QM8BEIokD+BhMoCoO8HC/3+6tmzi6srrXZbgDi8v7m7t31/Z3tWaREmeW1v3XzH2bcGhzv7u7vWglQ0lwt4JBpB4CsyprROd1dXz1++2mh3Z7Msz8balMxOSlUbDQDO2qrIPT+ojS5GJxIARAgl6+ksHU9Gwou6y8txq1vU5UKnv7pyOm60ZumErEYkXdYGUKrAAjLKIG4XVX3/vRuvvvLN/e1toWQ2nR0f7rW7/YV+PxsPt7fvVbqeKx3MgyQJHANJFUYxALB54P11VZqq1HUFkozRAoUfRggIAEIg+QGz9oMuImazSToZ2dATiO1uN8/g+Gjv7oe37t75IC/KRrJgeVLVlvxICCQgFAIcCCGQWSC4f6ut+f/bHPN8yolIKmkKHbeaV5+69tWv/PzG7RuvvvzN3JTO1c7WSCh9FcWJMUY48FSkkCIvaMQtP/DqKnMsEKHdbjNoEmCdtaYUBGHoSep6fuypmFnUVSUNFvlYSqk8RAlsrS+FLyMbk/T9dDodHw+nWeYYQCpwAESuqpGZH6oMGAGEALCIDNaCAQcawTai9rlzFy9f/ezR/oHVYFyp68oY3Vtc7S2uDk8O77739slgMJmMassADqTU2gEz4FzvIEC4R2vgoVv/Wxtye6G7tHiq31+Jw4YAURXpwf69mzd+sHeciiAOVJRX6eG9zdHx3nQyrKtSKQ+FsM46ax9IBFAQQavV6y2urpw6FzUStnsP50hY64zR8xTFPNQZpJOhBIAbb7z95mvfvnvn3e39vSxPw6QZJu26skEj6S2uep4anwyxSuvZNM9SIklEQCrpLrW7y7ub99658cr9u3eyPFNRsHH35slw7+yFK7XJZ6NhnqUkyKEQ4OZKhDkV6diFEDtrnbXWaGfNHPwoz3cIxmjrwBgnQBtj2GmSROQrn/wwiuKEpJzNJlrXvcXVrEQ/L8Jod+6IoVIOhKy0YQCHCIKdYxbWWgk/Cejz0OYJ/cNsXgLAQn/52ee//OW/9+vN70T37908GOyVrMlDIaXnK+YH6x+RPV+FQdhstbrdXpXNrDEMTikphKiqzNmKwBKwJ8kTcRS3PT/WlfXIY2cl1sInKQPL7BBQUtzoBo1mOsuGx8fj6dA6IOkbZ9iAeLCLOgRwwACAgDjXlzBYtlVlBaKSgMSEIAnqqqzKPAj8IJ7TUNXx0d77775x/bVvp5OxtbbWGlAiotY1KA9M8SD9dYLB4qOq8MeanY/Cj9xtdXqtbieMQinRC1Wnt+Sc7i3u39l6w5Qa7CTLx5OTYZqeMDtBypECEKAr62xVlXVVhmEjipLVU+vtdheFM7oAYeYku0CsrTVGe77ve0poDsNYhZEbDuTRCf/Nq995+/ob48k4n07raerFYNJpf+WUIhACgyCcHR+eHOxV01E6HQkZoRDS8xb6y41m+97d1zc+/KCuSs/3POml6bgspu1Or91IylkqkRyRJQIDMK9sOWMBhKO6KpnZaTMHOUp5KBQK1M46drq27NgYU1cza62SZEPPVTUkEMVtEv7gePtkNOyvnI1bUaO7lJX6ZDy6v3u/SlMAiOIkz/I5DmV22jkJwgiB7H4iCQA8jHPMGoEQDELVbicXrz6ZpZPpZDiZpnWlReCHIQN52ri60gB2rv+rASvPR1RCBo1WOBmfFMVEWEFgdV0h2SCMJqPjqjIAgAJrp50VAKR8ClRbKoGgtK605cBPugvLzV7fbG4zM2stpC+IXKXZaGRg1ojzNSA/CsyFUqCdlMLzQ98DB5ROJvu7u3map3neaLbjpDUcHNzf3NjZ3vred/7V0f5B1GiD9EEzUgAAbEuSnjN6DncechgAAALxx8V/QraMBA7gI3jMIRCA8gPyPBJEJBut9tr6peXTa0L5Gzt7J5N0OBgMh4MiL5C8wA/9IMxmU6u1cyys1XVdFSm220ncXui1pIQiPS6kX1eZUEAE5iECl76nlK+UjpM4CIKJL8iY8vrr359NZsU0Sw/3AqJ2IylGAyK3fOrswuKSdmY8Gtzb+PDwYF+FTZAibCTG2t7y6Tu33r3xg+90u4vbm7cbUTQdHqHWp06tLS+ukjM6n4HVaByRiII4aXYCP3TGGK2dMZIUOyeVSprthf5Kq9ML4gYplWcFopRKCURbF85YJVUSNfqLK1HYSJJWs7PAAOl4crR/sL29lRs7zcbpNB0cH41Gx1obYmmt5dqhAERAgUjIBE4wAAA7AAZgRAQAFAIREZGdnd//kY+YTyoSgHAgeP4RDAKjMHBcO50TWknu6pNPfvVrv6ZU9Kd//AfHRwfkh3Vde0EMTMzgasvM5Ww2m84EULvVT9p9YAxbK6OTyc729uBwT9dGkYcIZT6bTSZJuxNEUVGVDl27t9hoN0tjhB8NR5NZkcetXm9xLYw70m94Kt7e2DrYvq8rGwVNXdSmLAR4oR87VxI7RkZEBgvoGAQjOmsoaNRV6ZyYpXm3v/rCz/ya8KPDw4FDSX6MMkiLfGPjwzt33s+LEoBmRYkAJH2rc7AWSHKV+yqWc9nVPMdmFJ5PXgCCkJRAAkZkRBAIhECejKy1c9UsMzhXWGekUsKXZZ7FzfaVT332ytOfbTQbUspufyXPxqPj/cOdO9ZpL4gqa7RjoTzLbIxDdF7gBUr6PvV7ndMrvatXLnM9NVyfWjtz6tzVosj2Dna0cyA96fmkyBoNwIq4mA2PDzfl977zTXAc+6G1HIft5eWVZqtzeLIbt1pxpPJsdHi0u7+1NZwco2PtbL+9kJdZXemj3bsb71+/fft2r7WfNEJJ4HmUxK2F7kIzjLSuTJaC1lJKdEiCCIRFR1IpZedKV2Y3z0ictYKIHVtrOwtL1mjHzllb5KoqC0JQikxVi0asPB9Bam3TvCi0cUhZkeqZGRwcDY8Pq6IA64zdgcwAACAASURBVBgM1xqAHkqzHkUaCwLA/mTkcGVZSMnCWZKC0C30F85duNRqNW++9dbo5ISBBCmAUmtbVxUYriut67quzByJkhd4fhDEnXQyrq2uy2qwvz852ccz55ZXlv2kE0aNuNXMy2KcTovZVDXSUJAhGA0H0+lYgAwbWmVVWYxn4zu6rg+2tsos12VelhmB9GSEKGytyQEjAwOjRSBGAIGAAsA32gKg8Dytq8P9vXfees0YzaBqq4+Hh/pgO52Oq3Kma5NnmTHasbVMNI/c0pOeZ6wzOp8Xv6QIWICzlSkLg6X0A0QUOCcgFLNDdgwsGASAA4dMYdCw4Nd6VpbFzuY9szQ7fXZdBmGj05W+v39wa/f+nft3382nR0pSJFADBS4y1qH0fOmRzMnWvi8SX7aayUIrSeJY69wLhQWldbXYbn7h5381ap/619/8lyfDEyQMwqYQXMzSPEud0wAgd7bvnzq9FgTRNB2Tp1q9xc7CUim42euGzWZeZrtbd473DwSjIq/I0zvvb6+unVnsr4xPdhTYn37x841m9/jkZHd7g8B5vkza3TCKi5NJbbVQ6hHisNY4Z4UQc+5WSjmn8IoiK4pMCCKSKDAMAyEQAJxjZs3MApzyVBCEgmSRz46P9qyptK5b7YXu0nJaF5PpCMUAhRBE7KCudVnmpJKfhJ9/rCnlGaMjT2lt66pc6C+fOnPRGL3x4bvpdAwAztoizzQ4Y6z0fJLKaK2QSGLgR74KlOcrj/JZ7nui1W0Z05EEylNa12WZXrj6JADUg70yr45OBoPhGFVQVlWeFUVWSqK6MlWvBOvyybjMS6vLXn8pmwVlVfcWV61x2zsbjmsPpYO/Xf5DAYjIwKaeIxdEUeTF7v0NIuqtnEa209HxeDioq9LzFZEf+F6FUNcO0FpXAdRgwIAFlyuZaKMBhJQIJEqjAQygZKEQBZKaS8esBaetA1uYjCAIZGCcy4sUwCAyAlhjptn06Ghnc+PDVqcHWt96//W7t94eDw6dNXGjWWiLhi2AYhAkiMhiSA48yVHot1qNVqsdNSJn4drzL529+Kl7G3fubtxpdFfidq/Z6qOItK6CIAGwxSyfzVIpVaPZkSA9QJXn5Xg0drocj8dRsxs3283uchC0ptPdNM0AKel0ba7Twe5ksHH2zHKnFd7+YGN38+4Tz754+eqTn++f+t5f/en97buCKPQV4oOirh9GdVU6ZgBwun6kgEAUKAQBOGG1rudVdJJKSlUVg/m1EGiMttY8yqmcNXVVZrOJEOCsmVdPozgpqsrzA98PJHlW12wNu0/Md35s6vZj+TxHQRgYXSoVWqcF06kzj61feNxZOxkdM4ABV5V5XZVGgLXOC6Jmq1soryZFRHOBu7XWlKWEajbeHw826jING+0g9HqLi81u7+bbr4GUyo/PX/nMBRVbYO0cOCrycnhyODo6qLN0b3YHLVujrdHDSTaZjKXAp6698LkvvHTv3gej4UFWOMfWMgO4h2IzAQDAzNaBAGDUZe5JbCTtRjP2w6jVbgHrkcmMyQSBtawUdZb7ZVGPp0NgYoSi0ABOSqedCALfZbXlyjE4A4AAKIUfAICYk9mCWEqsasdgzFwpAey0cQUAIKAg5awL48Aat72x8R34kw/fu2GdGR3vTUcnrWZsLQiSnlDSp5h8A8JZw7UWvkBHxDoMqNNs93r9xd6y56tWd3XlzMqtD+/8xZ/8EVL0+LUXzl58amdr8/hobzabOmvGo/FsMk5aSaPZJhBUVvnweDAZDqosq6oCBba6iyvrFx3R9tbG9uaHiCKKknKWjY622rF75nOf/blf+vtPX3suisLhYE/r6tylq73+stXa1lUQRkSYZVOtK+V51lghBMID/lGQVMp7IBxAYGCea9+cRUAGzrKZ0ZrZOmZramu0QCQpgMEL/Gar3e72gyAYD4/3dzcPD3ZqYwaDweH+9snxUTqZVmXFjEJIBgEAyHPuz/6wDM8PPP1BDvCIjvgYnSjOsztkAOaPxFFSVBYzTylESOLWC1/6hWee+0pd61e++xfDwZFDsM4KQeT7dVWRVNLzHTtCETdarVYviGLJaE1RzE4mJztVkSoJbOpsOkJJnYXFpNnuL68/+1Mv/epv/hcv/epvXXzic4srF06fuaJU3Gr2lZBlkXNVhqHfX1xeOXUqiX1dTRd6i7/6m//xz//Kv3cyOHj3+iuSqNL1g9+IACAAGFgAIthCBnEYhHWZ+57XX1yKoySOoij2i3wyHu5bXfp+4GzdSJqXn/x0Ohlm6QjBhHGIAFVZOWsAmF0NYAWCQ+vAzLsXUCCSEkTSk0QkaQ6EnEBuNVoArtI5A3goozhCZmON0wacra0ZjUZbWxv3t+6ls1ygTKejsqoEqbDRanb6UdQUwE7XzpZx6MeBFynR63bPr6+fP3dxcflUNqvefe/tN9/4wY233rj1wdvGweraxd7ymRuvf2/z3t2jw/3pdHJycjybjq0DY1gyUp6XOstIWxR4MhgEUdxfOxs1WvuDnb3tjf2D7chvOK3LWa5NsXZ2/ee+9ss/89KvAMBv/IPfeuWV77/66vd2792MGx1rymx6AgDO9J01SnnK83Slicg5BwZQCKX8uVh83rPDjhGFlFJKOd8owjAGgLmqVDuNQswrx54XeH5AUgoU877bIIi8OJmk6Wg0Hg+H08kkm2W6NiAUohDyx0B9AR9LhT7qP/5Rsz+ez2aLzFhXWhCEUUOg2t26t715e/veRlZmYRSHURzGSWmqyXhc5DOuqroqCUQQxiTVXNHFtiKhwwA59ioDZZF7QbJyev2JTz/3C7/+2yih04IFgDHA4XHn8OBw6+7tnXsbYHWR50rKpL+8dmZt/dKVhXZ/Oj68/sZ3Az+5cOnxwPfSySCbnQCgUj7PE3x27oFUQQBYAFYEcRSjKeM4VEIU+WSh2/KVWOi2p8NE1zPlCT9Kzpw//8znvtjt9jbvva+Uv3J6fTw4ufneG8PBAQAgc6PZJqmm2STLCiACZFcWsqkEeYIkSSUABREjWb8ej44Xut3VM2eY3eBgZ5zOECAJw2lRKEFRnCCoNJsUeRHEFoUnjPY9Up7XafXIC4ejwfHh/XR4nLQSlk76Mg7lYre/snJ6odMixPv3N9/8wStA/oXHr1399BfT2Wxn+/7R0cmd2+8f7N63zjUararS2oBIyyKrZdJdAqtTrZ3VyvMJHCkVxK1Znh7ubx8c7dZVKSwclgVZ0Ymbzzz3ws985Rce+cHzz3/+qec+/8d/+Aff/LNvHB9u51lKRLkfzHu42M17pRWRcM7OfX3uajRvCDbaWTN/GACstZ4fPyobMytmloTK83w/kFIxc1HMnPOV551ev3Tq/GPbh3sWt44OD9xciEWSGZwFSQIAHDr4If41AP+/2oLxR/5RALj5IrTWSKniRrvIyrde/+711741Oj5kEkJI7TSAM8bMj8DQdVaWuSLVCBNhHTEIBCIZ+1GVilE+NGyvPPnsz/7Kb33t1//Rue6D1XsI8KevHd248er9rY2tOx9ub942lQ185XQJBsLI73X7vXY3aUb7mwdcpYWpbrz6l+++9fLNG9/xQxn4SVExM8y7Qw3jQ5ECSa9RVyXESauz0Ol2Q98LPPnMcy8+fvWJMArfeOVbf/UX/2I6TaNW59Tps6tn19cvP37vw/d6S6tPP/PiYG/zz77x++9ef8Ua01tca/X6eZ7fvPlmlhdCWiEDw46IiADRPajDewRSeI6yKXcWFp5+5rlOt7/x4btvff/baZoFvqqKQgqJVlgCRh/IVAbSLFtsJyRAeZHyvLIqT/Z3hwd7ti47rQhcjcyBCnv9/nJ/mY3Z2bu7eW+jNNRqtJPeoq8aR0fXb779pjEuz1LrjEBpjJtXxw0rW2kpJAkpnYPCcQOo3Wr3ls8urqydHB8MT47qqgjCyBNeMUsDUs1W98zZsxD2P+oeDQFf+rlf+ZN/8b97CtutlgpjRMHOaWfn6ou5BMhaSwSOWTj3gPZhN28IVkII8uZ6EgBA8WieYF7fI6lms2mUREp5SvnsnK5rjpik6vXXToZTREKhPNUIfGnnovsff/qDAVCfxPfNx9wXxmhgEkhB1Fron/aDeDw82d2+j0oqzwfCfDbTbMs8K/Ks0WhZZ63RYHkuQwcAQaSEq4thI4kuPfHk6bOXfvHrv/PVn/opeLhSa4Dvv3z/f/1n//Tl7/4/7YXVTnc5nY4VKPY9tgU4E/hBq93qdpIgCDrt5rkLF4qyvn/3xs72zv7+XqvZCqKuGU6YAZ11KICRmZ1zABDH0ej4wFRZZ3Fxsb/kK+r1F3/2a7/+My88BQCXrz69s/XejeuvKwHIOpseVRTks4G/dur8+rlWHPYW2oHkms2Xfu7n405/e+vO7s6tHQtKQhAFFZFAmLdvC4ECSQiBDpDhyU9fi0Kv0QiuPP2pK08+tdjrfv/bf7a/d+JJqMpyVh4AIEsfpKeiRIWeAeF0WVVlWeRZVpT5JPBla/FUu9lWkgNFzbi1tLjU6vRmx/sHu1tV5cJG37Dc29olpQYHu8dHe4gqDsMqTqyxdVXWJgPwyIbOgYzb3fFg3wEHQirldReXT529EITROBuOhnvKk0JAXRWtVsdDInDXPvsFgAIg/Kg7/Nk3fn82PWbHQRh6KkQhnDUEqKSv5ANpeBBE4kE3mbHWzMbjedsyABitAWCOjnz/wYk3VVUKS8oTvqdIUNxI8ixNWs0wiqejwXg4yLN0PB2JZm975940mzAKJ2A2m0pQUdQ0dQZzCRgAPOgBeMB4fPTNH73Dx9gP62YoEEEgPsgjH6TyTjtrZ9PR5p2bdZFHcYJK1qYenRwaaw2wc67T7Zdl7ntBGMbIMD8USEnptBaBWFg8FQQQN3u/8Zv/2ZMXHzS2S4CNGfzuf/6P337zB1Gzs9BbFsoLosbh/rYC5SoPXaak9SX1+/319fOtTvu3/sPfBoDawJ3bG//XH/zen/7RH4KMPvP8l3d3Bru7m3tbW0VegqR53AGAeWdS0mwvrZx5/OpTSpJCunDxyvwFnr585r/5H37vd//Jv//df/3yU9de4LpoLfVPra7V2fTG6381m463773XiIOf/rmvP/fFnwah8tnw8pUrRLS9vc0Enh8wCyWprnIibHXb08mIjbl46fIXv/oLEuDO+2/deue1X/y131w/e46sffuN793f2J4XaEgICwBlXtd6mPvWJ186gUqgEgSdbh8cexJIsCKI47i/tNRsd521J4OD/e3tooKaQ52lo9GA2TnW/cUl4+zB7o6r66IoHQCAlCKy7BikPBnsF+nUGO0J0Wh2+sunF/r9IA55oKMgMM22RCyzzFRF7DfOXb5y/tKTP+L9s5Jv37yezTJrmGT8KMKSkFIq7RwCsWMUKBABgAUKFogCxANtMgox3yUAoMgz5XlK+WEU+76y1iIb6ywK4cmgkbSCKM7TMQq0Rhd5Nh6lh7u7w6NBnuVVZepCK2GF+DvCvP1kkmj88ZvAdDyMGkmgIqPd0f6B1jUhlWXhU8QASJKBwVoWIIg8P6gr4/mBp7xGnAR+AAC6ritwuSy/8JXf+OXf+IcfHdMPh/A//Xf/5P133wIAKdXCwtJkOpwM95tJW1ph6koXpd/0+yurV5+89uJPf7WbPPhFnoRPXzkvf/u/MpbefP3l4cmR8oL5uSbWWifAzfMu54yzS4srKytnm0kS+NFjj1+98sSza4s/RHpPXF7/R//4d9n9s9vvvRHFyROfeb63uJhOTnbuvnd8tHfu7PnzX/mFZ77wlShpGubPvfj8409/5rWXv/3Hf/i/7eweoB82k36ltWM3777V5ay/dPrpZz//D/6jf9ruwAfXb25+8E4jCoNOc+3M2vW/SS1ABOAE1M5aZ0GGGCa+InD1/HAU5XlCzFvHaiUpDgNwOmm2+yvrQdAcnhwdHh9aVlVVlVxXeV6UQylFFIcqUlKDgFpJ14xjh1SXtjQ5OOV7TTk6PgJnwFrle+1eZ23tQn9xJVRqZWX16GhhNpsI4CgK8rrsdNovfPFnw+6pH3GFN17561vv3UgnU1JBQA6FJIuCpZKeJM+BdsxzpdQc/SMzIgOAEARifiqYeKgscFo/6BdTylfK83yBzgLYIIjCOGg020EQBVHcaveICD3vzjvvTNNRWWsz15gIZIEG3IOl9dH4/hNtiFeeP5fUAoCzoCuLCgQKCzxneCUCOyelIlRWgF/ZIIwDLwijGFGYqjZlWbNbvnT+C1/+5Y96/80j+1//p1//4OY7ym8CyOnwyBqTT4d5VjTCNolAV6UCt7K88tTTzz71mWcfef8je/Li4otf/HuHO3snk1lV5fMNFgUCMLObn8ohlTp38bFOtwuo0+nx0sraT73woydt/dJLX/uZn//a//jf/pfvXn9lNvna4sqZbquLTsehevpTX3/qM8+QgMKZ4WjgyVOt3mnW7lt//v/S9t4xlmXnndh30r3nppdf1avUXV2dezrM9IQehhkGjUnJpMiltCQlywuvTWJhYG1gZRsWYGANG16vvXLQ2oawgixp5d2FoiVRWnIZxDSc4Qx7QrNnOk13VXdXV3pV9dJ9774bT/Ift7oZNFxIhn1QfzwUHk6de+s753zh9/t9X+jv7dnclVkGYBzbpZhk8cR3gve+/6O/+Ln//EITpgDMokk8vH/7SrvZcS3i2YwDMAoCgTzgxwuTF1ku3cC1bJu7ns1dioAA1rJ02xklrNGcb88eVoA31je2t7ZzDVJqaUSaxGHYsxgwOqsVSpJQ5FmWgtEFs6yHCHyNQFEjBQZNCXEct1lrtOfmKtWKMFmtXgs8H4NgFCpBzQE9Nz//1Ps+9FdN4crrr3S722meO4gTbIPGBj/04AGQNga00QbwQXCrlVJKIlSe++SR6RtttFIIYSmFUqogmWUzm7su55Rhv1JzfddxfKWUEEWpPyU1TuJYSkOwTSkgTYEJXGrIwY/6Nlj9jc/+H4wyKP+RW8Wv1JQUWZLYDveCRr05C0aYuCyKIgkGFVpjMFJrQhml3HFdL7AwsWzHSFXkmShyy2ZnLrx3odF8NO31nfg3fu2/2+k+aM0tKAXTcZTEkesFp049piQk8TSeiEQKmztz84srx07OzTXh3UZn4XBrZj4ptre216aTMM8SJYTCYLTBCBMK1UrV96qT4cDIqRiHo/7Ou84TYPjl/+p/euO1l9duXSviKKg2COh2s3Ps5DkbAwBYSIp8nE8jXanXasFjpy/kabGztZWkotFatGwvng4Rwo89e+lnfv7f/8CJWg7wb1566cUv/sFwaz1g7txsB0v9+BMXi+mL4zDLCqAAHIEkWJoMABybOa7nOD5jNjKSYIwAA0CeFdW5+WZnyWBrt7u9/uD+YDSmvAGUgtBFPk2TCXItggQjBHTWqPEpzSZjiIuCAXiWpw3LipgCKEQQI8T13Gq9VqvVuc1EHMWT0GgR+L5FscsYrQTHjp168qmLP/aCVtd3r7/9/clkioARYiEgAKQ0GINAgJJKSNAlxB9jDAClfT869R+NsiKAHuq3KaWKXBmtQQlKscs913eVlmk6jcJhEkdC5MNw0t/fm+RKpImUD7eaIghphsgjRC6Cg+1g/j+7BIgolBAZlgoTXORZmkwZYRhZhGONNIhCSpElcZ5nGhAmlNVtTIjrBpbNGdhJHEkpRA4Xnv7BmSIBfv+f//q3vvKnC0fOhONQiLwzN19rtJvtuXPnL3GP37hy5cprbw66uxjiRqvZaje9n+Dr2dSybF8KHU+jLM2FUaX1AwC1EGM2d7zxeK/7YNXlTAbBsL/7kx6146OPf/i5/+bFr+3cv+1wx3VY1fPXrr3+1HveBwAUKdeCWGaTQbfi+8+/8Akg7trN37JthzEs8jiNo5OPPfnJT3/+Ax88owDe3B698tKX37l2GYtiJHLIoscvXDp7+rxH+JXvv3prdV8CuAwVAMqyXC8oQyZucQJISVkCh43SRplGc65Smw1H4d279/rDiQJugGBCVJblIqYUtWabR0+fajZaQiYWZgaz3e2dG1evdbs9BBobaSChoIQxYNm82ai32nOO5yCEERghE0LAdXk86YfhsF5vnzxz/q++ncuvvLi1uWk0ZhYnxEaYlUo8JUVQiEKD0vBQJvLhBvhhfswj4UhVArsRLmMAACjyOE3jLJ4grLUQiGg/8ErROEJZNAm3t+4P+73MUJCgtQbAJdEeE/LwAsAA4ocXjP7fM8LUw2QoAYAsnVo2d2wKACVqoFatedUAKOQyE0WeZHGaxFmWlDR8hizPr1o299zACACpiiwFk03GIUCnnP23f+/Pr199vT6zdPf2tUpzZn5p5fkPfeLYidOU0nZ7Nhzt3bp6OY1GRRE3Gs7S0pHDh1bedaF7Iay9cz0aR+NRqJXCCBPKEEIl8JZzy+YcAEb9/XA4CBbnKkGN29a7TlWOL37t29e//z3P906eevzY8dO1IGCMZtOU+w4Br1mt9ba2+t27gGqPnXuCMPed62/dW70d7nWlNDNLyx/92Gc+9ZkXZgHe3Cl+73f+yebGTcvjODMAqt1unjx59vCho/WgUWs2EPry3fXdsDAJFEwL4C63XZu7pAwk8lQpRRBGmFQqQa3RRpjt7N/b6u7kUlNq51mWZWIajY3W84uHLz711LPPffjIkSOWY1FEaq25QW/4lS/8yVf+4k/X728ImWEACqCMRjZ3WzOzjVabIRBZVMRTVWQqmzJGqvUarcLyoRO+5/7Ye9kJ5fde+lo4GCpEiOUAtYzWCggmhGFOAJRKNGgDuixy4VIoWButNcbYGG0UHIgHl781pgRwWzbXShU5KKUoOmDcAoCUosgzbTR3HMvmSh9IayFSUjFI6RpiQkwh4P/PQSjDmGJCjNZaKVHkSimEUSGyLE+SLBZFAQDEtrACbUwp/kUIVUKm02Q86o9Hfcdlf/B//Xp78VePzzqvXNv8wu//xm53+9hjTxtMLl760LMf+JmLTz9e8SGNYevuvde+9WdvvPzlrY3NIhet2uGgWqn8mArcw/H6y9+8/v3vjfvDsNcThSqpSAhhhIAy5nqeX6maPDcKatVatd5qzrQdx/9JT7q6PvrXv/d/JnG0eGh5du7Q/NLKyvKK49igFJhCicHGvVvdzdVcEMJEpb7wxJPP/dxn/96/+q1/ev/+aru9+Imf/w8/+ZnPtxGshfDiV//kyuVvUwaBzYNKbW65ee7JS4uHDjm2feToCuc/51eaf/mX/+bq9ZumAOZwijWzCSMMI1RIKYoCYUwZJZTNHT7OuD8aDfd2d6bxFCGcJcloFGa5TrJJpVY9d/HS+z/00QsXn2i1m9TCFnX9Sn1hwRSpGIdRMv3i9s6OjRhFgAhgh1uVasMNPIFFOh1Pk7C3szPa7TVm5o6vnGvPzNarrf6w+9u/8Wuf+49/+dGrWV/fuP72W6PJJMsyv0IBQAKmWmOKEQPQxEjAGKu/kmosj6IfM/3yliirAcZoIRIhcorACypBJWi35qvNOiZ2Eg+jycSyeZKLJM0QZYzYIEFobYxSGmHItcGAgWgwZRr0AAxG4CcLE/zbrR0BABAMEgMDoxQCn/MsS8dpalE78Kp24GJGkjwqSJHmUZHHxgjbsTxaQQgbBTPt+bpf01pPouF4MBz0dtMkRqT+5puv/6N/+A+MAoPB8RrG7Dy4+878oZWP/61f+sBThzjACCCowt1puPb25f7WGmdM5ZnIx8m0Nx33m9XOX11ukmVRlCRCjMfjPMmEEEZIIIZSZlOLu14lqKUwpoQFruN5NdsOjEGpAOfdHKqvfelfhuPeE5c+0J6dH456l1/5epG/5+iJMyZPxF507fvf3Nt/AGDNHTpNKIh80pqZf+rixTdPnJDZ5LHHn/7UZ//O+WPWRgrf+tpXXn35qzOzC3k8xFK0OwsXn37/2bNP+V6tSNNJNFo6dhrcYG8UDpMs09ryG6okkNMy05ArrWwMzLKZzTqz88bo4WAwGU+UBAVqGiWDfs8gZYyoNzqnH7tw+vwzrZmOEnE8DV0PwtGYILfdWTpz4dLtm9eHo6FUQDxj1SrV+cPLR86c7CwvIIYHg529ne1oFBLFZhtzR5dPzy8e4R6/tfraP//NX13bHM8ef36uzq6uZ7/z6//z7ZvXs6wgjGNqgwbAmnKLMKagyLVUUORFrpFBBGNCNDLaaGW0MYZatpCFVBITijCWUkgtEcIaoBA5MmBZTBdFnsacu7Odhec+8snZ+eUkSbp7O3Gc90dht7cvDUWEgcFK5saUBACMCDZgEMEIARANGBmCDCblDzLwrrh/rQSmmBKCkCkFnoxRSkmkEUEUI4IRJuWkxihVaJkTiiilmGiLM8f3NIFpESqq4myCMarW657nYYNdy2s3Zzsz8wSokSqN4pJbiChjXq0/ze4/2AwnqdYknsZaiPn5xcfOPP7Zf+9jHgACcAC++503b77+shL52fNPnzh7VmQDlYbnz198/oWPWX/FZA3A1ZvbL7/04q3bNwppknBCNcYGE4Q9v9JqtKt+FRNktE6iCXe82dlFLdXd2ze2HuzX6nMzsz9yq7z02itf//IfLZ08s3LqgjByv9+9evWV27evt+aXg9n5G+/c3BtOCrBr7eXW3NKk35sM9prViu9gzyUWER/91C987EPPjAH+9E///LXXvt3rb9paYJHNdeaefvrD5x9/X1CrC6GUMYYySdD6xr23rr0RReO5wyePnXisPbsokdJGSpkbI0AVxohqpTI3t9hszkyjcPPuO+EwtGxPK5ylheM6jouCGjty/MRP/61fWDl+tr+3VRSSWUEaS6EJoT5QO4wme3tbo0lP6ozahLm263BLK9nr7xqdjYZ7SRbrXPhOpVZte25NSt3vb8dxNH/09GuvvbLb+y9qjfbezsY7V1/b39ulDHlBlVCGKEOUGYQ1CANIv7dOGgAAIABJREFUG6FBGwwIwGijsf5BfRejh/LlCGGklXpUHK3WW0WeAiiQmBJs2RwjXeTZ6jtvVaqNaZIUhZrGcTgJ4zhVGue5FFIopYzWCGOMzKPy7btCQn9SGMwsGwBKzepyKqM1RoiCjQAbpbXUgATGGBDCYAgFhErXDgExmGFiEcu4AiVAdEn1JBTbzPLdSr3WtDCVWkgp8jgOh91w2HP9it9k1XonnEyiKFFyW6UJt2Bp/tCz7/0wfwhb2h+Y7r3bLmc/9ZGfP376nCTkpz7y02I6OX32cd95lwe5tVG8efnlq1e/19vvUerZzCYaAABZyHcC7noAUOTZeLTv2A53fanBIGCI7GxvfP1rf5EVTz/55KVHs21vrgetuccuPp/EMeHuzNKKANi6e/vLX/6zi71+o91ePHaxv7/JHbc9t2wKcf/WlfU7b7U7HVDJpec//OSz780BXn31zbffenE46nHuyLg31549e/qplWOnq/UWQySlQiqCHW84HNxbX+v3dwnjlXrTsp10ErleEGstlSCUKIy1LGxG6o2GKAqZF+V/CiFEmBVUaszGW1ub588/9f4PfuT46fPcceIkmw6H0+lEaSSl9GudSrONEak0Wq2ZWWJT2plZqHdmO/MrXtDIsmI67sXhBCnl+kHAaw6vuEGN+e506/YoTGrtQ+Gd3e9+64vTSciYTQlQhjw3aDZmi3xKCFCMcRnXKiiDWqUk/LA26sOQt+RI0ocQIGN0WTjThSiSVGbTGGEEGgCyDIWj7tXvdZdPXPDq7aBSi6eRGOxOJyOpoBBCKvVQmwn9NTip7z4IZULk6iBljsscP0IYS1TmsECBMkJrwIQwZpmHsXWpR12q2SEAy+UatIjTLClyXTBCbOpKKQXKEca1RqPZ6tRn2+t3V6NwKPNovJ9EUexwy3cals38gM8vHjp16lxZD9cAr730pWar+cz7njt+fKn8i6ePvPBji58MJv/Lf/vLbtBoLR6PctPduE1AUQJSRBZyMWXEsmyPB7Wq43ApZZHHUTTy/YptcykEtZkX1IpM3LnxVjhY29naPP/MC4fnagBw6YOfESaYTnLGAyopdSutNgr74/293pU3Xmk1mkeOHsNGbK3f2tm4ncdREoZJqu6s3cGEXbj4jFvtfPfKjW986Q/u3vw+426r1cRW69Spx89dfN/8oWVCqVYFxRyYwIQRGnMeVOptQ3Kjodfb39vfDio1kWVFnoKRRkmbO0Gt0WjOhoNhqbSZp0mSZNM4yYUIarxab116zwvv+9DHg0qt3+3G4TDL0lF/bzKejEZ9N2gvHjtd5HmWJXmWiCKn1XqrWm/VGm3Pq+UiytIsyzIHiBvUMGaZyIDaTlBLU7Wx/kAAGYeTUgmwbAGkUlnkWRyNKcO69Oa1MqWNl5mfg4SPgkeI6FINRSlMCCFUKVl+BxOCCZmMh1mWFPHEaE0JZowALgxIAJhGA0JonmdSiFJJEwguJzS4VFL5QVUBvdtZjw/qQe8yHrVyIIwxZj+KxZMwAiU1xqTc21ojQpllF4Uo12zbnFmWMVqIQoFgygGNsyyXaWYkuBbnxM3dgAJptjpnHr907uJ7XS+4dfPKay//5f21tZtra2CEEhq0sCxc9dxGtd5sHuBBNjdGUdj76Z/9pXrz3bI05uCasCjmDr+39tYrL31rdzjY3t6LMmHxqkVYkSTcrXnVwAlcxpnGRhihtKpUG26lSmzLIAyYIcaAMJHD9kbv+tV/FvzR//3v/vzn//bPvXCkSe8tn/vSn/6r+eWjjuMzy/K91sqxJ7J8Gg0Hq7eu3Xnr5ZlOW0rZmpnvzK24flMpCMPBybNP1GaPbm1svPzNL27cv80Idi3m2c7h5cPHT5+fXzxEMeRxSCmzbM+yXWMwtWPL8RHwwWCrPwwZ940BrY3DLSiyJJlaFmk359xKNYrCve7mNI4n8STNozjJ9vf3CqlaonH+ybNnn3jP8rGjySQL97sI4aBSGw329rsbW1vrCPPRZKiVWb99vbe7LYyk4bCHLFQfNr1qTShZZFpmokAitzLmMMq51joMw/WN9dXVu1KReJwhYBanGBmEMHdcDFqIBINNEFIkB6FA64d30w9KvI+sv1SElFIQxMqdoI0uMW+EEGM0YzbmTp5nAAYTQgCD0jOLhwllk3A4HPanUWi0trnLHG6iTCmltSozSwBlPvRvXPYt9ywmlDG7XEYJYchJUiL2KKWYWlJKA6DVQy4/ZTZ3ymp/kaa5zHESpfk0SzKdF8ggZLuWzR2LI9Dt2c7J0xcuXlqpAVw4+9Fz559Zu3vr9urdm2+/ee/21XS8lwrF52ZnOp2md7Aqm+rllWM/bP1KQxLFQdUD+AG2m1f9//K//t+vvvX6ldcuv/7Gq4CudPf38kKkecFs7tWrjXYbKM7SJA0TIQpRJNV6AyNkgFLLUQiPhkOAMWPYwmR7azi4fnuvn63vjI6febzb3U5TuHNzdX5ppd5uMRZ0Fmpai6G/zW1847W/qFXtC5de+Nin/57rWF/+4hfv3LwmNLca89u7vauvv3Tl8stxPCQE5VoUDj5y6L2tVptRrPIcALjrcTuQQsWp2N3duXbtzStXXt3c3Kw2O0dOXJidO6SyMfc9qiBPo8AJZjoLGNjdO7f6+3u5LJIsAUIQIxoMs0i12Xjs8SdXTjxWo5BizCy7Um0YqWVeRJOwt7c1CeOd3U2EyP7etusFjXaH6GkitXT9qutXlCym07HKE9uyLEw684eWj57mbvDO7WvfffmbGw82pUEW4xa1EQatFLPsoFr3PA8ACEKUMEyQMVoLqZTUWhsw1LKMMWWvtJJ+TiillEopCKHGGCmE1ppZFmUWxhg0smzKCANsbIv6QdW2ba11c2be9yvMcmzX8YMaYCyyQkpJMQVMyqMQPRzww0yXHx0UEfQTBiAgmFBKlZJKKsvmQbUGCrIsLVWFMUFaK1laPzIAwGzbcT1mW6IoknSaZglmFsHYQjZB2KaW5wQVv+I4HiV0bnGpNdORghY44C4cbjknTiydvXRh+cjTrUbd991mtXry1KlL7/3wfKdRrnaw1/d8p978QbkXI7D5u9wG2MLzS4tPPvvsM89/qlLrFLKYTsbhsFef6TTm5qqtJoAOx6NwuBtHo5KtFqcxxTioNRiz4jgeT0ZpHG9v72SFUooNBsPbN2/cePvK9vamNCBFLoSMowkQaDRajuMgDPVa1WH6k5/5Dz71yV8MbMIxZFbHry9iN+gNwvX7a+/ceCOZjlszM41mY6ZdP3bk2KHDy4HrMUoIwa5fDfyWMSiaxpsbG29876XvfPNr9++vYuY0Wgtu0KQYhXubKC/SZCLSrNGemVtckVJs3r8T51khCmE0IkhqmRZptdk6ffb8L33+H5w8uZxJ2NnajEajst467HXjOE6nk0k0zZM4KzLLsucPHz1+6gItTKaVLJPZUogiSbAB1/GqvtdqNuutdq+3+/ab393auIctn1AGygBWGBPKGAZdJJECUErxSsAswgiTUhQmO+jRxxgIpJVSD930sjWYVvSRI1RWako32hiDsGaIGQYIvCDwa422Unk43BXZVKmaG1T9ZtMAkaBHw142zjAhB2oPpgR7otIXMj+B4fWTBnoE0XvongWVWmf+8IQNRZGXzH046OF34LA9ytsCHCj7lg/ImMc8W8scC8Ud27Y5Rth3HQp4d3N1Y/1avTVz/sn3HzrS1gYcBOcvNI8c/sXu5vOj7gPXsVeWDzCh8Tgd9bYOHz3+N3qQVos4HreZ7diWX/GrjcDxHWJhlQklMyGKIs+UVlkSO65X8epSaM/3uW+mcTIJhxv3Vv1aGyOkwGSjYX8ycly/Odc5dvz00tHjDreSOEySQbVasx1Gbf4zn/iF9733gwCQAlxb3V040jm3Unll7dgf/Nb/Oh7vyiRePvnEhXNnWu3As1mr0UzDARiRxbHvV8qbczQa7+3vfu+lr73+6osPNu4SxttzRyuNOSHEXndHjAcFGSCEPS+oVtrYkDwXmFiMaaWk0RIRRggE1erRk2eeef9Hzj7xGABs3N/Y39lUhaK4KOv/FJFqvZXmpihyZNmUWUG1oZSijFqW62LbBiBpmsVRZBOFQfiVgDBVZL3tB7fWbr01GY0Jb+S5IKrwA29mdqFab8k8CYc9UMr1A8vmzLIwYK21NqbsmAkCtAallDpg92JKGZUH7vWB3WhJKSOEIoSVEgwRhDEY5bi83VmYmZvP08gYwSxbi2wa7qPINoSJJLVt3mjywWCgdRl7/Ajh+KFa999slDF06fzUGu35pRWbuJPxaDwaAMDB1jr4AFLrkvHziOsMAOkkxj7hLnF5lTngubwS1Fzfb7VnuGPF0TCaDLll5dlka11t3L8b1BeWjywv1GCmtjCa7xAoHlW3xqM9DKo+80Psi7+GuPXGejjc3xVFQiijDBObI2wODiCsCAVMiDa62mhzx+XcBQBKmRtUcK8bhkPqeITxJI4KKdwKy7I8yVPuu3Eyfe6nP3niCPnmX15ev30NQVar11w7OLB+CV/4wh9fvvzGscc/tHTyyW989c9ef/3l8WCn4ttzC/ONdmf50BwFATK3K41SCDCjnCVFDEV/0O/3eq9ffuXm9e9vd0ObQbVltAZmuy53mIXLUGG2s1SttdI8jaOxIdgACKOEloxR7rh+o3XuyUvPvfCJdGLCJNzf3bIYs5xqHI3Ho/6gt7tx/3ZWZDZhTj1w3EAhyLJke7xGHIpaMwv1dkcbHYV9pEWzEcy0mq1GZXFpqb/34OWv//nq2i0hQRHXdTzXtufnF9qzc5QSUMq2uWVTAA3aSCG0EYDAYdyxHUYxIhRjqpSUotBagQFMMMbYGFN2AlNSGaMJOdgPosixQcPeXqPR0louHjr2ic9+rlatrd64Mh6P5haXx+FoY/0dZnOl9Cjs226Q5wUoY5SiiBCEjdIIgGKihSAYU0QQANKAEWKYEUSUkgcgPIwfdq81CKEizyi1Sv9HK4UxybNsd2d9Y+3OaLhf5KkxxhiltUIYU0qlLCybB5W651cwQUIUUimMCcGsyIQxqhLUq9U6IUgJCUouHzl5/sn3+EGl3mq12m2bW9Nx/1tf+ZN4PGnPLvHAy1IY73eNymu1Az2L+7euai06P4x3+GtU8a5ceeudW98f9fu9/d3t7e1CiUk6yYtEqFzmWZ5NlZAYmapfmV841GjNMotRSuJp2N3ZHI8GhDtJFksjwCJSC6kzhE2aT5qtFqbyhSfOXji6mGA62NskVHTarcPzSwDwL37z1772pS9YXnNj48ErL339nVs3bl+/kkSjIpuoeAIycm1Wr3gV1zWAKGWj4XD11ltRNG3NHur3+v/6j3/nO9/46jgag9YGSJxM42iilLEohiLNxgPHD46dulCpN3e7D3a6GwYhKYWQhe24JTjg5Lknn3jmea3z9dtX1levW4QyZk3HYZ6l0XC4s3EPAB05cXbp8Ok4iUaD/Wqz3ZpdkHlOq/WW36g7rme0VkIgDYRgglW7XalV2KSfyWIoEzAaGAABfOz0ac91KGVCFJbNLZsbw6UUoMwj8DHWpcevsVZ5YXDZ2tEYhJDRRkqBEDYix5g+Oj6LnCGMtFSYsUq9lmURpWzh8LLj8CLPZuaWrGEPYVytN7FFCbKHvV2VZ8xvmYf+VXlyP2rNgEmJCQUoQ3ChFQhtDCFEFKXi2kE4rpVSWli2gwkpD/RS79ayOXd9z66OR/0xJkWeSZlJIbTRmFADwhjjV+qO41sOdVxvmsRaqTTNXM+qBjXX5RiAIGI7jHNr+djxWqPBXYYxOK4nRBKPQ4vSwPdkHt+9FYa9Hdexz519/JEp2za37L8Rfw3ur4fbWxuTyTTXmlDmOE6RpwJrJYVNba2kRW276jsWt2xe5BkYWWvMFbm4d+f6xv3bhLlYQqGl0QgrZRAgApQRm1vb27def1H/4eL8z37kuY8+df7+saMb69ff+/il/f3tP//D375/78H80kosjeN6LFPJZNButYs0yqK929cvm3TXMrFLn7OXT9o8GA0G+92NzQfr6w+2d3uD8TgajqKg0RZA0zxCCjCmhDJKALThNnPbncbMPBA0CnvD8UAbzd3ArzfweDAe9cfjvTzPtu5dW19aZOgMMdrlDmNWPJ3sb+9k6RRrOr+0UmtnQaUGiA9GveGgV+TZfLUxM7tIq+1mtV6zuRtPx1oI16ZVxwtc4nNDYSzSHZn1HAZBxat1Trn1mYWlBSWzLI5ElhgjKGUYbIoo4gAASOmyZA1Sg8IGGUqRAs20UegAlW60MaCEyB+RYBDCBGeYEC2FYcx1vCQaOtxdmDuMAeLxiDHWmpnL0ohYfG7xSJ7k42lYFYowMEYbKUFpTAklzCCtlAINBLBRGgAIxhiBfkhS8ys1URSlouoBQw1AaZ1lSWn0ZdMX3696QcVxfRs7Nne9oCqKoiimaRqnaWKMSZKRlCJNpmk6RaRUOwOEkcutWqNdr7YAAISwqBX4Abet7sa9JBoiDEdPnmm1OmkeuV7wUx+fFbmqVGv3V2/cuX650WicPnW2fCdpOPIrwdzi8r/d4qUE+pDEsj0w79y5ef/Bg+7+3t5ebxiGQhlk0zzJijhLKWOE2dTyvaBaqzNm1xptisndW292tzbj6YRzGygIKQFpTAhQMEqVndu5YzWaLSHSL/3hb2ST3c/97U8fqXmtxy9RgJmZBYLsLEvH8YQ4jekk2r63cfaxi7euX5ZED2MV9opdtjrsndJK2dyllNtebWbu2CiMV9dW93uvKmDUcqvV2byAPNdKlaQ5z7YYAokQas3MtuYOKaX2uzuTUUhtyw9qrZl5BWbU3/Pc4MjRk7Pz8xikKnJGsGPzLI4HvW6/u9vb2zYK6s2ZPCuyZOr6bdvmRpvd7Qe1RvvoyXO0Uq86fgBES5kBUoFXbbZqzabrecBIxplo1MjCInIaS7XZw25tzhghtJbioK1VkWcUEYSxTTk+MDWmcqWU0lJIo2yviiUjhChllR7HAepT/sCZ1UrleUYIQQbi6VhQG4ypNRp+NajWm4vLxybjQVZkO5v3qK3qjbbTbFDOq4PB5tY6fugUY4wpZQcdJk2pOqcAgBFKLaa1NpQhhLIk1o8alz/sJntgc8k0zxIlRekll4oGRpky08+YjYlOkziOIylFHA9FUWiAJI6ETIw2CgBhFHhBUAm46ymRIEMqfuD7HqGQxGGajCv1OrNcm7s7G6v3Vq9T2z1y8gm/UuvMzuVHT1ccx7IPzHlz/U6t0cDcg58wtncGb115dTKazCwdnZk/nKZqd3/33t17+73+fn/Y7W4PwrEA5DMvk0ORCE0FEIZtDV5AEJ2ZWfACH2s96NF0GhZ5xCw7yzQiLsKMMIYwiIeanxTTIp7ioDI7u7i4dLQ8Na68+tKz73nOBviP/pNfGUbFP/un//ju3fWFhZUiExs3L7tIswp3yWKnMVw5svTYuWdm51eIbSVx0WgvtOdWNLa3ur3+xiYiLlAGhDHmul5BKC/xzwhhEIWhhAeB7TrjyTCcDAuZU89FCCdJXDZeOXryzId/+lOVaj0eDy2GPa9ijOl1N4eDPZGL8ai/v73tBRVmuYXIZzrHnHrNc4PRYG/7wZrrBbTabFo2KyHKjDDX5dWK36zzo0dXKh5y8DSLP7hwf7g/IuNo0J+mzLWUKbQWCGlQRohcUcyYRQwv1S8AAGsApZUpjEacO0Sqsitw6ZyUHsujwhMAaKO1yJXEBBMDOovjZrPZWTjMLGt2rjM780mM8JXXX7Rs7vgVQpnSyvWCXCgpRamRQh6Ssx5eKYhZtkqTsiqnNdJaGa0xoaLICSs3JAiRA0BZ8wIAUeSiKKQtyt1T5BnBBAQc4E+5YjYpu+YghCv1Sp5nSimEMCJaK6UxopQ5NsMIlEikKBzLsh2LUgZa5Els29zjXrPenmlaaxpu33hLgzl09Ox0Elq2c+Gp5+Zma9bDY2EST+qz8+9q+vc39q+8/t07N6+u319N44TartSo1TliEJUGRpM4nCSjSSIU5l4DgGCBlcJAiZGgQOm0wEo7Nsui8WPnL/3Mz/+d1Ttvf/kv/sWtt1/PY6VtgrG2gGICAAS0othCwGxWrfqNT3327z9/4RAA/Nqv/vcPVq+1650zp44DQCOw/u7f/4f/2z/+lY07b83NHbl37bvN9hy37dm622yeO3/x4jPv+UBnYU4UucUDhfB0EvX7+1ESG0ySLOn3epPxsBAFt13XC1wvAKNNIYzObd4ChNM8HU/DNE8kGJHL4XAYP1ibTocWtZYOHVs5choRSMf9PI7rfi1LkySOtFLMsjh3PderVmrNzuGNB6vxdOw2GvVGezwZamMm4yGttWalUCLLEEKO69ncshhxOZubbXJHBPxkUGssrQ5fefVG/8qD0XSvMttRYBBGlDJFaWmCj+DK+gdiJ4oQQigjlGnASqmHXwEGoLVWWkohAaBUgJNCaAwMsWq1EY/7fiWYmVsCgOFg1GzULZtnWVKtNZudQ8Si3a3NcTyJJlEcjQ/oAYSUSjtayRKVwCxbyhKkrIzWeZ4ZYxizygtHqEIUuRBSG8AoJQRVa61KrdFsd1aOn213FkWRDwf7SRxhjdJkGk8nAMBswphtOY7NXQOKMdv1OXdcQFIUhQJg9oHiaZpEFBlgBJRRMtNKpdMh567N+daDuydOdJ64+HQSR25QnZld2N/f2F5fWz6yPDt7wDdK45Rzt4Qn/diYFHBvfW3tzs2bN966e/vmZDpF2M6Frs+sB9W2W2nGaTweR1Ga6UIgIgQphChbQzGMNEiJASzLHg96K8dPv/CxT7/34tzIvO/8k5e+9qXf/8aX/2x1fUdKrE1RvlLLthnljuXNdY69/4MfL63/d3/3D7/yx7+3vHIcAY8FlKSchQb5pc/98h/97v+BKH3+gy9s3r3JbNRstE48duHiU88fPXmeWyyKx9Va8+69zWtXLr995fJoOETUE3HU2+1OJlNMiOt4ts0xgJY5AmNRO6g3DIJwMhyHw1wWWus4iabxZDLu+dXKkSMn5ucOj4e9ZNKLxz2bu9PppMjTMieZTbNqvTk7u3Tk2Bnbq0kh9vZ6k0EvzzPuuNTmSgpqcRZH42SSWtRyvYC7nNvM86zxYHOshsgIhzdarYbjMIyV57oEcCaSsodFeXxiiihjAEorJbIsTaZpNjFac8e1bF5SXUp0WPl9hDChlHNXsQPbLQN5TIhju7bF7dZsUKktLK0023M3r7yaJtH25m2RT5ntI4Qs28GE7nU3e7vd8TgsctAPGz+WN4xlO47rUcqyLBFFjg/Il1hrTQgRQsg8AwDb5s123QsqZfpyZu4QRqjdWTx26kKt0e7v75QQjyRO4ulkEg6VVpQhy3Zs7tiOy92yUziHh1gmatnc4VTrNJ1ImVNmK6XieChyi1N7dmYRYZxMore+9+3Fw0fnlzqe3whqjekk3Lh/+52rr+XJsN2a68x1QKr7929N4yhJprXmzI9tAAWACAdM4yTb3e+Po0lQazO70huEUabQIEziaDwKNSIKZBTH3EZSSoooIcRIpZTGhLi2wxC9+NRzly7OAUAdwc9+8OKh4yfCMBwn35nGKktiJTVFiNqOw6q2XY0nSXtmJQb4zteuvfSVL3lOXaTqz/7lb0oiPv+f/aP5GgWAC6cXLvyT//GrX/72m69+o/rYBUzo7MLcqbNPLC0f546DkHG9WlrA+trtW9eu9vp7UmpZxNEkzPIMYWTbHucuIUTliZbC9dxapeL5Xp4lo8kkmoTlYae0KkTh1+pzC4fOPvHs4aPHZRIXaVLxa9z18zSJJqHvBq4XyHzPIqzRnK1UG1GcGGNEUUwnYSElxgQTkqUJ1RIlcZxMIt5ouJy5nLoO84LGg/UH09EDJSWvLIQR2+0N4zynXg1bTMRqOhlhQixqEYYBCFLCECKFSNJpFIVZGhPKqBVY1BJSlgd82fLaEIoJwghz11NSIoTKakgJPvM8P9rfabXajuUsLC6tHH/sxpVX337jO4QQrU2S9IGweedkJWgjhYb9QZpOAZjRhhGijSRaKwBObddlGIBiZRGFCLYpRoAoYpbrz/hLQknL5kvLx0+ff3r56Gm/UgOAQW+3u3U/HPYGve5osDfs7w16u0WadLv3kjgSeYYpw5hneVTIJM0mS9XjhDJjdNkBTSnlVpmFOcVKAjIAGBBIlaS5sjCt+JhWLZsnef/++s47t25Hibr8ysuiyJ2KPx7vpVlheQ3HbyOGxpNse2tnuLtj82ZQWwyCH6n71i0A7Ha7e9vbO9MkBszyAqbphFk8TqZJVqR5TjF33Zq2VRqHRmmkgRCEASutlcyQ0pTipcPLtXrjhynSnufXm7OLSyv9QTjcgzSNCQAjlDBuUafWaG9v3Put37j9jb/43Ulvx7Ht67durt5bu/i+93/+sx949vmPf/LTn7twYgYA/Frj7OPvYRahFm635peWV7yKk8ZxkWeY8hs3rt94+0p/MGR2dZqNd7ub/d4wFbLqN7njOrYFWuRSgBGew+vttiEsyYtoMk7yTBuMCcNYW5g3WjPVWnN2/nBn/nA87DkOcTyulBr2dpN4xC1q2XWMQehiMu7fuZ0lcTQZD5lFOPds0NwoQESIjGYJaElqtWrgEsiH9aDRarajUZxEJhONOC66d7dvr2482BoY3vSanTTN4jSTBjmEKCkM4IpnUUTqjdntrXvhcJQrITTO47xAGXCguJBCKA2EWIQyhIgolJIZQlhpRSlDCBBimBitZByNXYftba9efPJSs9258dbl4WDPrdTyLB2PhhpDut3t94YAhBHeqnf6Yiea7GNCsGY258xijh+023O19iwoM9usTYb9cDxIo6jerJ86c/Ho+afPPv2RNC3SZFpWypQQvZ3NIs+2N+7F03HZfkcKmcTRsNcdhwOllMaKOQw1LCBXAAAgAElEQVQzrE0hpMBKa7CFiucOn7HtYL+7GUdxEkfTSaKzrFX1qALL9o1GgdeYjMbRJGu0m4UJtte3dve3sMW+/q2XPf/azs762jtv1hvVhfn5oyfPefXDQtNCQ2+QDkeC2G1sN6NI72x1VZG3ZuYrNSuVsLEx2rq/OR7G8SRHwB3bBUBCS2O0AcOYhTHRgLUuAIHnV6aDXYtQjHAcjRGoeqXq+raQsVA5YDORUKEAABHAte9d9nlw6uT5u2u3klEvjzNEiCyiUe/BNNxNknBz655tcyEgFGajt6M1IRq+/dIrlVrlxW9//fL3XllaXD5/8dLZ8xePnX/P/KG6b4GUMOxNxCD3XHcSDVfX3rj82uVBOMkUKr3eXOHxdBqORpRwDWC0QFqAyS1KlRaj8UBpyHKRS1wIkIU0WIqiEEXCHafRvEAICYc9z+MzC6eLdNzbe7C/e39mtt1ozXGHdw7PMxeNe6PxdC+ZJrV207J5Mk2jcBw4ruNWptMRtahd8Wueg6sea7i42axZlKVJlAkkVE1Rowib5r3BpPCaNGjM6mGvUm1kGQs8l3NuikyKRKps1N+TeamGC8IQDJRQDpjlItYiL2WYGLOZZT3ifGGECCGPSsKFkmX/pGq10mh1XO4OALIs6e/uj8O+BEwwsRyCCTCLBZUGaFap1Pr7vpCRRZ3m7GwlaAqVFUkx3F8/dvzx2YWZVvND7YX5atAmFmKEE+7PHTs3HIRbD+5ub6ztbj/Y6272dremUegHtTxL8zwr/ShR5GkaSykAYzAHFViDAKMS5AdZlkyjYZbkk3A4nY6nkwijxMhipnLUIFPxa1mW93f3uFsN6u2tzc1bb98YR6Nh2EvylDtXbJ8naTENd46dPKWE6HZ3v/vi1+v11tLScrPdsShNp9H6+kZQqdmMGKUazdmFhWVDrUTive7ObndvEk6EUAgLQjnBhAIWWoFU2iijNaIUE0IxKVX6ACFmUYfaXsXz/YrnVwjF99duYEJWTpxtzPqb6721d65t3FuTiogs1nliRCYFICXKtBimLMgz16sprRKNUiAaACtQQkNS5AVoFe51dx48WLv6+iutdvvJZ96/vHJ86dBytVlRBYyHu+tr79y7887u7l5SmEKINE9GvbC3txVNIilFmicWpwhbAJoi5vi+6wWMu8PBMM1FUUijcC6KsuGpNqKWNMJwEA57loP9wEWMUslKcK5fDar1GueuX6l7QdBzd3rdrusFolBGASGAsAYjEBQOt6jIY2YD57bj8XojcL1gPBntrN/e3Xng1jvcbyVxksYJAtpszhxaObmpNdZivxtGYR8HAUGac7fdnllfu21x5pMA5wXCQgOxfV7WBUSRZunUGCMtSxuXUoYwUkJiQizEyuQNQgYhY7RRSszOLzU78wrMeDQIh73RuD8OB8xyGbMMEACsDRBCgnojqFeXjq4MhztFXDgVt+I1Lc+uVWZqM63e1k5tpnny5FOPv+f9i3PWOIU7V1fvrq/+yf/wK9F0OurvR5NRmsZlJlcUuTHrAFDGCSUbRkqplCIYAxCMfoAswoQwiwNAPB3nyXB/d3s6iYpcEGJxm0TjHgIlpYhG4437946dvFhvWuurbw0HAyBMKBEnUTjqYwszJ7CZtXHvtu3aSorJcKCUnJ2ZXVo61qg34mhcZPG5C88ePX5yZ+Nenr9x9PhZvzFjefXN9dXe7pYQOWMWwYRQZtueLFRJnzClSKqBUh+AUgqyAADGLNd1be6W5cu5xeWgUtdKdbfuP3hg7q1e39lcc323u9XL00RKWXYsL7Q2UiGEiqJI4qhSyxBCWZ4qKZRWCBkjNYCSNkdKJHG0u/Nga+PuTHOmu3X/wsVnP/BTHz9x5pDK4cH6vatXLj+4txZOE0NdZSBN4uFgbzwaSKls28EaKGWYUAPYZrxSa7iuJ7TK0iTLM22AWAgymSaxEDljJM+S4WBvr7tju3bVC7hrqTSTwvhBteK3qpU25y7CqFpp+E6lVpmZTqaDXjdNMiUtikEVmbIYxYTmcZ9ZDJThVtBstx3X27m7fvXK5a311aOnn2wt0GF/nBWi3phtNOcJskQaIa2I1loLLbOyYaBl86DaAIA8FwhNLOYQiwOhRmsFB2VXeEgPEObgA5IYYYQJIZhqrQAAYyLSot1ZbLY70XjY3bofjkeY0KDWUEIjYitt4mg8nYSIEMv2LJvFcZHlEgBnhaQ4aywufeDf+cyzHzp39fK91TtX37j84le/8odIoVwm495gv7e33d0thBJFXlaFD4gvGGdJXGZUpZQlTRkAMELGIABa9pgrbYtgmzGLc7fIxXC4Gw73pTQYIdsJHI/Xm7PnnrjouH6apO+8fZVSPhmHIp/Ekz1me8jitsWUSpRQGE1Ti8o8RXEMSispCWWTaXbz+veLPDOqOHr0zMnzzxw/8/jd1dVrV17v9XuNmXnXb6/dfns8GmDGCMZKa2w0Y7bUOdVggCKBJRwo0BgtmGULWQAY7riO6zHrACt1wHaIo53Ne/1hv7+/Mw6H2ObT6bjIszJlXG6nMvQsxFhpqaQmlAmjRJEDACFQgDKJwthyXc8GnEU6S/MoiW+8fUUbMzu3VG/OaFlsbG1vPbi/P+xht2EI1rnIkizJU4Sx53PXqxHAnNoEaYWY43p+pQYa4jA0RmitAAGlFmOUWQSAOJ4jiiJPUykFQkhKFYWRTCMhRGdupVqv+UGVMWs8Ggz6XaOh2qhjhKPJqMgzzm3u2XmWANKIEGpUhhFQYlUDpzN/yGJmPBl2u1tRnClEcwHjYagl1DvzGNjazat7W/dAZ/V6cOz4paXl43kaba2vjof7lcBP0iTJCoyR6/qOVylbpCjKjG1KGkoJnFRSSClKISwphRKSMApl43OLpUrOLS635g4ncTQY9krmDWXudDo12gghkjROk0wrySybcG6MYNx2eQAITdOku7197a3XFcEEyN7e7uvfe/H7b74YxcAQMAIawcz8MmBGKCsb0EspZJporSybY1wSEoyUWhuDEUKYGYNBa8AMABlTAFBKqWX7mFhaKaMNpYxZzGiDEFJaEQqf/rv/6f/D25v+SJadZ37v2e4a98aWEZFL5VJZVV1Lb2SzW6QojkhBtCjDsjA2DA8MAzP+PP+C/4MBDPjrjD8MYEMQxoYAcyzNSLI0pEiKZLOb1UtVde1ZuUdExnrjbuee1R9uVpFjsQdugfL5kEBlZQEVkeeeOO/7Ps/v2Rv4APD973/8Z3/yrz/66V+BlWHsCSGKItdaG0DKQpUXOrNRsytFJcvSgHYsxVhqrSsuCEDc2+7vvEFpezydPn78cDyeUNcJm72Li7MiT5HDwJCKcyk1YQwTBgCMYYwJstpoZZVW+nLazRwnanZacUwd6wdhFLWCMAKkxuPTo+ePLGJe4JelN56OksWsZhZBLSnHuA6rBQ1SiCxbEUw0hvqwsJZggoWqEOfM8RBxDKZFKfVkjqx+/uTx/fufbuzejBohr5QEilnAvKgoi2SxnM/GVVm4nu8HTc8LkDYIIykEc5wgjDzPr4OMrLXaVFprTBQihrkEEAWAquKE0f76lb39N5phWBRLabjL4mZ7zaeOSz1GncXF+N4HPwKA3Wu3CSFGlBQZt+Fj6AoREkyNNdSonADBoLwgaLQiUaRcSuoGcYdR5udFscoKxoI46hkFw8NnIPIinVzb++rv/+F/9/VvfZ1S+Ohnn/3wr777yc9/XKyWWZIgSmr4qwLLHEcbr2Y7vtr93BorBMLICC3qBqJkmBDGXADGfH+wfbXV6c0mI17mmHkYGLrkwGlTVbUdrKgKVGBESSOKhYGKS4OQ7/oaLX/8w7/8wd/8+cbGzmI5VRbWt19bq7hF2MgqK/LR+AQjhxCCCcUvc/IIxrWBrf4g+jvEXFI7xgAIQgZjlzmOqDjC2HG91loHDMmzvCxyBGWyHO8MLr26mJnx6ZM8Ob/91lens9lkPK4meaUBUeIQZhlVFvGCY0IIi6zmXEmpFKOu58dG69l8+cO//vcIoU8//XiWppWEquJ+Y6SUxA5zkVObni2q+7CX5wvGiGokALRWSFsAjSkOG8219X632QZQ7U6vv7HZHfT6GzuUseHpYZpmCCNR8SJL02SeZStR8doeZI2pY0EIZXXPwGBlCQbKkDVaA6IOoq5FbiU0JkCYLzWvhDRanA1PHz38ZP/GW1vbe8JS7MeORELKbJWOL04nozNpIAgjxhyEEMJYCoGxCWmEHVcpKyqlrKp0Za1WSmJrHNdtdXrZapmnSS2jiZqd/saeT2lVcUZDP2oVyyUnQKgbNCIpK85LKapVMieEKFW6vhs2omarXd9IeJlSo1JsPYeC6xCMcMVLQr2da29UvLLgTi9mRV44fmAt5pxLzgMHM6R39va//N7XPQoA8N5v3EmTyfs//Is8W3Ce+40WaFtlC601EOYypjE2prahYKUIWI0uM2ut0QqBBaON0QaBktBs9RvNbsHzk5Nns9m0hmtXgitTa6q1Aqwu8YpSWzMeDxGlWkjqOlf3b/e2rxHAk8n5cHie5cl8Pp9MLkRRENehmEqtg6D1ywZleElLrD/rLyX+GF9yfM1lnCdCtbPfEgT1xamORSSEWMsQMIRSAA2Av/Kbv/tK45EtTnb3dza2/smtN7722Scfno3Oz05OposkzdK0KCqhLbhCcmJ9xw085EghlKikBoSMtfDs8YPZdOo47nR8roFUwljAqywjhDIgYAQQ7LgeIswakErUr8ggsNaAsRSBJQYDw67XiFvd3kYniiuRN6Jms92t0au+33BdbzwaziajZTLLskKKSktprTHWolob+DL/HQC0VRQzjGvkBhitlEKOF1DHl0YaZQkw6oJVVEpbJfnBs+cff/LzVZYli5kQ1mKSr9I0zbMkLbICE0LDmAJGxiIDYMFjXhBGRsN0OuVZCkAxIo7rEcYc12v31oOwOb04P3r+sOJlkaXjs6OTw6c+dRfT84B53c7aqsyt4slsUqwShtmNG29KxWvlXxRFQRg14oixwA88rWF6cUIZGI+hIPA838OEKKODuHM17hRpNRpfJOmIVwpRncwmvAJRccLnHjE39q+/kq3nHJbzidZKWo0RdpgLSJUpV1Z7XsCcwFiLrPnlqye8NC5qKTEhr6Q7Vsqw1SKEzCajo+ePJuOzIG56XmAqo5WslBbmUj1qwPCKCy0RcR0vUKiqJE/TLMtyLeTpyZEoCg22yjNeSYwZoT4ChDTUCjxjag2pAoA6noM5bn0jgl+EYBtjDaBfJorW9YzFhADUlyUphUBgEMZ+EDbbwe/8/n/zS5318Ld++9tBGBmjbr/+5vBifHx0cnh48PDhZ4+f3J/OJlrKsNEquC7zBCFCKMPMs0pwqTwvzPksH2cejSkiGnBmuItdabhRWqpKga23CyFMikqBrc2l1hggmBCCCaHACGDjQhAGYSN2/UCpAkATCr31LVHx+WxMKNvc3s+zlTSyrC4FiwhhggDhS0Ehwki/9G0jhCljCGGjlbIaVdgPHQDI8rLKMsyAIrCKN8Jmkqej4fjxZ/eqShldFXlGCClLoZQ0xtaX3joYzlhDCAYgftDwg1ApOZ9dyKJwfUYoc6mHGI3i1vbVm2v9zeHpkaj48PRFli6fP7kHAB5zpBB7V65vbm3v7N+simQ+O59PR54f7l67LWU1n4/qaMYgjDzfdVyvEbdExdNkQr7y5n7cjHd3rq/1BvPp6PjgyWqRCIOytIzbg6MXzwHc9trmZDwtitQhhqjVnTff+kff/sOt3d3VXH333/xvf/JH/8uzR5/OZ9PVcum44e6NW731K0qLIs20NRaAYuK5ged6DnUIwtgCQbjMVlHUdJkLxnqOhxHWUiJk92/cqUTx4+//+fs/+quz42MEOG72FsnCAtZWa21KXqTJapVnBjBjngEitAFrieM7jl+U5WJ2sUySPFuVVWWNRdSh1NH1QY6J1dIaA5esUoIxQQiBtUop87Lwrf8WIYQxOJ6PsAGw1koLijo4bnWa7TZzmBQlgKHUVVJLUbleGMfhl9957/bN6wDwwYcffPr+X671Bvuv3Ww0Gs12m1d5u9PfuX7bAjk/O55PLoQ2jhs5QUAcprQwUhpjACELCBCm2CfY1wYprQAwAlr7qi1YBJggAggLKWXFlRLWGFVV2iqMsTVaVCVB2A9CBObG7S+9/vZvRHGsK04objXb1KGO4zaiRrc3ULJazCeu54VRm1dVu7vd39glhM2mI2Gkw1zq+ELkAKbGZSBA2hpTKw6t9f3IImyNpYQSQoypvZOS5zmiyPVCKeXw/GR8fiSV9vwGc/yLybAo8nZvo9NdtxbAyiiKy2zZ6a51elvGmDxLpRDaglSy0WhaZCl11jd2X3/nN2+/9V63NwgbkeM4GOOzo+dPPrtbZumV3WvXr7/RbHUcRjCxhDl+2ESYDs9fzKbDsNFqdfph3ESEGANxay0I49n0/PDgIY2DIPIjRnGRp/PZ+PTwRVaUbhANBtfmyVIo7YYR9UKEp8hiRvBgfePW7Tf7vc0yVffu/u2TB3ePXzxZrdKCl8wPm51eq9NjzCWYGK21EI2oU1WlqHitF6pVA4w5zfaa54cVL2qiYH3u1h26KG73N3b6o7My56s8ScsUESIqoeuy1RqN4LKhBGARAYRrjk9ZcYuRFEJU5S9YFP/x1y+Khy6yBWGMUmxNBWBdxwOQyWLiul6RrZTSzHGY4wYAzAko8/72P/zpcnwYBs750WMHa98jYIRRRZLNA89pxNHFPFktJ+lqqZS1BtLkAjEfE9dqDWAJRQjhGitkEKaYYIwM0MsEdmyM0hgsXIK7apSYRhhTAGNNXccjfOm5Y8zZ3r812LoStSLGSGUFL+RqOedVarQIG9/orW814hbCeDYZAaFb2/sb23fGowlYlCxny/kEI1zJCsACUIxp7aCASxeoRQBKaUr0q1slAoaJBnARSKtNslhmq6XjenGzFYQtaeBidJ6tllrry+wYhK1RSskgjDChVVlyXuTpqh4cAWBRccf1mu21weZuuzMIwgbAxrWbb/bWr5wdPz569PDs5OD08ImouCnEG19+d63fasQBQlgoSRnrDLZVlRHXzbIkaLa7vU2L0fT85P2f/PXo6PkqT2in2ep3unHUstok8+VytUKEeWFLYjwcnxUFdxtuxdOyyBHCCpmo3Xvt9XfWN3ePDp/cff97hwdPVqs0yzOtwWFho7GGsFvyqii51LUpUdVzX9drWGtWSWq0xiR0PYdSLMlliAtGBjMShBHzg42dm9fuvLu+vX/3pz84PTuwABgTrZUyWFlrNFiLLRADGrQGgusuhTG24oWUldFaCvHL4tC//0KaOJYQ4YcRpZ6xJmpGQRhxXgLWCCOjlVbIaFBKGVMgEPfu/vjppz9qt5tXr+2/9faXmu0OxQa7KAxalYZVUh0/ffDo/oezyTmllHhuluYEWYoAEWxAA2hrtTESAFsLwuBX7n5rMRjpIFyLaC0YsIAsYGSsNpYiTIAgzAiphZyMYgy60+sx5khROW6j0YgxgjKZptl0MT3/0m988/Ybe9du7l29/dbdn37vxfOnmIbtbv/iYlpVHCPkuJ41hgAyyEGE1OQOhPAvu621VlgRguoMpDoWCQEhmFIALYuC87wsuOsFQumyKI4PnnCRM8wQMIQRAQQWtJDtuEMQ4bzIs6TMudEKCDbWmMy0naDVWd/a2W91eghh1/M3tneu3boz2Oxvru+cnxw8v3f3/OTg7k//A+fJP/7v/4e40xJFkfHMINRodXQVSiOVMFqDMggQPj09+cFf/7uzF0/9RkQD6nluwAhJ87LICq1Ms9le29g9Pnwxm82pFwLAKpkrzZnjYAuD/vrrb73jNul8Mjk7PsjLnBBK3UDmnDmetjCZTfLFPFnMjLV+EGbpihCy1t/srW9lq+UqmRd5+mp3SiHq8BgAIIz5fqM+Y3w/bK71nCDgRW41toRg6lFrhZBCCSEqAKiN27a+x2NirZFSg7zs4fxKU/zfg5jlB05RLMN4sHvthpa89i1QihHGfugBgKiEqLjg9USWGe35cbj/2utfefdre7s7gcesLoKggbGTjCcvnj9++uDny8kZYx4glK5KggkhCGxlrDBWYyAIEUwBwFiNrVXWAkLMWgtQAWgNAXpJvkaAMaorUoRfbtBX/3OlpDFqeHZIMEk6nSu7exv9deZipAshVmEUr2/thgAhg/du77S7/+QHf/Wn44vZ4bPPnn728dHzR+lqWWd8McIc1xeygl+Vpvz/Ctesq2ejtdTKDxpegLXRCMBaXP/qp7MRIcSJO1BbVQmtA2pRDUsWl1J5DVZVlRSCANSVZLPVD6OOUqVUJaWovsr3NjYGm5sb/Y37H/0MKkkoPLr//trGuktdgyBqxNqqrEyF0htbV5NlslisLIC2pBEP4k5OmEN9NyAW8lU+Hp2fHR9czGeVZm44GZ6eAJDe+hUhZJEvmUPisNGMvTff+a3B/j4AFHlalLlUhguthJEI+dSV2mTzaTqfFVVFqEOIWxZJq9ltt3ut5pooSlUJLSRoUzt0KSaW1L9tyTDzfH/v2i0vbMyX85PDg9Hp6SJJBhutsNEUXEotpZa8LKQUgDGmDjJWVBkCjWvEEJhLGTam2nxevt0XWsqCznPb2+h+8zv/+Wo5v3f3x9kqdXyihKYUU8qqknNeaGEJ9SjzgqB19bVbX3r3W9du3vAdbEWCLCCjwMDi4mQ6PA3C4J2vffu1Qh2fjD578LGWpSHWVFWlNVjAyHhuiAmRQhhslDIAULOvrUVGM2uNBWLBIiCIAqbMIZhgglm9E5Wxsn7pRgut9bOHnyCMBoONoOH3uz3Xd+p75vVbb29ub7x6nWt9b31zN83Fxx/8bHj6IlstjNaMkPrO+Yo49mqXXz6BCBNEKUIEEBgAo6yurJBWayW4wpTgS+BStlqIqlRSWY2Z5zLm1rh2QggCIKDz1ZSwoL6iYkys1jznWbpyHeImYZFWxjDGHEoRoZYxoqRcJZNkctHu9Lav7jfiFgO81u//+Iffjc46g97m1rXX3LCZ5SmvhEF0Np1mRS7yLOP5cr50w3aru8WloIONbUSdNC9mF+Px2flkPstSmRZ8sVwGYcvxgtVqyMui9qde3bv55ttfBQCQMD47rkknQglEPWSBuA5xHSu4QcDcgCBSaVn7a+sI9enFOS8yQogfNLq9dWstJpQXWU05d12vEbe2dq63u/2L4bnRyhLs+yFjjlIyzRNrTFnkZZkLWTmuTwhVRtayBa01IQQjbOvwJULU51IhvhAeWmstEIK967vf+PZ3To+eHT67t0ouCLiADIA2VoiKV2WpFQA4GDTa2nDdBmGerLQHOnADx0EIbJYsTg+enB89ARwN+luxdoF2DCKEaKnSZLGcXpwXeYqo57iEEFdrrpWuH2OMAWNKCAIA+x8/1whhggkmhFKCEDYapKwub+oARquiShEyvNnUkmslq0pKKaw12WqeLvOef+k40wpm09HTzz46ePJgNhkrJV8h9Gw9HLnshKJXrWH8d5KV6+O/hqA5jmeNEbIyRgLosgApBCDkxU0/arphSAgBQilIUCBVlRelF3DKImWkVlqKigteSQ7gFXk5vRidHx80u51mJwrCyA+8skiiuKVLzpgTtTrNdtcBl3nsxhvvljyZJ9PyUTk8OVnOJ9kqDcJmp7febA68qJPmYjZPkkWa5kKKig7W94oyT5NUC0GZ5/qRxZBnidZKaS0qXhYpoRiwJRTduPPm9duvA8D9Dz84eP6AKy21lcqErZCYwG90AGNZ98c9QgELnjFKrbXJYqqUnE2GxtogjFwv6KwNqopLUWklkZIAELU6a/3NsuQVF1mZL5JFtlqukkVRlqvl3PMjjElR8qLIjQbHBWOMUtKhrqhKqxSqRyPagMUWafR5WKAviEcn1PghdHr9ZqtzfCB5lRgjMMJSXsYcYYJbnR7BDkKe1WWeZVmaFFkqZUUbDdenLsPGytlkNL0YFnlKPG++Oj8bL6X1+utXev0Wr1aT4TmleDGfWIsoZQgYQ1AWfJVLLS1ojRE2yoABhKk1CAAsWGtqrsylwR9jXDe3KCauFwBSouLKAGO03ek14jYmVKvSGkMoe/zg7p/9yb/++u/8wc7+XqXg3s9/+vOf/OX7P/wPx4fnQly+9st5MMYI4drOUZcfRsMvSixdIVJTwoAApoAksoSA73lVxY3RGBFrkbUGIeT4QRR3w6gRBB42BmOMwYiSF9kKALSSgKTSUiltrWWO6wcxQVSU8uzo2d33g1U227u+v7m73e52RZWvb+301zZ4mZlKEOo4hFkwX/7qN+eL0Ysn989ODg6fPx2dH50fH1e8+r0//Kc7V73B+lUvaGLMlLHUCRtxjxLXmlJWujQAftRsOw3keoh5VBiNQCmFMQ6jJqjKddi1W3ewDwBweHJ0Pr7gZVVwnqcrP+5EzW4QNHiRiSKTvAgbjXraCga0VkWe1nw11/U8zwcAx/Xq1nLdfKSUNRrNTncQxDFxPV4Vk8l4ND5ZzKdB2EqzNFsVjh8oJaVQl0IXK6UsfLclBVZKUmPqED6jlfkcLNwXXwQsw1hoAePz0YunTyfDMefadSFfpZxXWtowivuDq81WHwCqMhu/+DQvUgDdqNWyspJaEMqiuHt1787G3pf8eHDvwePh2d9Q0IP+FaETbQtEKscxUeAhhJgTAMGMdlbpki5RkZXWGgACCrQGq41FWFulwRqDlEIIuUZLCp4FMAgQRtQlXoNR7HGXWo1c12t1Os1W23EdWUnKWECiyejs//zjf/Xn3/2jrb3bju8ny+XR4dPpZCqVIW7oOMCV0CVXtcDuZcTJ5eUH4VcYMqN1/YZfJiAiTAgxFiklK14Yqx3mAYCUVV0M+C72PIcxBtpQbJFmSsk8L5rNDsIuxv6V9KUAACAASURBVBhJq7VECHzP8VymlBRVMR5mJZ8tlkdJ8jbnX9rY3rFWbu/sOe04TebzyXmr2WtvD8IowgT6m5sbG/vnJwezyfDpZ/dmo8nh04ff+7P/fXvv9u611xn1p8OzbDFnLAg7EQ1b3kcff//49AS5QRDFxlGGhGlZYBpQQqazUbFKwAjPIa/dur1z/Q4AHJ2ri4RX4CxWnFCv29tSJWddamQpea4FR0aD1QgQMaClZE63LPI8zVwvklJwLlodb3R2VpaZFIIyr26SNuKuG7WYF2lA2uDVKhHCKE0mFzONAGmLXUaYhx0pheCqopQBJWVVAmGUMA0ABoAwVHc8P+cR0L/627/4+TrHCV8+Qm4yyXob/Xs/+2x6/j8jZOJwF+lUVkIL5lIHMZwsZjs7N7/5n/0X1prR8JDhdG2j5zqo4kvtyoYXYCCi0si6Ydg1XDLCru/tgnxPlmnQiz8+OHlx+iA5G3Zb3d3X9z3qIMyo4xnmHh4+0bgAxHkqKHOY4+Rpri0prWg4oeNH82QChgRRRysJmCEKupLCcIqtG3mBR9yKWEPWulfW17eJAat1FETYymQ6ASBaw2QyT/P7XMrh+VmWZtgNykrbKkc1eBeTV31j/BL2WjPwsDEIDAJsGbKIAXG1NZUqeFVYKa2xzCGYMlBayBwAKBCfMUas52OXCmpBGakk9ryg099rrm2XaVKzEaSoCAjPJa1OL+q0KsWnk9Hw7MXJyTBZnCOrtzb3gutvKSXBBsOT09OTk1a72+isaYLdMLRcVFnRafavXd3gHAa93SJJQOnnjz+ThVAlj+IuwlgUqdtk//i//WdUAW+uNYPVIiuNE/qBi5YrmaYpAun4rjUIIez6QTsKG83Ygs4UPHr02bNnT9NVaTFRlaSURHHLJVQppQWnGIARpA1CljIWRy3fbygpEcY1fhEARMWNVkWe1p4YpSTGpG73aqMznidZwgUH4lDfN+AygKqqPD90PQ9hXBQLjDHChlIM+tfR7vz85XvtMtenh2dlroMwAACCPeJ6wq1ExcsqV0rG7dZg64qoymx13t/ob165MljvRaHHEBCCjNaiKI4Pnz0/OHhxfJQsl17YuP3WV95869veWkf+DbZUzly32+xsrG0Gru9H7fZgXSKyWAwffDrKltBooLXuwENO7uVpyknJtZF5OqdA/KDhuqFypTXSIkCM+dSLW81m7BMCxlQYgiDwPJchsLJMGY6iRqsRt6azkR91pM2KUiZZmuRlXgpcWbDkV54S1hpkLX6JfjLWEgAAhXFYE/rB1sc/rbncosqhRughSizUE1+CCcNAQCPQjGLqhJ4fgMamqrQFba3DHMZInnOlqk6ndeedd6698dZwePTo048eP7i7mC7zLDk9OgyjzvVbb4Nhvtfq9nYRMhcX42Q1t1Ztb+4rXjJCCAAj0Or03nnvm3vX37r3wY+ODh8Xq8RagywgZK7duPW1b75DkyTxGq0wikuZN8IYVXa+GGutO52OQbpcJaLicdy9fvvtt9/9xs7V7qOHk88efHhw8DBJF0pLroRLMAsC7LplkRVVYQnGiGkwAMZzvGa7i3EdGwA1Q4HSSzVfWeZaa88Lapy65wWtTo85TsrzbLWUUjDmBmGEkTJaK6UpZa7raSWFyOpopb9fFMAXWo7rlXw1mwyN1muDfthoMuYijBpxazmf5FkiKu55geN6yWK6mE82r2zv7e9tbF7xkERGQu0NyFft/oY7vrAYJ/kq4ek2z4WW2Xz8tX/0HVHx+xcTVRTFYu41W729127eeqe1ubu9d/s7f/BPDw+e3/vgJ8dPHqermZSqszZoETafzubLaeC3wjgkFHks4mWiNbeSE0abjVa/P/CCQBRcVuBRp8gTqznSLcoQIN9aw4sKIaTAJqv5xXyZ56VR2oDB+Fc48esHABMw8JI+j2raWQ0ARxakBY20wRYAG4KprH7xbwllftAIwsgPfUKINgoMYsz1g4bjeqKotBLGaKMVUFZDOjAhg63dL33lG5t7V3eu3tjc3Av8xvs/+N7F+dGjT38ieIoMrNavdHrd9cG2NHw6Pi5znqfZYrYIGn7cBApwPMoPXzzzG+2vv/OtK9s3//2f/tH46EhaMJUI2/033/1W2wE6GY0MBoJcPwDid5J0IqXotHqtTq8olgkAQjgIo7WNXUTYi4PZg4/fPz8+SFdLzstLBhsm9Yi+4kXFC0wopkRKQQBY4BPXFUXxqifjen79sutmBUCNLTH1GLjRiA1lZZEni1lZZAgjSmmtwHFczxjDL01bL7WbxtK/Z/Tv/9eltUYIua4fRnHYaPpBWA+zMcZ165o5TtCIjFbJYpatZte2b/a7vWYzMtkcpLCWGC2KKhWa5FXhRNH2zTuV5OC6udEESDMIAof51CFEh64TuEHTj9d6g82drd29LYBvHV+ID3/wV5++/+ODT+8/f3bfiaOwM6DMUVa5YdPzAqUVZT6WoAptVMk8PwyDXm+z1xsghPJlPh2Pl/OJ8d0w8Dhnk9HZxXB0dPQUESfjYj6fp6vcAgbmgZIGzOf1D6yx6NK9hDFCtZeDOggBNlYrKaUUWsp6skkIMXXDCGPmuEEYdbr9RqtpTKoU11a7noMJsdbUIbMAoK0o8pw6OAiDzZ29q9dvtjr94fGz3vqVve1rF3sHDz98/+TZoypLs/lsPhrvvfbGnS+/u7t/qxHF7bXNssjLonz44COCYXLlxuDKlelsNp1OkIWg3bOEul7khGGapZR5u9dfj9q9EoBmeaHBAKFRMy4VXszGvCyu7O+VpSiLHACiuBVGHVHxuz/93v/9f/0xoeF4MpZSiKpECPtBGDQijHDFi7pD75LL8x5jzBwXI1RWhVCiTqdjvudHEcJEcmkRWATKaISREwR+FDmuV1qVrRaL+YTzsqb1U6oNwszxtFK8TKUQBkyN8Dda/wPvf5BSUMYacasRtxzXM+ZSc8bLAgDCRrPZ7m5u7zuuDwBrnUG7HTVD12dQEQNEMZcaDYQyRp3B7r4K4vFwqLUmgR901xrN6OnDj8rldGOwvrt9dX/7RhhEa4Pdzf52scwPDp+/OHxRlMXW1u1/9s//x+PPHv+77/6v7//srz3f6fTWpFYWUymUURyMxwjzopBgr91urvcGragVexGllCioskBVgcuIldVinB0dPjk8PJhOJ14jVpZlRWmNBcdBxLUWgfn8KgkjeFkd1UIGeIn5QBosYAlgrCHGAMJC5pQ6od/w/TCIwihuN+Km73tSGkwIsoQxFyMsheAiFTI3xkhRVFnKXHJl58vvfPV3rt18U0mJlFZFqpVxMev3+9NubzaZPH/02XR4upid83w5mwyv7Oyvb+0GYWs+OXvy2b2nn33o0uAb3/kvX3/9q1tXXz96cv/uB3+bzhdnw5MsWZaVfP3Nd9/5rd9PVsn/9C/+JXXcoOAZ8yLqNObDyXI+sZZ5flipVcULrbgbBX4Y+Y0YWZms5gWfFHkhKq6UclzPDxq+HyKMk8Ws4gVcgsIBI1Rf+xDCouJKyhqKSCnDmIiKZ6tlnZhd60CarW6z3cWU2UpwXla8IJi4jVBrDdYBgCLPyyLnZWmMcjzGHFdrMObzmp2/tmWNQZjV7Y76RACA+hbHmNNsd7d2rvcGVzgv0tUijKNBr+97BJmKYKCeh13PAelFUdTefO2r33787Pl3/+0fySIBz02KJFlNhqfP0mSuyxwZCKPm+mC7tbbph87jT++/OPjsow8/OHj2pNW58u5vfLvhRu21LlAQVc481uq20ywvcm6sAi0dStrNtcFGf2Njo7/WCnwHgdKVlEUe+J63sYUxztJkeHZ4dny0mE3THIRJFXalMoAIALGAQAMQhn7VM/Bq+FV3+pG9vH9ehlJhXGvIXxUJAEAp63T77bVBI4rqtqmUVZ2+QwhxXQ8McF5IIRAyosqV4lIVmLpRq3Vlb6/V6RWrWRxF2XIyPTvPlrP9vdeacefF40fPnz3MktWzBx8vJxfPHn5y7ebr73zj2/2NnVWSPH740aMHH7nU3b55Z3P7plQqL4uLi9H54WGWZVxoJ4huvPHVG69/5Xt/9n/8yR//KxpEbaENY02h0SqZI4TjZgsACCZSVsYazw+brbWd/Zu9jfUrV+989LO/PT05MnbCXM8PIwNQlDnGZD6fGK0AIW1MncuOCUGoboeVNRPFYEMIJYSIinNeMOYSAkpJ5jjttUHc7FhrpRRVWfCy0EYziq2VtTmL80JU3BhVS7LsSxj657d1fj2LvITs1jvgUoxtdI0zopS1O70obvEiy9Jld2sw6A1cQoziFCxzXMDIYkRcZzIerm+9Fnb6Thh3NxANg+l8rGQptSz4ajE+0bJwHOI4zI1jVkYGQ3NtsH3t5vHp0Y/+5t/e/en3bt5+t9tbX9/ezfKUEmhEjSRdSlUw5IiKM8KiOLpx7c7u3tUgYFZzUBUmhALSmBJCtDSYkOHwzBKEKSNMSGWFlRYwEAcwvRRWvRSc/90HwGhA6FUzVFtrjCZVlmJMEDZaSaNFLUGxVrrYaTZacbvd7HQCL7TWioorWcc6M5cFhFAuVkWxlKKoR6UA4LgsCENr7GI+CfyGkRnDgSwLWfHADdauDa7fent7+/rWzrWnjz85PT8ZDV/MF+PZdJiW+fbejSxdPfzkw0ryte0r2sKLZ49H45Ph0QEXfJWmgJgbRF7YUhruffTBBz/5fpIklHkN7AhCvaLK6tCEztqAgE5moyJbBoHX7Q26vfVWbzDY3Gdug0tVFOX04tz1Aj8IyyIXFWfMKfKUMYdSVo8CKWMYE8C4lLwsMq01pYwgTCitZaEEU88PtFbWWMbcRiP2goa1Jk2TZDlLlrNstayoEhVP5ikmNE9TrRXGlwmTUmoA9f9DEQwACCNCqOsFQdgwRkkhlJJSCl7kzGWuH9R8K99vrG/tNhoRxUILSazBwGrPiAa7yvOZUMPRSaUEdt3pxXlZpP1eLytyoSSXVSm41ho5FFFaimx9e3u4GK34wo2D/tamUUAYdkNv99prB88fWI2RQ2qDHWVMygoZyRAJG81Wpxe4xFjuURKEwfrmbp6uiqoCi5nfyDOxWKZ5pQqVFlVllAZM4ZJSjAEDaP0rHwAA+0tHgAYArYzFNksTShkhYKyRstJKImSxJWtrg0YjvvR+XEaHUIxJwZOaeGeNrSrOi8woTRlG2BAELg380CuKxeGzz6wSnXbLxxAGLWc7EBWnju96Qdxsd7qD7qB39/0fDc8OudTnh89Xy8Wz3npRFdPJiPmeNiAquUhmk9HZydFhniWcF77f8PxISnHvk5+enxzc/en31vqbtOCVsVhVcjq+SOZzxsIobtW2S2ShJpJv7t8IW53KKISQ0Wp4dljk6cbWXre3UfsqPv3wR7VokTmu43p1qFad0PTo058hxozRpeSdbt9rREVVFKLgqiLa00pKq7woag02/CjWWktZTcfnVVlYY0Znx3mWYBTUFkRMCEIv29KY1HeqX98ufwnZRb+wLwNYbXXdoq2rDiWlFJVSsizyVTLHFHd7657nT0an/Y1trdXF8MSG2PcdB2OXEIRDbWWRFvOLSc+hvTfeBC/48Md/kaZThkmxSjAj19/66pfe+Tox2HO8yWxkXRZ2Bs2NzTvvfnWWLR89/qSz3gvC1sZg+8adr6ytb209vHH3Jz948fQzKUQQRiKXouLge2fHzxjDSqQ3X3ujvzmI/RARE4Raa10Z0whbG7s3glZvMp8/evKQC2mBAAUADEoBaLAYwNRG4P/UG4XwK1WhtYZRzMvEgiLYoxRhRgkg5riUES8MXOaJoijUnDG3EUbMcWK3p5Q01vC8SJZTAPADz1gRxg0AE7hB3Io9P1jOR6JIA9+9Mtje2Njd3rsRhNEqWy6mY8f1X3vj7c56f3Pv+qcf/OTep+/PJhPBs9HJC6EEC5tSyAefvD+bDrd3bisll/MJQrjZGoiKp6ulUvL44FmeJWHUkVJRyhoGi+UiGQ5PF8mi3fKUlCVPlZKO6zVb3W5vI252GPOlqJJs+fzxven43Boz2Ni+9ea7W7vX8zRRSr7/w79gzMGEvLRZkbLIhqcvXp4ZgBAy1koppBSXM2B92d4JG3EQRoQQrSQv8rLMOC+UkpeZqtjIl9P5y04zqvX/2lqD/oGr4FpjYK0pi7wsVpc3Ma3LIlFKbmzsxs3OeHhy8OQ+xjj2B8cvjnUvGqx13VYLMRekXkzmw7Nz7HhHs+Vut/Xb16+9df2f//yTD54/+kiK8vh08trrX7l29VY6Ohu9eCaN9oJGt9fre7Hw4Mtf/x3iOmdHR8uLUehFcTPa2N6+GJ9hjJWSlFGtjOuzbm898D0wdnx2VCyno+Nnr91+Y3fvatyM89VyPp9Ywjw/SpbJ8Ytnw+G5BQqW1F4v+MV5bwBhgF95/H/uKssUwCCghBBtpFYSU5dg0lvfAoCKFwhhygilFGGEEdbGGq2F0lJU1lhjlQUglCAEeZoEntPf2GxEzYvR6fj0yHdZlWbTi9FkMlzf2vaDhsYgRblcFABw+/Uv33z9nXce//a9D98/ePGwSkuF0cnZIRAmKn5+fFCkZa38a3d6F8OT/sb2+tZukafHB8+KPLXGgh/QShlrWJ6ulvMJANT2iGQxq6rU8Vi3v9m/stPs9ghj6Wo1n45XWaLAsCBo9gabV19bv7I3Oj9yw9BiBJRqMFJbz/ddL6h4MRyf6EpYYzAhjhMQyqSSRZHxsrAAUqnapRa318K4hQgtqiLLVnm64kVe52hgQqy2xkoA/DIG+HLqXodr/Lo0D5+3EMbkZSlfFkmRp0opAIjiqKrKze39weZumsyHZ4eNRnOEOIqqhmuaUQxAtYEiz8YXo/Ozk+Pz6c6t93a7LQCIAX737fd+9+33UoD7Lx4xx5FlXpRlUVVlwb3gBWKsf73rALzR3ej/3n91+PTRo09/pgvRaoVWaVVVq+W8yFIgrpQVwY2t3eu/9Tt/MDl/8fzh3dn4CI4PGlHT8YOi5MfP7ouKh80upsFkvvj4gx+9ePGUK2XqYe8vlgUEAPqLPgAIDMaEUgZgQGqGSBhH7U6PEWaNbbbi9c3dIIxWyXwxPU+WadQcWANKCqUUIcRohAltNCKtKz9krbjj+S5CBmNb8mQ1L1fzJWjTbK/t37i1f/NOc62HENamwoT5oe+4fqvZ8n0nCoO1Zi/uD+68943J5Pzhp3enF+dBmIVxiBHOsqTV6az1B1HcTVfLPJtfzumwodOLWSXKZbLgBY+bnWa7WwqxuBjxqvDjuNXtdbqDoBEgjCtepKvMcRvN9hpznDBq+kEoZbWYjufTi7q6BQDXZeubu/2N7WQxU1JO0xNCKHPcKG65ni+l4LyUUhBKa30Vc9xG3ArCqM4pylaLssjq3c8ch0lHCfxSbHI5ecGXEe1gjP2HLgIoZfWcSytZo7LqpLCwESOE+utXNq7sDU8PG41ms92VMul0d/wQEexpQ4tSJ8tVtixEJQlid//2b1q9q7utXxQuEcBvXr11f3bx/k++X07HfLHMlhMli06/l4MIwaEAm0Bge9um89V8yYw+fnb/5PBgPh2JiruNBqF+p9O/dudLO9ff0FofHzxRBldaz9MEvXhmtUhmI9fzJZBlev/Z86effPrhaHgBzNH2ZWOnblq8fBj+0/efv7sYc+HSe6AJ4CCMumvrnbWBqlNQvWCtvxlGTaXkbGKVEBghhJhShTGKUKY1uK7TW193PNZZ62ID04vzVKlmq+t5/vj0bHExKfJidDFK8kXK06vXb/c21qMwvvraG7XIUsgijIPdvetra+trW3u9vdeH49NOq3f/3ofIQNhoEkAW6JXtfczY+eHzp48+ujg7wZQwwqqyoFma5lkyHY1KUUWtdWtsspyuVlPmBn7QaHY6YdTEjCmjuZBlVSwWE8f1Ot3BWn+z2e5KIdLVsuJFTejHCLc6vRt3vnzt5pvTi3MAqLJUa+26Xo0m50VW72/H9ZSS1hjGnCCMHNczRnNerJbzssytNZQyy8BxJQLAGAFgjMmrm7r9nGbFr3253iWxnpdZ7Z2v236cF64fDDZ3OmuD6cV5q9Pb3rth+DxsNT0PnKBNnIaSerUqijzXihAaPrx7t8zFt77zX9+83nt1b3s8nn34kx+cPH4iV8vV8CiZjxwwxc03FsMTvLHlg2cAGti8tn+9aM+Ho/m948Ph2WGeJghjxpyg17r5xte+8lu/N5tNh8PTWbKwhDmNlqVslizz1cxB4IbxapWenB49fHj/YnyhLCAlgTBAFPSrrf/S1vgFqyqlJFhtAQiQuNXqrA3iqIUBBWFQ5OlsMkIIu76TpyusTXutX3GltRYVN0YSBkZrQllv/crVG9ea7U6WzKXiyWLmBl4Utzw3Ym5rkSTZ4mI0uciL96fz0c3X37569aYBiREOwmB7+6pDabZKGSLMda0qt3f27de+pZR88fRBnkzXehvrV66B1qLkaTLJVzOjOKEeWKh4RsMoTleLgnPPC6JmRylZZKnjel4QNtvddqvneb7RivMyWS3TZH588DiKWv3N7fWtHT9ozCbPhmeHs8moHukx5oRRPNjYXt/cNVqHUey4vhQVY47j+krJIk9rS2jYiAGAOW7QiKK4xZgjhcjTJFnOeJEbYxkjhgBGmJB602P8S4GkL4fQ6At+Yn/h5Xm+H4SeH2glXxFsrDEY4e29G3vXbiOE55NRuloQyhrtNW0UIEbdkLlxUa1WizSZpyLnnfZ21Bqkq+zf/Mt/4fnsxv6+R+Th8cF5znHYiXDgutbtXtnoDbrx2vmzxxShdDla628AAGjb621CIzbSVKtkOhwWaW4BmUrHa73t3VudzubxwbPFfJ4XOXECx4+kslJyYcANfKnMYjl+8ezRaDSUBgijWttfssdpqP9gDULYIA32i5RVViNADLO41elvbnW6A2ShLHJCHK21rPjw7AWlGAACN2BBlGeJRVDm3FjueJjzAgC6/d7b7/12kSeBFzDmTkany/lEK9lc29C02ciL5ex8OjqcLE7zYlmJLMumF+ODbm99Y7Dt+81er+dgZoxiXqQqweU8XS3Aas/zL0WNRsbNnusH7fZ6GMVHzx8t5xNeFhTVbkZjEbD++pUruzen43NR8ShuUcdvRK1G1MSEFnm6nE/G50dnJwdlmW1s7g42thtRu6r4+cnB8cHj6cW5H4RVxevjvAaOr5L5fDLivPC8YLC1e/X6nRpkVxZ5TfyqIzlanV7c7DDH5WVe5NliOq7jPeBl3IbWBCOMCbO2pjNYa3VdCvzatvnnr5d594hQFjQu8xuVlGHUuLJz3fWDi+HxeHhS5JmoOLUIhy52HIQ9DZCtksloNJtMSokVzC31OnH/1s03LE8PHvyUL0472/sOgmaz1wtbPsLdOBz0elYXs/nQZPni6AgXlRu4SJtSGY+6NkvLbDkZnZVl5jfadc6aUvL+/bvnw7Pz4XGySlutZlEJXowB6cD3DNjh6OTs5PhiNtQaMEEW8KWR8WVDsy4AsAUM2lryhT4DKKL1ZfVS7sYYaGmtLPMKA2CKMIY6+laKanpxzktgvqeV1FZSTaQQGJl2t7++ubucjz1Gmu1WFLdODp9Oh+dlkRlLWRB16SbzGPNYmgwn4zNZ5c/B9Leu3Lr55Ws33+40u4EXWmuANWar9OTF0wcf/3R0duR6QSNuEsKkFNduv86YIysdxZHnucPTF5wXhFC6XCaLxVJaaK5ttgebk+mo4oXjBYxRx3UJZdaYsiwXs/lsOBqfnjLmNlvduNmhjFZlsVrOeZFTysJGE2PiB4242QnCCADyNEkWMyHyzlr3xq23v/KbvwuAHCeQFb8Yn1mtCAXXdxpxI4gCzFilZcnLVZ6WJddGGY21qqTQYAEIMEK0NtaCBWmMwfhSjwWgvzjq4fOWAqC/2BP1t5S0SoEllDLPbzLHwchKWbmeyyhZjE/z5VQVy3bkxy4DU7biDZ8Ri1lZilmynMynSZ4D8SZnh9vX7qTpdPiTB+12s9nueQTxXIZeqHmRW+w0fIQjQkiz01+/MkjzeZZNPMd4FC0X05PFFCt8OlnySq9WiTU4DFpWI0bIajE+ev4IMa8sS+a4rU6v2Y5FtvJ9srG5ffris+Hp4enRYSGBUKSN1UoAooDwJfC6XhZhZL/oO4kANKIASvFcaEUZwYS4rl8b9AAbo7HihXV9x/WMkllRYOIjYIA0AosBIwBC/fj/oe3Nfm1Jz/O+95tqXLWq1jzs8ewz9uluNrspstmiLEaS41iIDQdOAmRykFwYyE2MXAS5yX8QIMh9LgIkAWIgNhDEsWInkERRoiQ2e+4+fcZ99rzXXvOqWjXXN+WiTrcoUkJMg/zuCwur6pvf5/k9QRsTErQHBmPhatFsdnb3QJT8+Pg4jCrDbbqNxnDsuK67uLGy7SJah+v55Wo2RxUJWuNB55BYbLNarmeXacGX15PV5CrdrHFLWkbgN4Px3mG/39tG6zhdI112Ox3HMphhmg2Prlbbl8+P/Vbgt/tXF8dnp88QBa6rTjB84+33Dm8/KPI8Wi7nV5ezqwkvpGN77d744PZDr9l+/vjT64uTsiwN06bU8Fv919969/W3v4sQWc6n2yhczieuZ7meZVmm6zS1wmVaZOHWcdwiDplJKNW7h/uNdhCna8qsNMvX643RaEoFcRLzqqSGAVDnximEMAGlNMKAtZQAUoNE6BcLEv3L7S/KyFpJhBVGWGkuOQcAw7Rs26GYuLbfDkYKeFkWACB1iYoYgU6ihWua/UG3WATZdqm3V73eQOexxp4EVFViuY2XyTbMYmpyYhqr1aVletQ2420YaWVTE1kkKxOGRa4qUIZtsRYKXMNGuBjudTerwm00tuHy+uqp5w0ZOJ9+9vEHP/mQUN91gEpotjxcpqvJiRf0l+ulH7T8oGvbRFfcYKpJDSqyRohEkgAAIABJREFUcDHLs1RJIAiYYWJAWVZpJUADYJeYTAoOIlOAORCMVI1a/Mtv6adGhSYatAYFAAQxQgEhxAUgDBLUzc3VcjXr9sfD4S4AKFlqAExtDYQLhQlreH6WxmXGTZMoRXgR+17HJMb7f/D7FNjO/p3Xv3lvZ2//8adfJHHaHR4kGX95/MfZ1bljGvuHR8PRQa81WF6/WM8mwa2eqMqr08t0+3svn5zfuvOwNzrsDu9e/PgH188eYy4H7R4XWeBY33jr7eH4II9uwul1XpWGAQ3PdBzTtG1AjIZRhJhFzUZWZZvNKs0TjbHregdHr3lN76uBzkQpq6wUZTXaPfRbHYzJNlzPby5rJ6tSUmltUGratmU7GON4uwnXi6KIPddwm17DawrOsyjOojBLM6UKRDilRrPZtBoNxkjFVZKm682GEMKYKWxPAsLIAABCTExImSY/1WUFAACSCCj8kprWXEvABCgmxFBCCK0qUVLbtygyQAnOJecCIVzjJkzTwgj7TW842rt69tE6Wig+cm3mGAwrnm03WZ4kcVSIUmJFCWo0fSF4lkegagkNqapCFQrbmJnEaQSu41YAk9kkSqYNFyW5WaRRUaWEGIf332l4veuT6SYupjfTOFdISS4yKA1JabGVWZJITIuyAiAmsahDDGUaBGMph71BGm+jcAm5LoqiFAAArhcQYpVCVmUOStW5bVpjQBiA/6sE0iOo9aAMsZqdDVorBVoBCMGLqrQMEyOGTIIQJoCVVlxwIQvTMkWZEExMx9Xa4VVWb7CX05mUEmPUH40Pbr823j86e/FFGEZH91+7ubhczScvH3+2XUza7W6rNRwODleziRRCSkENM94mL49fXF1PCSaLq5P1fFYWid1p+0Hv9oM33vnOb9x97Y3PPvzzcDOd3lxXQlnUsry243oYYbpezh3X81udIkuX80kShw3Pawat2/ff9PxWrTZ7VQbKU4RQf7TXavcAYLWYXp0f12eGuuJd73+afrvIs/ViupxPhOCEut3+uDfYBYCaPFx72CkBZpit7qDRDJhhlmURbZbhelGVhQZFGWXCxK+kyK5h2otXA+CrD4AQ/GudgOsnfvrz1urfGlLAMLMcFyNdFJmSEivAgHlVJfG2rMpKVMwwGKMYm4bhGoY73Lt7cOf2Fx+0ojSP4izNsrbvgiiFVDJPlUgZaKKk4AUzCOdlWRYYM8vxKLYEr4oyM4AmGaeUW66ZC7W6vBRVSAk/unPYbHmiRJZtdYZ3MLHm0dlyHVPT2h+N/YaHNNd5pglmpoWZm2YllgohwAhjwBQQVkAATMYOj27vH91HxFgsVi+Pn8wW66LIlIy1kgBAmctsS1aVEBxh0PKvfqdfewBAKwQ1goUSQmtUHJJECIU0IAVaayl4ISXGmFDEDIqQAimFLHhVUQSaaOaYjtcAISqu3Kbjt73L8y/Xa3d+/Xy8f/T6W98J2r1WJ7hz727JuUEJgnIbLuJoRYl2LcuyzeH+vpJCVLoqi6Is1lcnZVGqipdpWpRZw281W11qoIrzJEnysuz098ZpIjSOwo3imhpOu7c7HB/QPEu6g3GrM6h4Em/DsiyCdtvz263ugBmmUkIpkWdptFlKzpt+u9MdNZotpeRqMV1Mr/I8ZYbZ8HyMkOs1m37bctwkjlaL6Xo5J5hQyjq9UdDuVVWxXk7zLEUYEyBKckpZ0O7ZjgsASqsk2WZpHG9DoASACMGlkBghZWhU3/xrpX4qXPVfr72yrv7UcMAKEADClChwTCfwu4yhLImrskCYVWWRJBFXvBS8/mnGKDMMwTkyDMPxCAONDeY2TS/QACA4VpVBEFis0w7ifkcrlZYlz4uqLEpRIawx52AagBAhxPL87TbcpnGj2TMpCeNyPZ9omQS9fqM9zgpYrFfbtLHdFh98/PHFZJblxd3dw9dee4On0cXxo8X0Os9zYAWzmoZhYkywhmK7rURGG5bjWJ125+5or7dzSwK5vrzsj/ZOT05W6/V6NYujUIPWspSVFLwAAJPaufzraBpfvUCEa4c7JjW/CDCqkV6v0mkZM+q6IcKKKRMAgNaPYEyAy8IPArfha80Vln4QDEY73f6AGYbb9NIwfPbo/apMOv0eY8bO7i7X0O0Mu73O4voiDtcEJC/TJCHd/hgjLLhKs7jYbKu0LKpClJVS3HR8y/EqIVfr5eX12cXF8fhPjt745nuNoP3GO9+fLyZnz56kWdHs9L/7O9+jGGM/6NqOm8yXvCoJJrbttto9y3IoZUrqLI0X0+vF7FoIPtjZbXf7bqMpOA/XizgOAcCybNNyAMBt+MwwiiwN14vF7CrZbur6V93Lo/VkOZvUwBmovduUNv02IaRmQ6RxVFslAYHSildllRVK65q/8Fd+CcD4X6MYoNErusFfWgekQggbhuE2PIsSrIBjRhjTGmOkleKAJMJEaaW0YmAJzatcPHv6+Ori+MtHn0ogjfbY6/SEDA3NEWEGJZ12VwH47WEuZLzNyJZxuU7jOEtigqnJTCCk5xwhYjhuy7T9Ism2UVEJ5jZGtDFKBZten89uJm5jvVyE73/40dnVBDCiFDueDSZpNPwFXG+W8yQ9a4+OMDWZYfOUl9EUV5m9O2bDwcN33nVa7SzJnn756fVs1mw47/zau0XFkyi+ubm+uTqNNqs4Dl+9Ral/US2EklKBAqlAKkqpaVmu49qmJQhorZACLStZrxiANCG24zaCNmUsz8pm0D24ezfwmmWZ3r770HGd1ex8fnO2np2m20mjGRgE7+/sdduDXq+9GI8285sqy2tJhdZcaiK0LiXnigvQQAh1PGJ7UuRcQcNttvo7y9Xk+NmzTz54/+mjR29++zf3jx6mWZakRZrmzGzs2kAJZYSQLI234RoAXM8P2r3B+MAwLUpZWiTL2WRyebJZzizH7w93uv2x7TS20Xq1vEm2IUK4Dks0LafptzGhy/nk5upsOZtkaex6zu7h3cFoz7SdeiotihwAmGFgSkzbaQZtQllZ5HmWhetFmmyZYQpQqpJCCF5VnJdlXlIam4b1l3o/xgASI/wLqaFVrXV7FfkAGDDSgDAQBTX/hyFiIYYBsNQmIqbtEtPBpomwobXmEoAgrZUQ3G34XKqPfvzHy+n58ycftHudwe4twwBlcgMqRA1MGaJmb+egv2cCMcL1Ooq20+vz6eRys1yKMtdKM2ZlWeg2O512H4BOry5vri7dptUdHQXtgyianZ6cLddLz4PlfLsM07SU48OD7Xbx8Y//UGbxdrVYL2dZFCdZlVXHpt0wLU9XRRXdWAbQ/f1Ou/PgwZubNHzxxccf/Om/nEwm3fGt/vg2ENP324SyoNmMt2EcraPNbL1cJVVB/v+AGl9pQrWSUhElVPUq/QRjyqjtuLbTMG3HM31elZJnggupBGilpdSgMCZZnupEMEZHu4cP3vg1i5KbyUm8DbM0rPLMsl1mmAhIto0uXj7pDArDbvaHg1F/IAUvizjahNtovVpMuRBVWWR5kWRxXpS1WltjAtRsdYbf/Z3ffe/7vzu9Pv/f/5f//g/+xT/9we//y8nNtD+65TSbpuEapp1lPAegde/P5uFseqm1dht+pzfaPbhTI/C34fr68uTm6rQsi8HO0XjvqL7jjzbLxfQ6jSNCGTNMrVSr3esOxpSy5Xwyv7mMtyEA2Lbb6Y1qOnuabLM0/jotz3SI43pBu0cpy7OsrhqulzPBeSHKqhRlkUklldJacyG4aVg1jfVX1BBClDFGGAYEVSWKAgMyCGO2BSajxCKElFJLwaXGsp72MA6jVZxsqemEm/Czzz7Wkmf9tkOA2cw0LcPGNrEdyzZMixlm0G6PBr3t7aNtDc9L47xSN/NLKaUBZpWVy+lVtt16DZcCi8LN5OJ8G0ZKsjjO5/NFWUnLdbVWq+nFkqdVFqfRehvmvARJAGuoRFXmmRYclUXQbPcGO/uHdy3blIsYNB8NxhSbXKmby5dVxQ3TJYZjUqPV9EfDMedHL58+fvriaY2D+Kvez1f6K9AaFNJaSoQkRgAEQGLAGgzKbNOyLIMxYlIDKyhkhbDEQtbx6UJJFelqVSopPb85vZn6p6ej0W67sxetFmm6JkoZNpMlEBNRYsVRvI2/DNr9Tm/Y7QyD4ZARHK7Xq8XUcb00TfFikWUck1ArVVVCaUWR4Xo+c7yG320PjLwcGVZADa/iq9OTk9OT885o9/5r37YlffT5x/9idEC1UmkSLWdXm9W80Qxsx/WCdqc3BABeVdtos15M64CNVrvXG+wSQnlV1vF1eZb6rQ4zDK203+q0On3DtIo8S5JIKYkJNW1HCJ5sQ1Hg1eIm2qzSOOK8sl3Dsjzbdt1GkzEzlXFRZDWOuBJZIaqq5FJKLBEhRGuslKpBND99AMAI/aJ1+5/9qDXOSQEAWMyklDHCCCGyUrLizDAoZUpJUBgxTCgzKS4BlFAY4c1ibtpm0GkNxjtH5esvX3wap1GUFeeThee5nvZtIBYWBSkyCYSERIHbcEY7w9u3j4AX69nk+uJ4Ol9cTc5ihXgUK0mAV34zcExTlPnLx5+t1xMhNGPWcjG/PHseR6njerxM273uzugNh7HJ2fHTRx+ulgkYhiaWRkQqiQGY4wTtXnc0HIwPAEAJ3u/1Or/9u3kuz05fXFxebJP0+uwECBOCm5azf3C32x/v7O5t1pPZevuv8uo0qHoRqHHWCOlaTEEpxoQijMuy4CITgiv5qikpleBJUWVZIpWMt+H8+vrZlx99+73fefe93z68/db0+gRkKUQRLua24/Z6XY1MLotkuyzTaLua7e3fGe8d9QbDpu/bjSCKQo1YVqm0yEohhUoErxCjAHAzOf+Df/l/nJ0eL+eTTz54Py9VIxgCQBSumZsWvNrOJ1eXl9skoqbt1Gdf23Ft2x2M9vYO75qWk6VxkkRpEq0W02izOrj94N7r7zDDIJTGm+XZ8ePVYtpoBqblKCl7g536XSOEtFaL6fVmvWj6ba8ZDMcHSRLFVVaPGQBwG01eVVqr0e6tqixwkWmtl7NJVeaYEMV1bS2QQooCAIFhWqZpvcpu+foDKCVBggL4a25C0c+B++rHlZQKA1YAAFJLAKhNfFmWBZ1ejesqi6w+tCkpJZAqzyrODdNFmCkpCcKYUSLI9Oq02+s9fP3XlqvJcnGZl0WUpmlly1VM6aIZ+K1up9ksmo7p2IZIN83EUHnYDTzPdkfD9m7vbQ6slOr6ZhOu16ICBuA07PFwfHB47/j4o2K7mc9nQkFaKIp0q+lbDY8YvNftv/u93zk6upduw8168eLp4z/70Q8//fQTxBp3X3trNBiHs+Nu0+/uH3jtbpZsyiJnzLh1+414m6VZFnT2sqLYO7x7c3mxmF1t1ouzp5/YBut1er3eeLneSq0BFMZE69oE8+qtf30LBIARIEIIoRhEWZW50sqyHNuxmGEQQBQDsyxcKJ4XvEgNSh3PL/NsHYZCKMm1FFJzKEWZbVNd/MH0/NxvtpUqW3539/CoM7gtpYxjbjmGVAkjVCsVrhdlmibbcGf/dtDuHd174+LsOEmzLldRuM6vzss8d4JAlvL66iRL4yePPvqD3/sniDIh5Ga5oIwBxpbtR9v4gz//oR90+qNbl5fnNI2josil4Igg91V4jlEWmZIy2YbL2SQKl1qrGmvhuJ4UIlwvttFaSUEoq8qCGaZh2o7rUcpqs29912lZth90m0ELU5yUWZpE9a5GKqkUrwVwtapsG62jcFUrIEzDAsW1xl/nE6JfGubtZ5tGgDTU44E5jmU5huNYlgOy4pJTaiLGqGkiAIwwgMyzvCxKhLBhMkKISamq+Ha7IgTG+wfrxXS5utGkXUgwCdkKiDi3N6xBkW2Ca+M8syiSjoksg5gGYxQhoA9ef+vm+vejxcQwXayYbRnd3mBv77AqoywNszTWiDVbtmm1NouIi7LRdE2DjoY7b33r3dnlxccfzIN27zf/9t8fHj1sD48evPkuUvD80x8QVXVHe81ub/JycnN9HK5C021RahmmlaXrl8++aPq90d7+4Z2Hi9nV2ZMvJhcn492D/Vt3zq+uyiRBAJQyzisNuvYr/rz0UCmFpMIACCOsMCaEUkYoY+Yr/xBYjnQKpSqkFELItJ0ORtE2H4z2GGXr5Wy1mErBl7P5ZrliFDPD8Fud+WL54MHb/dGeBrlcLBuBqaTkioPUhMgkjiaX54vZdLR/V2tlmBaSqsgzWQlMiIFZwlMAqMoiz1IJhGrQCrteuywLBEwTpKUs8hIglOp0G61pmmxrh45jOf3hzs7BHb/VLcsiS+Pp9fnk8iTPUtfzO72h12xRyvI8vbk6W0yvajQS5xVGyGsGzaCNMI7D9Xo120ZrAPCCdn+05zZ8DXKRLdbLeZ6l9XqpAOoBAAB5lq6Xs81yVkcQYIaZQgBEKyW1VFLWkO5f0Rj4umFCMCEagQSlKWGOwwhDhGRlgSgBgCrLwvU6324N02r67War6bW6lkm26xlhsLOzOxqPbxbriDfCOCuzKJFapryQHHkuJWYuuU4zLrJ4u+y1WsNev9Nqmw3rzoNvXF8vAPDl6fnF6cvDowcIodnNZRSuhOBuw7PcFjU9g20FF8k29JreaLzjt4MiT26ujpfzC8cf3Ln15t/9B/8VMonlws1FkheLdDPNgS/Ws+n04vT48Xq+lIQRYsRZJYRazidlUfm9fn94wAxjcXU+u7n0g+DgwVuj3VvRs0dKa0yIrl5RK0vB9VeqCYSw1lLXa7AChCRCmpnMskzLdCzDMkybGYZJiTIYA00AyjLFWGNMGPO7/fH48DUQ8vMPf7ScFAZllLE0jgCAGcZ2G6/Xm7IQ33GDvcPXgsFOvD0rq7jIcsW5kmBatsYGQFwJKRWkcbRaTFfLaVXmtuPbjtsb7sTR+uKErRZTIIYQsixKw3DzoiKIgMagQQgRl3GRZ9FmRWtNMkbYawajnVt7h3f9VjtL4miznE7Ol/MJIaTb2xuOD0zLrif4m+vTcL2oc96FEJbT8FudWjEfhavNcl7mGTPM+liMMBa82kbrKFxqpZhhEsqIAabt1N5QXpVpEm2jdR2RWVapgq+T6rTG+pe4AuCfg569uhLFwAVP85REy6zMiJYAQIgpCFRViYBqLrbbdbSY51nSbvctglzDHHaHnU6Xi3i9XgIa7B4edXcP16UXl1pVHHApq4oXoZaZIFwKVUGZFzzJsygtNknur0PHWTe7B2+++5u7R2/9n//4f372xReD3TsHd966unh8eXXOq8pv9exGq+S6KOMs2+Z57LhH3373++98+x0t4eDO3dd/7dfHgQUAT2J48uTs5Pg4iubp5oZqsUnCMF47QWu0c4eZHmNGlhed3vj2a+/s333zh3/wz7MkXs4njYbfH+3nWVqfUw/vPLy6udpGGymEBo0AIYQ1yJ+vDb+i82LFGKsVkA2vadqvuOdZmgAA0spyGqZl1jdFWukHb7y1f+u+ELwslqALoYFgkiXNzXpBKRNCRfHm5cnzzvhwcHD/9tHrs2tdluFmvYg3s7wonJzbNthOYz6ZYMyWi8XN5YtktbJts9cb+J0eZSxJVlkapklkOH5VlttNikmqEdFI1dtdjJD6CiNLAUBKyQzSaLa6g7EfdBljSoVlkUebVbwNDdPq9setbp8ZJufFcjZZLaacV5btYkItylrtXtNva6WyJF4tbqLNUmvVaAR+0G36bSUF52UcvsrFqNNLag5Ko9FkzNBa51mabMM8TzTQsiokKClBfFV4wgj/cndBWP0Vhf5K8jSNueDMMAxGXa9pMgIEG46jtaoqLoSQumQMew231W53Oj2/6Q+6LalsXqy3i8sZlNhpl2zsBeP+7dvtTo+L/PLsydXpF4vlyjaAIGobjAPOczXNN/hqBVIdHG5Ho0NEXbBcb3B06833bj18M0ziYDBRqmKWZTh2mlWtjFeK5VmseNZsehaCWGi/1R34X90OU7iYnHz40Q+lrJpNmyrhJHQMu712/9adh5bbqIRWGvcGu/ffeGd8cP96crleLKTQSqP2cBTFmzKJl/P5aO9ef7AbR2HFC6ipZ1L8tEvg670QRgRhhRA2DavpBX7Qcb0GpUwLWYk43m4AwGLU9ZqO1a4hGkJWo1F32G80gl6307hz92g2nyfbOE2zZ19+kuYpzzmlNCu2T758n5rGNlns39qllgXYUBLyOM7ywpNAqKU1SuJoPrkI5zcYULc33tk9dBv+ydnjxfXpcnERbxNbKIyYYVoIISnqwrcCrTECQghhBNdBsEJw27Fa7Z4fdBBGeZbkWZpnSc39q21ijuthhErBry9P0jhizKjn75pp7rge51UUrpbzSZJsCWV+q+sFLdtxAVRtRq4JuFJJAPCareHOgd/qmqatpCyyNEmiIkuBGEoKCVpJkJyDrKtdddD8L3EI/GxTAEAwx4oXCSqx67k2CTQlmhICKC95KUolBWMmNYnXcF2n0fBcRpXvet3xncFObzo9Wy2urm4uBZ057QXwWFcH1DAwAb8zthqelJLzIkuTMt4KwbECxpiJVHF6+snHHyVRcfHiJMqLLz7/rODq+uzJcn3GeaYJOE3fNJqG4+7dfZMS+Mbrrz147S0K4JiIGXYBIAAEwMCGW3ffuJ5OkmRLsUjDaRiHaZF07a7f6U2urpaziVCAb85/8qd/NFvMpNCUsiyN1EYRAhjjqizCcNm/9XC0e7icT8NwgRFBGJdVXpMxfrr3I0CUMkzBpqjR8BrNwG34hsm0VkWeKSVN067T5OErohYAMCLagUVpYTG+dzhutbz1Zp0VpdJw5+GDL7/49PnTzzebTZLy5CzaxuHx80+//Zvfb/mBYVpxmmXbmPPSsn3LcqqyWC+m85vLbLs1mduwPYOaWvN0uy553h+N2128mC6KLDVMV2hMqIGU5JxrrQEpDCBlPW8AYIwd1+sNd4JOTyudJtuiyOY3l9FmhRDq9sf90X4djBWuFpPLk6osTMshhAjOPS9odfuYkKos4u1mvZyncUQI8ZqB12yZlsOLsLa5VGVhUkfxijGjP9rr9IaO60kpiiLLs6SOvTeYw5gJWnIlEMb6L/ZCv7BZ+69rPz/313tbSg2ttUJKa6lAA0ZAMJc8K7I8S3mRAYDXDBzb9Vtd23EbltX0PK/pDYbDHWO4f7h7ef6EPHuxSSCLJs9Xl88+R9i0Tc8LejtBb6ypkWbxZr3mYOZpgShilCkK0fzsxcfvz67mICkv4Z//X/+k8Ye/ByArHrpN1266GqDIK0Kt/u6DvZ1x0O4JIcJUVmVObasiCBmkCXAF4HV73dFudvmMEGIIT+Jis90c9gY7B7cXN7PpYoYZTbbh00cfTmc3WgFmdlHmSbr1m23L8bdGVBV8tbhp90a94U4ULhkzOK8ApMHc+kJCa9CgAaD2ATOTND3Lbbq2azGTgFKiqjgvlJSOZYMUUvGqLCiihmk1fN9v9oKuZ5tKy7WQhFk46DpWaZSVfOs77zHbrERWPP5sudqqCqQ8CeNFlCx7nVGzGRRpVKah67rRwWwz2JeCzybnq9lEK+W6nkkNWZa8knmeDEZ773znt03L+71/8r99/vFPtNZ5Ejler+7qSsraDqErLnFJEdYYg+N6rc6gRmJVJZdcXV+eb6PIMO3ecG8w2rOdRrher5aLcL2QUhqmVWf7GqbluB7CWHFe5nmaRGWRmpZrmIZp2YwZ2Vak2zjZhpwXFrMAhGmybr9vWg4AqjjPyyLnotIAhDDbggphwZEsdKk5lFAnSQH6y92fAghQv0weBMIYASitQCmEEBAspVSS1+AjLaVpO03ba3t+t9dpt52g3Rj2g5ZvEh0TiQfttsPeYGBeLsKb2fri/MV8NtnmGTXd3u5Rd/fOwYO3DeoMR612X2RJHm024XqRrsN8vk4LDcQ2XY/kcr2Yxum202+Pb92/df9hfzSeTE7/7E9+/+b6WVxI27FLqUyv0bAhJi4hSGiZJrlq2AcArQHa3DvabK4AgDGyCWen5xd7zf5+b89ttU3bUYhwIZFG7e4gi1PD8coikwJcr2PazSwuw2gVzq93b9/vtoJLxhgjVaUAwLC8PE+00hrVTlRJMWEEDApOw7EskzECAEJJLrngSmtYLBZKFIQASM0o6bSDg8Pb+0dj12KubzDmZGVR5LLMs4uz07PTl4PRbSllb7C7mE7zLJVcYSyKZHNxyteLkBGyXc+TOGy41s3kcjTeOzi4t9qsKy4tx/dbbcdpMAQSUDdo3/nm2//lf/2PWgCO3bBMmhdyMZ3MZlOkMAGFKUYYaSSVVho4BSTcpnt0/7XR7kF9DMWETCeXk4uzZLs9vPOw1z8wTEsrpJRK4yhLY15xyhilzA863cHYdpwyT6SUm/UsSyJMwPW8bn/gNf08T5Mov7mcx9sYYVyWW8pobzRotnzDcYWEMM4nN7Prm5uk5BWl+WYNJQettNJKAAaGamiTlF/N3D/b6RH+xfwAX6tBEcYACtc+kK9LBJwjjA1qGtQggJRUFU8Bg2k5PM3soDsa7xHILAsFTbS71w48yWQY+D1KUZLETPDw8tj32t/7zncF4PPT00eff3T1xQeT50+vHn/W6u/cev27g93bFbGaxGoazkqDXAcGaxsmCK45L1q9dtNvMpPYbiNJE2OzabaHv/Hbf2+9mpclz8vs0ZNnxAl2hoO232z5MDs926wmB/ffAq/ZBHjz7v7icvji/FpSnzSt5cVZlunVbNHt77WCFyfHzwzHI4Tk4dILRkVZNty2bQHnwCVtdQ9MxxPZbL/fk/Hulx9W27SyLLcoZBKHyLC1CAFbjYYv8hgB9zyj6bvUVJZrUJNyUfBSYmKYti2lTLerIs6LIsrc0CTj0jVNg985OvJaROpiu4nTbYGIY9sdBIt4U2bbizoz9+jgYdPxrs6fbdcpBTBsbzWPlZSGaTGnk5TZ+dU0lziUfcJmAAAgAElEQVRM84bbxJbjNJuj0cFwuNNw/e5oiIx/c7C/3wIAgH/wn/37//bf+/fOT47/8F/80x/8v//s0ecfYsQaQbCczSVAM2hvwy0Vouq3dke7++1u3zCtMs/D9Wo6Oc/TwjQbzWbPdlxKLalkHK3n02sAqHf/CCG/1XVcr858DRfTKFzm+RYh1Gi4ruczRpSUeZYlSSwExwQwIpiB6RhOM9AIKsWTNAujMNqmXElELaRKVUgsQUsJUiIAQmowG6mX4J9qv2QcUG3CZITVbC9GGABIJQ3TwggZxCIKXK/ZaHoggAC3TKCkwCqTFVSxWek426x5mo66ndGt18aH9yuhAsdlIMIoYaaTlLJMti8//KPTL37S8Lqjg6OW7aGGHyOj29/3W8NsG25WMw28EFUUZ8vlnBlGpzfauXV3uHPQ2blV/+Wb6aLx8qxI0nI8NMlAC1ls18uzR4M3fx0AuhQall2maVTFhTYkh+ur8/1eJ2j32v3x1eVJma4dv9MfjIqyNCg1COKKpGmebDZFLiiGt95+7+6du7Isu91OcbNSUgIIAKaFBLAAWJ4nVKmgHbQ8HzHFCGYGMUwDEwDNpQQuZFkWy8UCNK+yGIkCdgaDneHu7r7n+e1ukGUhM3vNLr54efL408/m89VgdG82mWhFPNcbHxx69vcvLx59+uMfvnj6MgnXSlumZViNhuAFEEUcj1oupla0XffaXdO0ri6O/ab3W7/zd+692fvp25K2Ae0B2h3cLcu/+ZM//b1m08qynGDpt7yiKKsqQURRy3JGu4fjvaNGs1WVeZ4ny9lken1RFlnQ7vWGO02/1qtly/nNzfUpvCKVl5Sy3nAnaPcAgFKWbMM43BRZ6rgNv9X1moHWOo2jbbSONsuqLAgmGBDB1Gm2gnYPYaxAFVm6Xs7ibYgxMkyTKwUmhopzrX7V0M+faV/pdYlp2Zbt1PzG+q8JwYs8L5P4a1GqlJJQEzRRSiKEhBZKYGywph+Mbt0d7d91mu3LixOLwGsP39y/8/DgzptPHz++OHv52afvP/rizxEwKL/TbPWuLi7DcE2x4zQ9xgypFYBizCyKuCqLrMymi2UmYbEObcet79B29+9naTa9mVgUt1wz3sbT6+ubq7NgcGunP3IAmo0AS56HsaKeQdDp6bNbw17Q6+4c7G/WR1fXpwhxZlqm62826yIrlMJlGefpQkriNNz7b7zV7g0t58xxA0LDUnAAhKiplaKuB1LLIjNsp9XuBZ0uh4xSYpo2M0yEoeSyKLIyroosSZPINJnSyjCtwfjotW+8d3TnLa/Vwwq1WjuYeZcX58dPnnz4Zz+QYB7d+War1ROcN2yr1xkNh+PeoOu7rZ3DJ59+/jhKsjxL8yQnDBzH8hquaZvMMJSgo8Oj3dFONL8eHe7df7P3M9+0NstaAO9899v/zn/4Xxx89Oeff/zjZBubDi9vpmlSeL5Ng3ZvMNp3Pb8q8zxLa/dQHK0Rwt3+eDDasx1Xa5XG0Xo5izYrShFjRlmWhLFuf9xq96QUzDBqtwfUV5ytjmk5vCo368U2XEebFa9Kw2QgFWK00WjaDY8YRlXkRZFlaSwEZ5QRYEKDZToCciWlwnU2IUIIq78q9PeX22qZOyBCCMX4L5YXxoyqzIs0L5Ioz1LOS4aAMlZXviUChrDgklcVQWbQdvo7h0F3CACuadgmdiyz0/B8C/7GOw/zdx4Oep1sefHy+Hkye66TxezkWOKgwtJ2XL87pqallLRslzB8/uIZmFaeZuvVcja9IYR4frvd6Xlet4pDx8BUcZPwaHZycXGabFfd3SP6nb/Zadjj4d6gvxNuT7ZFJkU1v7l88fyLRqvd7vXufuObbqu5WkzLImv1m8v56fT6RErAQA0ivG5/NLhl2cZyPr86P0m2IRdSAwIwEUJaSawAFAfKbMdFGAvOmWOYrkOoKaUSdbRjnuVpXpUFoUwD2HZjfOvuw7ffPbr/VtAfWpaXx+Gw3wOAP3r89Cd/8kc3lxPH8Y/FZ6PdO34Q9HsD27SzbGNQ481vfffN7/z6+PaPnjx9/Ojj9xeL0NTEDrz6slXIwvObzDCErkYHB/ffeudnPujZLPnox38ctHvf+hvfHlrw9/6D/+Qb737/gz//o+nVRZanH/zZDx5/9r7tWDRo9/xWByFc5nlVFlkaR5tVEkdeMxiM9oJ2r77h2awXdX2XUoYwxoQ6rlf734siBYBaT8EMwwvaQbtnWbYQvMjTOFpn26hOhOVSepZTw+e01vWvlUWmlVIaS8mrsmCECCFqcnqd+Ftzt3/V6wEm5Ov4PQCQtaEJE60lAFi2bRHDb3UYM4mWluX63Z5pOQQRhWVRFcm2AGCtZmAyVqWbOFqfvfg8Wkxa3YFjYAMAAGyAv/G9X796+r5MN8OW1+33TUJeXkVJUSrNW+221/S20RpRypjhd0esiJhZVGXKq1JKCYCrvPqT//ef+a63f7DXtC3fY3mSaIW1QuF6HS2Xg8bea+Nm+O3fStPq008+WS+v8/MXLpG2Fzx485sNLxgf3vG7XV5l06tTXibbzXW0WVdlYdqO7zv9UQAAp8dfPn/8SbgJ9at5QSiRAyjOKwzC9/3eaAySJ9swsHsEMy64kiWvpBBca40ZNagLSGlRNn3/1r1vHNx6w7S8qpDSIZ3eCADSCs6Pj+eTCSjMK3n18tny+vJb7/1O//W3Wt0uLyOkpdMwTKfxvd/6/ujWTrvjPnn0WbSJDZMxAkSBrHT7YHexmBw/++Cdb79nNH822GYxvTp58YhX1WI1G+8dfetbD3fe3Hv9zX9QCIgj+F//x/9hcvlis1xRv9VpeEG9yRaCR5vlajGtymLv4FZvuOs2/Hons5heR5uVaVrMYEpK23Hre8waGxFvw2izLMvCst1uf9zpjRzXK4oMA+RJzHlVCw0wIX6r22x3JSgleLRZrVfzel8hOeclF4JnRSzLol5MCCGoLoOhn6/h/rIHwFeQFUzI13nrCOs0jasybzeH7Z3ecHxACBGFNC3HNC2FQWhJFVEaKyltx+sPD03Xmt2cffnJB0+ffiLzQko52pn5flMqcL3AxPDw/mvh9Kw33BmM9vyg9/zZ/x2FGajKb/peM2gHbaGBV1Wj2SiKWFaFySyvEVQ82yxn88mpSAuiJKVHdjOwHN80DZOZVZk0Gr0irwSAC/DwQefzjzvpenb18ll6dYqlYnZQVrw77PlNv9Pvtbs9y7T8Vnf/6PbF6bOzZ19WZd5u+aPRWCGYTm+uJ5cll+SV+VqClkAdxzJM0711eOfB699MkvX6+sxxPSl5WWVCSC5BSoUJsRyLEKIdhzHSGww6w/2c8+vL81a77fktz4VKwONPXkSbsOG2pdyUZcKrXIpCQ+k2rXa7CdIAzRVUUiWtlvtO71t7+7vDnYPP3v/JarVBimBiNIP2eOfu4ub4Ok6zIqt+Kj9ZAzw9nT758sNkGyZxdPOHV5xXL5//nXsPv9ke7e70jXEH/t3/+B8qxa+vXtDx3lGnN2KGUXuTp5OLOFrbjtvtj4N2r5ZhZmm8mF1tVrMagM6rsun3BqP9+jK0KovZ5DxcL5QSQbs9HB+0e8PaAaOVKvIcS2VRgyEKBrQ7/Va3DwBaq22yWW8WQnBCqBAlALZNR2upCamjyQllmFD4KrD2V9rqlCdKWW1wo4wpKbVSdRoxY2bta+NVDkq1uwOCLSllJUtBcJnxMNpqsDSiCtGs4KUQzHR5JS9OjyeX54Zpvfveb73+1rvUcRmCQbfX6/RsA4t0pfK1jKNZNBHZ5t7DX3v49ntuq7deTF88e5wxo8SIYGUzxMCoDFMapuG1TWpqjbdhNDOI55h+d880WVHEx88fp7m89ea9xUJOr16uJxfpZp1u+WK+fvbkyXoVdvud3d29ncODKFzu7ty5de8NhshmObs8eRZtVu3OYHzw+qcfP768vFitZ7LmjmkAwADKpMRvBfWJ8Zvf+b5S1dOPfhTGizhZc87zkmulpYKy5FpxZpitoLO3f9QK2lmSv/+j32eU3Hv4drPZ85s7589Pvvzs/SwNO/0eNUmcRoZFRju7d+7f6Q+7jsdkVRHEMOicC07AbHiiFM2Ga5m2ySqLNg3qjkcPsriqOHW8jpC4KP+ihyCA9Wp1c3kZbVaFKJVUmNB//D/9d/u37g32br317d/6W3/733h7v/Hgv/1vYgA62r3V7vYBIEvizXK2mF4Veea3uo1mYFkOJkQIUZZFLYtod/qYEKXVKy8LY0qKsixWi2mR5wjhmk/vNQOEcA3R57ysOxbGiCLm+i276SsAgmkdk6GVJpRSKbDBTMMCqgQzKGV1pABGqF6avj6V/opaLbfGhBimbZoWwriSUmvV8DwpKkoRM0yEMBfKtZ3e+MD2PCXiquRlWoTzzeXFue/NDKc9PDi6OL88fn6ynF8KwamBG26Tme4f/+D3FqtFv9ufz64YM9xGg1flZnE17AZKycnF+eIk3BuNb+3t7d97eHVxvr97MJ1cTC5PlvPJZjOt8tBEshu0t0mxDmeyipPNTafdOtg7vP/wYbc/XiyWz7/87KMPfvLg+DfionrywZ/OLo9VpYjhJxlcni82mzjejoucT6dTiuWd+w97/c5o91an1Xv9G72yyqs0y7NqNp3cXF9vCo0BKGCkJcGUULcsMoLBJNiwzNHuvuc11zfny0czAKKVVlJKCWXJszQWQmPC2r1+qz9uOO7TT3/8/Ms/twzChdwZHxKkZjcXUTjjVen6nt9txclms7o5vHt0+7W7t+4dIcU3i1iWGcGSUrDcRlYU1xcnly9fJmFkEsu1PUI8z+19+P7vL1cXzESN5mS7LeCnaBbf+7XXdw/vfvzhjz774I8vTp/zLH39rXcpZWkSnb747Ozhm9/c79gAHID8p//wH1HGsjStLYvnJ0+30aY33N3ZvTMY7xmmFW0Ws+uri9NncbS2nYZW0rTsW/de2791nxBa5Olifn12/HgbrQD04e0Hdx58wzTtmqC/nF2/+PTjTm+ICU6TsDfae+Nb3x3sHBBCF8ub4+NHk+vLLEsqLilllNgiz6WQSohaiVUrULRWCNBfJwj9RWVCrxKeXz2o0FfPC1FaltP0Asf1mGkQQrTWUlbEYBo0L8tO0NnZO6IYaV01Gq7XdG3bNmwrijaTy7OKy6A1MhttRawvHn16M51lRVmU3At63eFBJVQcRbPJdZ4Xpy8fS4D7D9+mzPAaLddpjMc7DiOgq/2DW2+89U5vMKaY3Draf+Mb93Z37zEEBBSSXPGEYQIY5UWWxWESr7ksEEWL2eyjH//hyfPHk+kUgGkNL54//eyDP11N567jh5scJNOalCUP1+F8Pgs36zjabsP1erHazNer5YqXSnB1c3nz5NEnf/qjH11NrrZxBACW5VBKhVRaiaDVNgijzCAIKVFIIcLV7OTFI0xRkiZcSMO0NKAsjbmWhmk1mp0sjWaTq6vzZ7PJtdQQdEa2ZRZFZFl20O27QUODiON1M/Defvd7v/E3f3cw7rfaXsOztM4R4pRpCdKwe/Pp+ouffPz8yVNRIWYElHqmHRRZdXN1fvLiWbJdSwQvnn1xfDPHzeF+168/aOCQwzu3uqOHCNOiLIN25+Fb71Z5Ntw9vPvw7ZaFEcAnzy+oYVoIYSl4nqdZEmulHddrNPy6+quUijarq4vjNI5My2HMMEzWDNo1y6TenfOqLIusKgvH9Rpes56qheB5liTbsPYNYcC24zaageE2NEApqpwXabzN0lgKrrVSUoPGNWBUC15vSOrtuNJYo1+lEggAXsUXKCGEEKLGLwrOiyK3kFa60pwIwVfLabndDEddZll+q0uZLNJICXC8tt9yh+N7QW80Xa7DbbZNs7LgQsA2KcRkkm2XruMJztebNTNdw3A3UWiYlmnb9+7dT+PIJrLb7Y4PDg2kotnlfD69fin7u0ee3/5bv/t3TevvzieLT97/4csXTx89f9ZodwmIPNtGq8WXn3/ccDytlN/q9kcHTrP34sWLF08fxdsEE7JZRUrRSjChNcoLJTnbqGgdOhZZTqdBELSDKy/wO52B7bjRYnZ5eTG5nsTJFgBwHe8uJSBi2U4n6DlegyAShbNPfvLDi9NnwCuEce1t0koLwTEhbqvtIWbatuN6m816Pb+OlgsgDBA7OX4WLSdHhwd37t/vDXek0oQZhms1A7/b75dlsliEQkb9/rDV7TZGB0m6eHF8/IP/559fn88vTk+QxJbRMgwPG6YoiqvJNFystJRZWr348svr8+PT42cf/NkPX/79//y3fvvfOmgDANgAb9/r93f+oy8+fjC5PKkzqof93WFA6kESrhbUMC2tVb3JWS2nQnC/1e32x0GnRygTRbaN1jdXZ0WRe80AAGr4XtNv15uTWiBdJ+QNRnutzqBW+Ush4m24Xs1AKSE4xqjhtbqDcdNv1aT1NI7WYW2skUhiUZVaKqV1WWT1VF9HqSGECQKN0M8Vwn7JzbKdehhQSh3Xq1nWJU9rubgUSip5dfY8Xs5b7XejcPXyyePhbs/x3EbQBmRaTssPhpTam/VJmhXZ/8fbm8Vodt13Yv+z3f1++1prd/XebC6iSFoLtdjWYsGewTjwTGaSl2AmCBBgAuQhD3kOEGCAAMlDEiDwyyDOTIwkNmxrvEiyZFKiJIpqks3uZje7uquqa//27e73ni0Pt0lLMzYCZ6Q5VU/1Fe7Dd8/yP//flhZFlpXtrMlkvJoOrt64BZKr6WRtc9vxG8vFstHuaaUZEo5BNtbW2r31enfHtswkWsarpVLo6aM7Ssq1zZ1Pv3b91tV2p/E7xy8cvxaExycHx093Hz+8M5sMmOlsXL7Z37jgeg2E8fnR6ePdDw8PnhRCYkR5wTF2ELEAgZSC67TgWbpKghCm86lrjRznzDZYxasxw4iW4Wg8TLRKRYaBEEykkAq0Y5m1WkNJDlJZjouIIQSfjk6wBgm6ELkSIITiPMPUsp2KZTnYYPP5aDo4nY7PkdLVSsNyalGYLCbD2fhosRxcuHSj3u26tfpOt9Vqt3euXJ9NzpEU4TLQkjPY8JpNw3EF10kiT08HqyChpi8TKaVggMMk3Nt9N0xCZpqO5aU8ypLiYPfx7r07u7dvP/6P/+k3/qP/7MKl9U4VTIB1F4zPvuxXanmetXvrL3/mV7yPX3qz2aZKSiF4niXL+WQ8OCnyrLd+obu+hRAq8lRwXuRZHK0QQqbllKrF8noghCjyNFjN57PRajnlRVGttxqtbrmihOBxtFotZpgQLQQYzPUrjWbX9asAkIliFcyjYJEmMaVMK1BSSgGgleICMCozKT4RYv8HwwG01phQSplhWnmWYkLiOKQmqVRrne76dHDGea6knI7OHZs0ch+QGpyeLGfLTv9CpdInQEohCyotrLnIeS45Rxgv5xPbNGQOtmWXKCFINJsMitXMMplTbbfam06tl+V8eH5+PhhyDccHuydP93obm/HqP33ptVcrLly+seUv9SKa5LshgN68cPX6p37ly1/7R5evby2m8i//9P/+4O7tk5OTXECW5ZJzYthCIk0AEcCYMWkrSQHnADrjuRRZmgqCyXyRUMp4ki2KQAIAIIIIwhhrRZDhuL5fqYFUvEgKimuNtuu7vCjSYFVkMZdcSsl5keUZMYVnMC65Soqjvd1nEScGEVrEaUYoI9SOkvTJ4ydnZ8P1CxevPfdCa30tTuVwMG52OrVa3XfNJJwnSV40JSDfrfSAWFyA4zUbje5queS5wEgU2axataQKcxHGAY+K2GCWU6nIQp8fn/7J7//vs/Hi67/9T1569dONFlQB2hQqL+7EGhCC+s+89DSJaJpGWZrG4Wo5n8wmA8bMZqvfbPcN0y6tzIPVPE8TQhmlVAjqeZVKtcEMQ0qR51mwmi/nE8E5oaxaa3qVGiGEFzJLk2C5yLOEEKqUZhg7ru/VG8y0JChe5MFqkaSpQqBJqcJSoFEZvoIQJoSUMdTP7LC0+mV7QRd5hhCSTJRgSJYlUbAMl/Msj1t+79qtl1945fXh8aFJCACEweKdtx7O51er9UYULKv13sbFm63u9moZBYsJyAwDVyIBraXIKEJ+1V9Ozlm7a9q+adiu42vNsRbL+SQan3X6m91mr7txOebw9MmD99975+DwYDScLFYznvFCkYPDA7NSa1QabrV65/6b48GBZRkXr1w1nOqNl15fv7jlePBod/7h/bt3776bRKHtVLKCa15Qy5Y8kIIBAYyU1hIBB6U5CAlaa8mFBIC0kAQTqYADQYgoLaXWWCqDUMuyHdtlhFUb1TSNAEDKXKRE8Lw0cSLYUAQhlAOA4CJLoiSN8jyLk5BSRgwLpA7COJKpYVqmyTyTzebJ+floMB6NJ1OvVsVIua7z2S9/9eZzL169+pxlM1XkSYyTaHl8OLz//t3j45NGs9UgOE+Xw/Oj5XiwdzLwDGh0+zcvv+LV24Oz08One2Ecgga/1j4/H/z4zW9Rap0cHFXrtWvPv/jy800TwPz52+LTmfjOH/2fNEvT5XwymwxXiykvima732j3bMd1XC8OV6PByfDsiPOilPo3Wp1Of6vR7JqWo5RUUgareRQsy5QXv9YouzfPtv/lNMsSUzIJCoPj+VXXq2BC0iTJ8nQ5H5eaTgAQqqTa6iJP4WP0FwDKHACt9CeE8l/eQAhZtuO4PjOMLE2k4FG0yrPEsKxarXn91itrmzsYcDAfhatzv2ptXbzquPXVYr5azDr9nc0LV4hhHR081SK3GDGJNgmmFAogWuSm4XmWYzDS6XYqnssIaKGTYK5VAYTY1Xa1s8Gcyvjg6NGjh++//97+/kGcc85zrIA9PX7rre8fHB5ub125cvPKpWvP3Xz5FcD09PToYG9vsZy9+9N3slz/1Z/9wUcP7mRcKk1SLjC1NbE1QoAEAAeFFJYguQaAj1vm5b1KA9YAQikAQsDWBECkAFJpoNSwHI8xU8p8tZy6XrVarzmuL/M8S2OlSrUqkYqXQj+JScGLMFplSYyfKWAEAFBsYkq0Rnkq8iixTQOQE8dy/8lBloUaeNWvnhw/ff6l117/4lcvX77V7a4Vgu7vPv3R97777o++H8R5XsTEQACiv9m7dHX7ZhJ1Nraff+mLL3/+q61+787tD/63//G/+963/sgw7NVijjSMz4ff+pPff/Pbf9zqdl985XOPPvP6l7/+9U4TXAAASAEOz4Lvf/sPf/TGv6FQmvyMzqIoMEyrZOprpcqNcHD2dDEbG6ZlO275aX/jQq3ZpowUeQmczYLVnFLWaHY9r1LeYos8W84ni+m4yDMoJCGEUupVap5fxQjnWRpFq9ViVgbNZ1kqeaa1llKmSczQM0iv3PjL2V8Kd36pC4Ay5nrVeqPtuL7SvJR0EArUZJbluH61hAI9v0ohe/2rX/uNr30VAN56699855v/em/34c7VJ77fHpzvEVVULaoajV67vbaxCQBpGDquMx2cFHl06eJOo1FJ02U4my3nE5tZ3uaV+to2UPvg4PC9d99+9847hyfHyyQx3SZgHgXB/tOD0XDSaNRf+cwXnUblN371+fIoTPL2nds/GgyGcSwH56cf3P5JXghquwooACAMSFMNHEwMwEFp0ByoKqc8SACCQAHCBAPTAhRoBIAoBRCADVDcYGaZgm6YFiEQBUuv4lfcimHamYYyC1TwjPMiTwtMiF9raoxn8xEvCs4LjQlIDgIQsQi2mGFiCVLwIs8MZhJCAGGhZcETpZRwjaO9E56AzkmwyK5febHi1588eHLv/Ttn56d2pSGl0Epef/7Wa597/fNf+lrP+zkrEOfXX/rmH6xrAMe2klXquj5QOpmMBM9mk2EcrvYe3f3o3ttf/No/+OqvvUQAHnw0+OH3vvnW9/5wMR1TQliaJsFyUeSp7biNZsf1fc6zKApWq9Fifl7kWaVatZwKY2a11vLrDcM2QOsSIYrDVRaGjutX/Zpl2CClVDzP0zgMwmBR5Jnm3DQsbDBmO6WDIi9EnuRRnCDMDBNlSSYEByBaScE1oUIr8sx+TGkoKyJMxC9oAeC/RpSfPbAUxBRFoQEMx2G2JXKNMTEt26F2ki2zLAmC5fFkioTsdXqNK1fK2Q8An339K9FyUhTE96pZnM3HE5UlzDGbzebW9s6vfOHr9UYji0PL9r77zX99fvpkbXvbq9QW88n54Gg6Pr987eWd517xG2sJlx89+vAnP3rrw3t352GqqR0v56blebUmAZC8mM5mg/PT0WBwb6qbLZQJePhod//4YDVbzubB7oO7Cok8WfCcm6YFSqVRCJwjihEFLQsow8sJQGlyQkBLDR93kBVoAKVBIoER1pRganqWySzbtT3HYAxjtH7hgmU6q3CZT4dKSYSwxCCUTNIsTTPDtpntUMqWq6lWUisAyQExRBkCyLMkS2MMgID41bqQIopCRHG1UmfMz/MwTgqRFYfpcRIXg5Pzj3buN2vtg0d37r77judV+5vbtbpPKaYUU8awSQEgAhjPgvl89cqVzR6Glz792f+L/i9pElBqx3GIMTFNyzCtnPPHuw+f7D04Oz+Mkwwjo9XpHj892H348NGDD+MopNPhFIMdh/Fqsbh4+brj+nkaVmoNKYu9R+8Ozw4JQ2kSKYU63Q0FyqtXgIASosjTyfBkOR5gAM90rly+VXUrrlNLk3hy+mQ+GmHMAAAxyGVqVb1auyO0EhqyQp4cHuSZFAXwXFPmVmosCZOUzylDWupy48eEfBwKDKWQ8u80/pYTQ1IitBaG6WZFpiVCtl3knFCmFRhuRWoVxSHFAEQhrU3Xna1Opkt4//abjHhba1daa5cv7Vz45HEUWd/4e/8UAI72jj+6/Y6MCsf1l4uzer198eq1eqcNAJZtZsG0SFbt7rptu0kSj0fD47Mj26pW+xedWi9XbH9/7/bttx98eHcVhVzSIg+VwtbUPSUAACAASURBVLxYmoZhMQupxKQ0jRcPPnrPf+dmY2Pz6d7DR3fekdKaRNnj3Q818HBxjkAakOEc6vVK8+ImBh2H0WA8BkyLVOQpgAIMQBFIDRSDUFoqgUBicDFmUoGGDBTHhDJqmAYlFCOEbN8v78F5ksTxvNQKA4BUBaGM68j2PGzYy9mslP6pXJiG+4keEgMCCp/wC9N8BQDExBqjJA0QRphaQmLC/FQkZ6fDVRA/PT5imEXRLNdgAl/vtf1KrdZo3Hjuc67bfePPvi0Ef/vNP59NJkeHu7/9T/75P/+v/4tmY63quXGSANKGbXBerNIZQ9Sr1DGYSbI6OT39/d/73R//6K3Pffnrrle9/+CjwTh23BqVClaLaRTGrlfpb+y0exsI4/n8vPSxyrLENC1imMwgjlurNdpKSsGoljLJojQIeJ4ahPl+rVFvO5bLEEkBlOBFnpXCMaSAUWxaNqYMAHiRp2mSJ5nkKkvSYBUkcSgSLgSXRaHkLz31UWutlJIyx1oCpRgExgAgKKMIa0IBEwpSKSmlkjgLnapfCLmYjj1PcwnL2TxqNQB6Hz8PAchwFRzufTQanBJCq5Vqpe71+1v1ZlcX6WJyvnf/zsnhLias1WxLreMsC6NEKVbrrFPHF4ienhzdv3t7/8mjKI6kACm4zHPAFiheCIGMQstcEDWfnLJj//jkGCptQK4mVrJaBatltBzxODCw8lyr0W/XG/WtjYuNVlMk6WQy8Sv1RRQuxwMshW0ix/N5weMgFQIoAAGCqaUlLRQvZaAmxYZJbNtizMSEwMdbiZRClo3qT75KghSA7fqZkDxNygC4Ik+lBIrUJ6bz5f+qj/cjBRJAYmBII4EYAkwUAYwLKYTAhcjTIg1Wc9O0CCPEsS5c2LEoaTfbn/7sr3/61V9bBouP7t0dnh3ZVtOvonojmk3Gt98bzKejeqsbHB5oyBE2EaMMWZzny2BOKSPUSNIMYXywvxtFkVepzyYDCQxRhy6mo/HwrMiz7nqnu7Zdb3a15lEgx2fni9mkyDPbdikxTNN2PL/WaEspsVacF8FqPp8Mkjg0LafR6VdrTdO0tdblFxEs50WeGcxQXJSuQabtEEKyj80mlNbyY9c8AMAIa0LwL18GoBBgzHghSRk5KblNMAA4tkNlCtInBBeCFwWXUiqQwEi712tV1hyr7vnVLEvCcPXJ06JiefjRAymMIAhzpR3bWtu60u63mo0OAn34ZPfo4MMH793ef3Ln5de+0iPW2dHT8XQynU1Mp3rjhc+2Opur+eLh/fdv/+i7+7v34lQqbEopQBRgWKCU0oqD1LLgKpsMTzOptvYebWxcqjCTZtlw7+Fw7yFfBJZJq459cefq5SvPbWz0G7UWRrAYDxEYnc3nNSFpFJ4fH5wdPhkNTqJQFgA2fmaRTTCRoLQQAIhgkzFlm45jeZQyhBEBjDQQQKJIRZEoJUArhDRCCBRQwMStF6tFGC/TNOaFEFyXPYyfS+7RH1/hsARQCIFSCmOMpASsNUJaKlkISggwM+dRFEdFbtWazUq1YdhOLnV7Y+elz36ls26dnqxmo9FyOZ9Pp3mWFrl4cO/9OOHEYOsXrk6nY8fvZEmU5xkBQpApBScITEpzKUzGsiQ83ntQb3Vs26tXa5ggupxPwtWcGaTeWDNNSwqOMFJazaaDLI0RwpSZFDNmGIbBTNNGCIiCKE0W0/FsOkyS2OvVW50+M0ylVZ5neRhGYRCFS5FlhmdLKfxao9HslgT6PFou55PVcpYlkVbasm1mGFBAlsZJuCry4pd9AigwgAJPQ0IYBg0yr9XblOJatcGlAJEAJbxIuOSIWhJJ0Lji1W3bbbW725evyCw6OXzyVz/Av/bFTwPAvfdu/+QH38HIjWK5mKTdjmp1tzc21/2KNRmOV8tllkrD8Sv1Nb/SUoDvfvD+ZHJOqLNx6frGzq0wjO7fe+/BB2/v7+2GcQTYhvLmgwgiWAsAJJ/FdylIopTrk4N7t9f7G5VqPR6dzg72VLi6evHqzpVrt577VKe75jtOEEwGR0/HpweT86PRdOJ0tmvdjWajs7VzrVZv9TcupEHAeX5+dhYGYVpIzhMACqAQMphBEAZKWemLCh+D8QhhznMhuBRcKU0IIIxLn4LypZeNY60wABBCEf5rEwOtNXy8/WulEC6tJZBSgDQCBRIkAAjBKUPMpJh6KseGbTiuU7YlOr215174bK1u7344+PFbf3F8/ASIEUdBkiaGZWcFf7J79+pzL7/6uW84dj2MV4PTw8HZ0yJPCaWWYykp8zxSSjLDNe2abXv9jQuGac0mw3A1p2kS8CJ3XL8MNMaEJHE4OjudT2e8kKREhZjl+TXXrxCGCMFSyShazWej1WImpXRc32u0NAKppCiyMFgmcSg4/6QKr9aa9Va35E6nabyYjoLlPAxWWn+cyiZBSsmLQv1/Z/P8e85+ojQwaiQqtBEGmWMpNvvderPl2e7p2VMhMwyO0hpRy3brYABS4eD06QxP1tYvN9vtgwen7/3oO2+/+Qf//X/7oN1vz6fDyfC8Utu0rVa1um653u6jD5kJXuVSu9+h1LK9BqIWppbj18O4OD06CuPg4rWLvY1rSaE+uHP7B9/95tHhXhwnjNqKWGlaKMGBMqRBYwxKaq0IwoCJVqqI092fvmFr0e73w8Fpy/eubm1cufbizsUrlWojz+Lz/YPB+V6yWooiQ4oiTc8O9vafPHIsd21z59KVaxcvXJVSZmm8++H7o/FoMDgNg0hpSSkjFBMKGBAAIIQpZQgpSst4ZsTTQgiuVAnUUIIJYAIKwkWYR2keZ0pITAAhjCQCACx/5kV+UtgiJiEHAKLgWSqxVkiVnwpegOYKYWXYhlfx/UrNcX2uoNFec6vN87Pl/bs/HQ6HplurNDq2XQ2ihVep5zmfT0fMdPvbV4Hgu7ffqNQqedYKgwXnRZHHSkJpaR2Fc79S66z1ty9dybMkWE0IxXS1nGZZWms2SmVMpdos8mI+Gy9mIyE4pQYAGKbVbPdKK3MtecGLcLlYTSdJnjDD+NgXEQFAkWerxTSOVhhjZpggtWM6zXavWmsSQsoUjMV8ksQhAPAiLysNJHCZS/cfYBRcOlUHSrOaQlgUbt64cfPWS6vFLApGyzChGChlwAyrUucyi+ajIpr1+9X+xuZ8fPLWX/3R4GS32+mvbV0zLFaprW1d/RVATrgIR+PZ2ZvfOtm7ffT4lV/9xu+8+Mrz9U4lSTqSfxTF2cHhQZFnSSLcam9t+3qlsXa0f/T+T9++c/udJE+4xpgZXGnOc1ASMFGCg5SgpVQKMCW6LKohXy33PvhhNt3u9jcvv/Bys92zbTdezO7/9PtJHMoib7S6z730ere7Pjw7+ujR3VCKwXiwGA3Hg5M8XpbNaMO0Xnjl9fHk3Hn44ZMnD+MwNiyLWY4WkhFSknAxIWW6MyFUqUIKXrK2CCGEUMoYACCFeTGXUmCENHlmHMSLAhOpdRmFhgAAf7yrlZmzAPrfpTbajseLnPOCUORZXr3RaLbbnl+tN9uN9vpqMdvfe3h0+ARTgonBeWE4tgMIEOFFlMTJ/u7D5XzBeaK1rtSqa1vblVpjeHZ09/YPZtOoUjWE4FJqoTKMNSJagbAcw7R6dDYbA0GVRotLvrf70HGdPM+mk1EYhogwZnoKCDFYtdWpNFrwjOUWBvNpFCy1Vnal6lUbrl8DSgEgyqLx9HwxHWmlKCGc563uVrPdd/1q6bpcAmec54iaAM82fiQQlFRk45kE45c2cCFyQk2CKSUYADybPP/CS7/6699498fffXSPhcuMIoVAYYyVhjwrgsWy1+3deOHVVre3f+9OsBpfuvbC+vYFSvHuo3eLPKu1Ngy7UjObymic7d+7f+/u5PxoFSR5+o/7Gxee7j06PNybTiZREHItzEqz0dvAZnUynT98cP/DB3eXYSgAoPSVUbqMvQEFgDk8E6RIqTQCIAhTLV0LEZVWK+71m7da7c0iz8bDs+ngmPOCImxWGrXWml9vY2rmeRGGsdPq9rq0YvlBMIkWk9VsUm3Um+1+t/+FSrOttBrPzpM4ZiZxfYcXwsaYUUIIMIpt26GUYawkV0pIkAIpwAQTAgQDxhgr5ni+UKCV5jwvA020Vko+01hrgPImXQaMA1IUGDw7ZgBp/EmZwAgBAhpT07GrlUa12nBd3zDpq5/7+vr25eH50U/ffnMyPE2TOFqFEtTl6y96fiNcBePJuBAym88Wy4VpWZWqF6/yWy+88lv/8J9Nx+f/67/4b37w3W+ZjPmeb5qW5biu46gilXnCMDZdh+ZZUq03q7XmdHx+//0fKynrrc50dKI1ZsxghlFOTdtxmWEUeVwKF8uoixLJcly/ZJJprfIsnU/HwWpeXm2LPKvU6pVqwzStKE+yNCmLRSWlVHnJMytNH7TSQnMhJP1F2z387FAYlBBAEMKUYIII2K59cXtn+/rzH939MUZcCaElV1Jy4JCLcLVixGp3tmuNdhqFQqUvvva5S5dvnZ0dTIanD+/fD1Yr232S5bzZ3965/OLOtU8di+D87OmP3vhzw7QuXXthPjudThbE8MN4hBlr9Tcdr7VcLmcHez95643Hu7vU9EGLLBdZUQBmzDCQwoJLQM9+tOYlcIUJQUgh0L5rbG1vXb56BQE7PDwPg3GcBe3ONjMMqdRiObnz7g8M08riDAiOw1WepYTQfn8b+htJsiqD2DDC9Vqj1VmzHUsiQBQM12WMW0AwxpSy8pcxIpVUUmrNP+nklLawpa1BrdFC2EQIl/nnqjRbxEgJAUARwlprwM8wCISx/vmONsK47KRFwRITsG3L932v4jKDCJHphKdpvFpMH3905+7tH6RJDAAFF361IYWqN7uIMi9LqpttTEiSxbVqo8gmi/GZV6l99nodrtfffvNX3/7Bt5I4dv1Kd3270ezajosJVUpJJbMkommy2r50hVAWzEZREB4/3UUI+xXfMN1qrcsMQ0lZa7T76xcq1epqwW3LmA5PZpPhfDZSUtab3e7WBebYMi+Ws0kYLKbjcyR1vdIYDU4832+2++3eep5nWqk4Cs6O9qXgQnDECCHUMKnWCgnMi1znWikgBvuE9oMwLvFgxSUmf/PC+NsQ4r9RP4ARqrd78+nYMW3DpKMzuHTBr1QbRbjYffC+X6lVqnwaLDNOYpmJgJsmI6bVX9u6ePHG8OxgOR88//Lnq7Xm40d3Htx5lxmuKFbD5alZaUzGo+XizUbN31rbYQg8v7YKlvt7D/IsTuIoTkLNLMtv1rsXq63ewf7u99/49u7DhxIUgARKsGGZ1Oa8yItClzMEM60k6AKAEAyEMgwYY6WUqHVa1Xa7kEUSzlfBRIJodNrUoUXBc86F4ACUA2a+02vUkjhEuqaV5mnIC1X1a/3epula7V4vTsL55DxYzj3frtbrmChFlOSAAJQqtOaMEcvx8iwJ4iXBRBMFWCqV57mqNdqVWiOKk+kkKLLQMIjvd1YLstBcCqWUxiYTheY8l4pLAAwWYyZBDGEiJBeFwhhjjBDGWmSl4KlSdRmlnldpddY4T6LVpNVZe+etPxucnqyCuetVW501hDFltlep2U51cPaUS1n6slHKKtWGFDxNYsLI07375XXy1S98Bf4HaPd7nd5aq9vr9DaUVqvFjIsMY+A8o6vlTCvdW99e39oxTNer1BbTsVQCFF3OJ5VafePC1c0LNwhjQnDHdWbj8zgKSiGvV6m1OmvVWpMxMwvDMgwmSyJKWXlodLobzxLETEsWWRgsp+PzPM+a7X4QRRhjxJXWGgHSSinDACjwL5P2gzRorSgmSiZCgGVDGqfvvvfj+ex8MZ8HQRpEQRDmYQ6ZZsQhyiAiyykxeZHneWhaJmNktRyNh0dRsMwFIGxRgkGTPM+kLIqcmZ5bb3V5kZ+dnSRxKLXiWcolVBu97uZl26/t7e++88PvP368G2aJbbtKKZBlR1IDZoZJyupZcKURAl0ue6W1VqCw0l6dVqoVSlEYz1erZRDO4zSUQBumAQYzqGVir0y9UQCFEK7jZ8EiWM2LIiGUVfxKpVp1PB8jXDIdATShjBc5V8AwaTS7jDJMnpXvRZ7xItFKRUnkuL5frZm2o5UuDfhbnXWMnVWwzJLItOx6s62Umo7P0zQymKU0whQwsNLDj/Ok4JpRQwEHIAhhhEurF8KYSQhgQk3Lpgwn8VLKXCseBnMlls127/qtVwzHngzPBqeHGOem7ZA8VgqB1lxKXnCltZJC6qxim1rr0eDk/lnxwrqxdfHatedeWi1mjXbf86sIIZ4XRZ4pKRFGjJnU9nynUnG8OsKYmZ4GWnDBi6Ld6y/nA6lwq7vueJWnT3aTdOlYlmlaq8koWM2F4LbjVutNZttJFgOluShGw7MkDk1qrhYzkHpj89Krn/tKrdGJwygMFlGwEILzovgETEEYlz0yhDEmhDCGFP6E+vbJ7v6LI8NpkJxRwnOe52C6dBVn3/v2N++1u0WeraKEA5Oa5zxPi0IXmqeZCRKARFHAedJdW/eq7tGT03A157wg1LOtKqG5RpDyWCAEqBIGs2qlMhmePXr4fq3a9OsN1/Gb3bWL157XhO0fPL79zveffPSIA1DbD9PYtAytlBKlIbuByTMqFJK5ViAJ0UoDYKURQYAw8ivVZr9ba7cIhjwLhRCCFykPm60eIIwI1QRB6XInBWitcwAtDMZAEa2lKFIlMg2WENl4dDoanEglTNMp8kzkRa1SxxQc0yCUcZ5n8VJrJYSQgvuuc/PFVzy/uphP8jQq8owh5LkOpVawmq8WRCoeLUfRcoK1tA1LCk6APDuHcbm+QWsQgmNMCKEIIQKAAQgmmFGshclYpeIblGGkLl67tXP1uuP6eZjVmv1OfzNJk/fe/qv93TtCaMdzouVEAdHlvJegtcaEYKRYq9Zq9tu9DQIEAdy84H7qlS+9/5M3Ws01y7a10FkU5XEiuaSIIYapaTtlUksSh9Px+fDsaDoeaa1qjZ4QmlLLsv04Ch59+O7x4UOD0ivXn1+MzuPFHAC8Sr3SaJXyES1EWf8AwoSQ1WK2sXnp9V//+y995kuI4fHgfDQbzqfjMg1cKs15oZXSGkspdaHKMCmtFML0l8p8VqKwTEcgnGVJreIleXjv3v1Ge7je31LEcqoOp1mm51G2TJbjSOFGrbVaLM9PDgjN66261nwyPBY89Ss1xmqeA3GS5EUiRMYMUqn6a5s7/U5PKz08P1Kg/Gqjt7596caLhUCnJ4f3Pvjxk48eJJx7tR4QtlpOMdJCZDoXWmkAWQLVWqsyuQwhDFghAIIJY5Qx0lvb3rhwpdXsTWfDYDkviogyZjNCGIBSErgukMSAEcWEEgAlImYywrRaJWGwVJDVGw3P9+PVfHC6PxkeKalN20yzREpOKcuzxKGWYVqcA+fFJ4yG3tr2q5//SpFnP37zz6WS7d5GGZ9u2P7mxe21ze3ZZDgdnQSrBaXgerU4yik1MCFKyjxPAIBRyzTtMEkJoZ9gzFIpbGCMlWXZXqXm+lWts0ar+5Xf/J0vfO3reaLffeuNKFgWeVavNTY3dx7VWtPRuVJSck4YEMawZWNCLMtx/YZjWZevXettbGxfun5jnQAAAbhy41PlfVVwnmdpFAZlQY4YQwjTOJxnWVpSOJM4jKMoiWKCydHeruN7rl+1bc8wjTLQhafx8ZOHUbDMssSv1FqdfrXeNC2bULacT6bj8+V84ni+RY0kDl985fW//4++XtrXX+lfUIy8/5M38izhRYEIKXd3pZXWSiopBNdSaq3K8OWf3fKfWVb9IgYGIZUkSJkU5amQCklgSZh5bSMDRrCJGcP5s//UshBCaaUm41HBl622r4FPxofnp4+l5K3OGiV+kSrGVqtI5hxXKl6n1771qVdFnhUiUcBr7VZnfc32vJznB3t7BwePB4MjTRAjrsZg2c5G7epqMRUy4xnnRVryh7WQWkpEMcaIKNCgEaKUMWo5tik3LlzZ3Lrc7azF0QppQEKXQt1suULUJIQw6jBCECIIYaIFrfiyyNKEMwrNVqPe7KxfuNzub+49ul+m8gBmhDJMCGhiGB5CQAihBqbyWSwDwgojXJbOYTBPk7BSbXiVWhwGSRJSw3A8x3FrtVYDE1Vv1Qenh8PzmWNTx/Vsx+U8D4NlEqdcZIA00YC0wurZ+8WEmgYzTKvV6ZgmpRRbjn/zxVc/86WvNz146913nzx4d3B62Gqvf+q1L3e6vWajEcwHSIlup+vVm63OWqu/Xfboa/W+49nhfIwQAkXefxxPR+fz2fho74lp+rPJsOQ450muJSLEBIWElLTe7GjNB6eHw/OjvY8+HJ4dSy4c1w9W82q9VWu0a412rdmmDFuuNR+eDJ7uJuEKAGqNtl+pB6t5HIfl9B2Pz4J4VbH9OM1MZl29/qly9s8FrJZwtP9ISdls9dJcRuGqbCRjhQuVlZ4/CGMEP1P//IwI5hd4JlDMdZ4YzMzTKOecEAuZxK72CmRRYFmSBcEqTTIC2HccpVC13iy9UCWoJA6TeC5EZjuub9VB26ninBcFY9yxqlW32+s1Wq1HH7w7Gpy4XnX70vX+hUtJmI5Gp9PZ+HD/o9Ojfctvt1prmrGcIwHIqdaQ1NzJ8zRN4zDLQq1BI4yxwoQQgpVSAJRQZpiWbRHFpYVYr7dZ8WsVu35y+Hg8Gs6nozjOmGHadgVhThUDkFLmXBfYYEpnju9euHJpbfOS61XyrAiixXR0rrWyHZdrTIhhW1WtETNsm2FCmSjZXIJrrUBpCXJ0fvzmt/8QQJeGILwo8ixhpqFAFmma5xlGaPvSlavPvXh6+OT2j9/QSjtOzXF9rdVqMZuOz8MgzIuMIksrJZRCGDNmOq7vu67pGI7rK5VRSq/cfPErv/mPLzbhw4PxX/zxvzw/PFktFkLwKF44bvX5Fz9z/cbL21dv1ho9x/U9v0pMSyucZNFyMRgPs91770yGp1rrPM/C1ZwX+WhwYjvPVJAfG65RQikviiyN6aVbn7Irlel8dHy8N5kMc55jwiSiQLEiSAEAI061Voe16WwUzscI4SLPMGPVWsv1Kovp+Pjw8WwyrDXa58f7q8WMR7Eq8mvXP3X15ksA8MGH49/7l//i8MlulCemaXmVmh/ESqkoywAASSCECOAlYF56zpWHg9a/FCEYRSTLQterEky41MyyBDI4MgtgXGEuZMa5VooxwhiREiqVVr255vpKQ7haTCzL6PQ3TLpSGRWytFGxHOkCzpqNWrvVyrJkEUxqnd761s72tVumaYlCS1Baq1wUeSENjJxKFVFDhkmappZtU4NR2yUkKPtjgDjDRIkMY4IwxkppjTHChBBK6HIyGhw+XV+71O1vPv/Cr6z1t46fPj4/OYiT9NlNWUqQHAAYRkCY6bmWVem0tzZ3dhrNzipYnp/c3d97FIZLy/Fanc1lsKSUOaaDMGPMrFUrVMssS4o0UUIywijFAIAUDE8O/Wql3VkjWKVJjEAaFAPIte0tk3nD86MiT/sb2xvbO2ubO0/3HioFZT3X6LQbnfZkMFjOF0UGvBCl0RMzDMu2Hc83LKa4oIy2exuvfu4rn355SwGMBie1WlN3YX3tQn/jgmdZ9Uaz/oWvOK7f7m3wnMdJOB2fn50cHO7tPt69f7T/0WI6rtY7YbDsrW/btssMkxmGYXpSAiFEK6UVwuWJh5AUWZbmtO5VLcOTmHfa7XjngutYcRTzIo/CeLWYTMfnYbAUIpNcZWkSJWEmeBTHlu/7lVqj2x8PT4PFbHi6f7R3v0iSaBEUFAxCL1y+dvPlHQB46VbnjQtX9p98xHlRiCLMwsV8RA3rY+tSqbRSKlcqB6mRLuufv8ZHfuFrgFKWJhHGDBNDS0SQAZClafyM/UIMxkzDcbTIeVFwlUvNLdtwXLaYz2bz6dbWTqu7JjO54hFowIRbTCCLUWR7brXi1472Hy6mo2a7t751OYnDvd2HeVoQ01os5n6luXGBALaSYKUxYdTyG535akYxNQgV2EAYEUAYE8ZMhfSzzq+QQigCCCtACElJDg+PFPrh5oWra1s7Jc54/danp+PzKFhOx+eL+SLPEoyJ7biWZbY31svwT0Lt0fn58cnh0dOD+XyacrDcZrWhUi4VIMewEDEIUtV6iydJlhVSYcYc23ds0waiDWoUoqh4NWoYYRBiCo7rCy0IyNc+98WrN156+/t/+YPv/NF0eHTjhddefOVzrucuJpP5dCw0mI12o9Wt1pvz8eT06UmaxHkiAUmKgFGNKVCEtBKWU+1vXLh49ZYDcDSDIudf/No/7PavmKYFAEkchsFqMRs//PD908Mni/lktVhOx+fT6SiO4jxNMp7xIj88OiEYbN9P84Qxs1pplFOfMUMqqbTWWmFKAMoat6CY55gQ36v0X3rtxedfHk+Gx093B2dnx093peJFsWKMWK47Hp0OBmdHJydHB/sA4DgeNq12d31961ISzI/27sTzUZ7rim8AQJ4XzY0yuw0A4D//r/7L4fD8rTf+tNbqLpYTpeRseg6Magm64DLnIDnBwCgl2NSKPwNNfn7e/22+QFrxsmoq61SttJJCaU1+HjcodcYAOM24bTfznBNiIoQogWtbN1qdtVUwr1WqcbSaZomSEhkepcrzQEI2HB1UGzf7a5fCaLJYButrF/rrV+IgzuNwNp5OB2e8YF7lQqPeFjEP51PPca++8FoShx/duzsanI9Ho876xfFgZFj+zZufwYZ9fLA3HpwIJRGiQCnVkisVzGdZljBENMhoNSeAHNenFCukDNtyXN80La3k+XiWch7lejwP9o/3m41Ws9F0PU9T3ei32/12sJpFizkiyvWrru1X/TaXsJjOj04+ODg8GE1Gi9UySGJE3XrHFopgYL7rM2aCUp7nZ1meZVlRCGCGbTiW6zDCuMqFAqAkF7mKLOtD4gAAIABJREFUVyZm2DQNE1W92muf//Lrr73kAez81ld/87e++q9+93f/5P/4ny5deykMY0It27bjKE3DkFKr0VirV7v93oXh2cHp8WGehl7FrNVd02JYSq9SW9u88Pkvfu3zz/cwgFuFVv+KkPLeo4dRsJhPx6vlNF5OJucnx093p+dnYbgocsELIbUmzGLU0sQhpuO7KsvD08HR5oWrFdfPeSryglLmeP5sMGz1Nwgmq2CCGMugyCCny+FJtd6seX696tpWtdFotBrt+eXZpavXp5Mhs6yz490kXh4fP3784L39g4cmNfM0UaDtSrXe6lY8/7XPfqnTrP3FH//eyeGTxaJQEgwDymjRchyfpGenhxoBZQwwMS0HMI6zCAgGWvpeUcjL2azQvzcQXJYNP3t1LteS0gojDEA0IqAAyva71CBzLbJqtVLyuDEhlFg555ZT6W1smAazTcaLAlOipE7CXElorq/11lkeLj3XrVadWq3bbK9PTk/u3nn76guf0gCm5Z6fHCwnI4xwq7uhJGxdvMZMt1ppr4JFspwsxqeWadmuH8ZZnoWYGEKkKs+jIjUMw3JcXXCtRRKlSRY1/HZjo12pNvIi2X/4Tpq3NbU1tTKtojAejU9NxuqtVsWzKn7Nr9Rana5lUqU1z7Kzo73VPDw+PT4dnCyCKMiKRbBaBAHQ1WgyBS1MagCA5NwiiALO0zRLioxLBCwXRTp/5s7b39g0TMty67ZrAYDSQgJBGG9ubn3iMlIB2N65tnP5ppJS5FmaZFqDAkKphTACIJgx14N2b4MZZhyuhOBZmsThihcFP9nzG7U4ze49FUmc7D746dnRYcqz3ccPz86fHu4+GA9PFAeTgWMZBjOKPKPUsu0KYJblRZInKgNEAWlgtuVUqlqpLEtMw3C9qmFahDLXq2qlgigUWnmua/FME0Tr9YZp25wny/kwtWJiGI1mq9XrPv/y585ODwanh0WyOg/nk9FJtJqlwSIHlKe60VoZhFQ8/+LO1uXLW+Trv3X9xovv/+TNOz998+DgURTGafLXpPm9jz4cD4eG6QIQIZQUguccAUGYEQMACEismQAulf7/L4hRP9MpKo+LT1xV4GfaShphCYBAa60QPJPeC8ErrjtfTYXIHNfnVIbTIWGW4/prvbV4OZ1PBhvbF7e2r8fh7NGH79579w2TmjdeeHVta8cyrOHR0eT01LScnWs3TcshlGVZ2ulv8lyOJ6M8KY5P9oPFiAvVbKzV2t0bt25tXFhfTRfD8SBJljKUBrVNxzRMpiHjRaJkAUJoMEGpql9f37m0vnO5SJLx6GQZBApJIKTII3dRtW3LZowxBE8e+r7bafX7a+ud/pryvCQKF/PJvZ++TZDBlcamTW2hsixKwvlyjLBZ5Fmr3et21ikBLaRhGgih5XJaFAUAWI6rpEyCMMtWAICoyWzLcGxEGC8KrTWhpu2154tgloFjwekojoKg0dj40ld+J4zjd3/4xipalZlDADSOQ14sCTGrtU6FOohZQI3p+Hy5nGdRrJR0XH86m/zln/7B//Ov/ufj/f0onmuJFfAgXkngBHCr7jLCMEJaa+DCbzSqtVa9taaADAfnp6dHeZFRw+B5RphTGttUqg3X8ykiSsokXjKDAEguEmwYUvAiT23Pp9VKjRjMoCZPsyyONKKGaVHTsmzXsSzf97M8IdRyXNcxrE67+fjhXWEJ33KKLORZ6LrQwAAAv/MPfuv1X/3Gw3u373/w0w/e+X611pgraGAYF3D/vR9naeJWahgxw3TSNE3TzPJ8pZUSoDRSumy3MYrw3zX65d/CyBBGoPAnf9clvexvXDCl6atWSkrBeRKHRIHr+hoghIjzvJgPR6e11z//9cPH94+efricjDd3ti1GkyAukvBw9OBkf9d3q6Zlm8QqyxXPaeZx1OyttVr9zsb24wfvv/3Dv2peWr/x4stnh08PnjwYnT5aTg79WtNvtFyzjaho9jZmwTSYzvIsJtRgjIHUBc9MSrMssU2nt7598fJNr1I/Gg1GgwNCSJrn48H5cj6xbc/33Wq15rh+1fdRVBTZ6WB4blIDYZwlqyhYdvubtfamWak782mw/2gVr8I0lKApQL3Vvf78K93OxnR4VKSJbTtcSIQ0MwzL9izbLkm7luN6XtWv1AzTQojxQqZpRik1rVqtvvbwgztHe0+E4OPBCS9Ef3unWu3GSWr6FZxEUiOGsNSQp0kUrQg2x5NpIYo4XC0nw9VyniYhBqCULeNh9u5Pnjx8EIcrzgvLsqWUURQwCwhFpu06nld3a369Wq3Ubcfrdzf9RrfRWkuy6P3b74ThdJrFDAOmluQcFbJWabS7awAQLeZpEqfJitkWsQxsGFLJs8FRksYvXrlBp+cnzV631ew61ZqUMorCJAqjZBXMJ3mRc14w02jUG161sbV1cXbt5sbWZc4TkFqm8WTwVKTPPfOaAOhVSe8Ln3n9C5+59+XfEBKQhIOp/MH3vv3Buz+UAhhzCDFq9Z4SsFyESiMlQeYyTwvBOQAYxKSU8qL4Oy2Af3f8bPWvsCqV9f/WeHYsIESekXjlajGtt7oMwWIxz7MEQBZ5Mj45fPTBbdMgNrNWkxHFam1ts9/bbHdeOX76MJhNJ6MztFCXrty6cuMWY+Z0MjYcf/vSjWarJ5XM07jTbv/2f/LPXrq+vhRw+533fvi9b/70h9/Zf3SfDsx2u+843lr/UidZHxwfH+7fi6OAMmRRhyBqO16wWgJI27EIxVEwDaMZAABCBZdpGmkARheu7fqVpeu4zUbLsAwKuCgipKDWaHd7G/0LW8+9+GkgeDYfHQ8OHz28c3J2knIJzNBabmxdun7rFYbJcnauhUmZlaRLZhilDYbWSsecUHDddru3YRguoyYl/y9tb/Zkx3XmiX1nP5l58+61VwGFwkIA3ESKlEQtrWUkj+V2e2ba9jgU44mOsP3iB/tP8Lv/AdvhsB8cHjscM56esKY96k2t1kpJpLgDBAiggELtdfebNzPPybP5IQskxaY6PG36PFUVUHlPZX7n5Pm+77dwGwxBBiMGgYSAl9efKvIpxb7dvzCbjGbj+XySDUYns/F0Mp4opavYBIDFYlbkGWb2+Oio1KYsFkZl3gCTMaecMuqng8V8ms+nmECcNOI0Fkx2u63uSk8IljZazXZzpbe6vHZhbW2j2eourV6M4iSO28PhSTGf33v3F5PjY2+UlKkDGkVRs9kmgLL5FMCtrK1NZlwVualKY8tsPplMBhuXrv39f/A9CtgFZ4PTyBkKwBmCOGKOFnmGwWAwGDHwioCOJSG99spXvq5UOT45UjrLJ6MyzyFJPh5bHOClZ6/VXx8txm//6ifHB/sBUaW0Mc5htFjkqtDYeuecVarSJhiHCWHi71LwqXPfj3/78YtgAI8/0UTDIYAHjBEjBGMKH8LskkYLAEaDk6pYSMYpwoDs3bd/fWH7qjMhWC+QjHgjEkna7L38xe/0l1ey6ej9d35tSsWFFEIiEoyp1GJxavb3dt/PZuPf++Z3P3d9AwDaFL7zlc9/7Sufv3vvP3/7tZ/cuf3W7r33H3xwdzQZxs2VtBWtb108Pd4v8tzanBCiVdHqNDc3rq5v7QBA3WQ01gDBAEAAgrfek8UiL0qF0XDv0W6StiImAbskased9fbSla3tC8Msm80Hu7t37t19bzyb1kpktqpMcDWJL5tn3lmEkam0qfRsMW1224wL7ywAtLtLvf5Gf3l9NhmF4AEIYyxIbK2Zjsch4Lu33l6MTms4WlksKq1McEplmJJsPi0LRQipqipbDHVRecKKQmvjXFUAQH3jjcrLRbWxuWGtAWfq00ujlW5uXFpd39q8uN3pdjc2t1fW1tNGhxJkrfGuwoF4BBiZJIm77WaSJJwCoGB03u6uLvXXIxFXWhFCrl5/8bmXvvrLn/3p7oN3c5Vrrcoib/f7r3z9u3/w73+LdltthiEbn2bzEUKIcMZozDlDcYxwoAS4kDR4NZ8657yzje4ysihNJCfGFNPjh+/10i82ok+PTufceHg2HY4dJtkiJ5hU4PYf3bMeAkYhBLA189ZTQN56h//ujOCP62d9eP75xP/x4bcoZ5iQJwqkKG2mzU4TAJqTblksvPeOYBGlq2tbgorh+NHo9FBSxikRgl6N21tbl4I3isyWltbLIs+m44Pp2fHxAZPtoijane54cLK5vfONb37l4xOQAM9fvbC59b2bz79w573X33nnzV+9+vp0MnXOtdstwcnR/u5iXjIKsUw+/8o3bj73JaWKu7feOD58MJsPtFbAJMJQo+u9B3DWWVN5m0RNY4jR2pqqYN66e6NBLptS2RFgb63JlRLNFOKY5EVeZL7y8/ngg1uvYQ8EGMG0XCxCCGUxixrcVEUIPk7idnep0ewj4hFGlVaVNghRa01ZLiajwdnx4ejkoNJKaxVCIBQIpUJEIuLT4yNT6VIvtCpUWVQ6N8Y5AOMQBEIoMCYiyQghBOLgTRqJlbUrl6/dXN+62ErbMuaSxzKKG50mwZhzDkapfMwIIIRCCEWhtVYibWNKk2aj3e3GKTcWKEnW1y4u9zeddt7p3tLq2uZ2u7vEGA0hEMqiJKJs5dLNZ178wteaAFSpwjkXfGCcI8aCDsE6qNB8Nim14pTGUnJKXFBgPUJQTE+tNRSBTBKjsnu3flNl87XN7c2LV6Lok5C16Xgwm05Pj4+01UzIJG2VrlpkeZI288UcEKC64hkghOAcIGNq2sTfeRnAE2G5EPx5PvBbMAp6vjDwudxQzVFCGKfNThKnlLKV1dxpXWlVesMoPj54kFx5emNjp9frY0LOjo8poeZ5t/fg7snRo+B0o5ku5pP33vxlWS5Wty6Njh4v8rzf+72V9YubG1ufSGhORqNXf/Hnd955a3l960tf/+4/+E/+6E/+5C/+z//9f/71j//cmCJOUi4YF6rZ6l6/+eI3/v4fXrp682c//P6Du+8eHzwSQsbN5myehfqvQ5gQgjHBnCCPcl0RVfmAKCKEsWmmzoa383xgsetvNDu9lYCJqkylFWAcJ2kQkM0n+WzSanQuXrwegs9thTHp9lba3b6IIlNVQiRJo+WdPRscJ0k3K/IiL5x1NbfJVh4AMA5x0jLGDM8OrTHWK1NphAJljFJkrSnKhbeAKFAC2EMshYyiRivtdJf63ZX+8mp/aa2VplzIVqvZaKZSiDhJ4yQFa4s8o5g6ML5SFjlGAFFZ9+WSfn+eTTkXNEm7/V6z3WKcm6pc395Zv7Aj42QyPAVwndX10eBk+JMfjManZZElnU7aTKjgN597udvp7maBMiaiOCEUnK+gqhBlWhlVFqPBCaYkidOSU4oxlSwSMiAMQIpCLRaz4CpCQGezfDLeu//O+tZOf/Xi5sVrgEnSjiQGBfDD7//zB3ffwRgZYzF1xaLIdUkpBQDMZAge7IetrnNCHfodpODfhfu3waDaRwmj4IMDhxBGBJJGazGfVrrEhNYGUAgjxrg3BiEMwTlvEZZSRjKKCUIUkCrmSaPJOAHsrFWVzk1RTFVYW9p4+av/TpTI99/81cn+7oDQN3750267ffXpZ+Ok8f47r96/e7vZ7b38zHcuXHmuLM0Hd9/jcXT52s2nn7n5idmu9nr/6A++B3/wvZ+//nMh4xTgpS988y//zb+8dv25RZk1Gs2V1fV3X3+VUwIAe7t3To72br31K1XktefadDxBGAUMGAvAyAH4cxkljDD1HjBhCHBVOesUIUS2eg7mDrA2hkmetHuRc1VRlsWi0UoZp81Gr9vu12YOptLWqqglGSUU40AQAqfLmS5NNhkYpYpF6bzlrME4qYrFdHQ0m4w6vRVrTaUL5xwKHowLla2MKs4lJwALaDejpNPqtVfjNI4Z6y2tLq1udnq9Xm+l11tK0ibHWEZxcNpUlbfKu4WZLzBgTqBSDnGGETGqsGUhpYiTVMgYIZ+kTV1UptKd3kp/ZTlpNJK0v7m1k0+zwcmhd5Yn8uDRvcO9u8YbKihjPFTWeNi5+kyrmb71y7/8zS9/QIWQtQAGQAUA4L2qdFnk2WwsZMwZd1qXxZxoUgAAgIybulrU0S8YI4Q4q8rC33v/rcNHjw73djGPW93V6y+8+Hj38fDsqE5qGaNR3IjiJq2UMRWixIZz6c8PGUIhhFq27DMZtbSB8xZ/WAz12DiHEAaCgiMUAaKEUkYwwgQQCeOzo4f3b58dPx4Pz4zznAsW8agVnxzv/vSH/7LZ6lZlIWXS6a90u+sXLl8+Ozt79MFfHJ/sbW3ufOs/+Mdf+/Ln64/+xevXs2zkvCu1TSX91Ol9+aWvPDo9cwD3br+u8zxOIkKRjNK42drcvpo2O5VWv3n1h7PJaDQY1MK9CGOKwMH5nxMcIIQ9nJPKg8cBwHvncCABwNXVtOAQ4Y4E4OepjgsyTtJ2J1SGESapwKg+VTtMKCcSuRCCj7hMm21OBOKUoazSqc4zaw1ywaAMLJRq7k2FCd794E0PUFspEQAhebOTJvGqqYo4SZuddrvbbba77W631e41kvjmzRcaccSY8N55V/Mnc6MNBR2CQy6As/g8GHTwVMSxBwLOAwCi1CNYZLPxZAAAXCSEx0mcxO320tql3ur6fLI4PHhUaW9MSQRv0TaLIowgeHNyuJ8tRv3l9U63Mzx+qPLh2fG+UgVlcQqoliDkta9RrXLhnKOMRkksYkkQeGecNd6Bq7xWBXKBJVJyiRDyNmhbAcDpdH84OnVAk2ZvtsgW07kxYWNrR8jxJBtjTBgjggqkcEDABEMWfPDeOwjEf0Z4z48WAKNcyCdrzAGAdxbAEMoBYUAeYUQpI5QRQjDCRZ4Fb6piZnWOguGUR1Iyzqu8mA6OxqPDja2rSyubaxcuXbr27OXrz81n44PHew8f7GKOti7fvPnC5z/86KS7cjrY1ypbma0vt3qfOj0EsHv37jtvvHHr1q35eFBD+ENlOOVrGxfTtG1suHvrNyeHBxAIl6lShdYKCEUAAWjtc1M7WD5pnbhz9REPPpCAMAk4eO+9xgQiaZOEIYSNc5SgmMcemXqP8M5ZXVVaYcJjGUUJ45wgcBhccEbNF1VZUByQEAhjU6qymM3Ho+HoOJ9ObQiNSDIhhWAII4Ihihvtfq+ddi9evtpsd7v9XqPZ4ZQzThgXUnBbjCyOkDunPTDKADMPYFSJUM0KoU9yOR4QLktDYk6F9N4AQMAYgQ8+UMoCFRZwXhZFoYBLGqVqMJ2OTiptAFzcaieNxBpDCBhn4yQdDvarohhb/fDOW0kj3di4uLNznRJKaxU0gjEmJJjKVK7SinEeRY0aBQ0AyDkAQOBn05E1RhAmYk4ox+gcYddsdx1AqU1VKe3GbG+XELq2ud3qXzg8OH748P3R8LTSqgrGmuBCLfvs/Xme6jBiqHaD/IzMYOoOQG1zDefnIhzwk7dBCPUZmmGCCUXYmsowToSMGRPBe2/z3FQAEIJpdZdWNi6urG4vrWyurG0vrW4hTA72difTsQtIiAQIKwrXi84P/Nqao8P999/+6ff/t/9+dXWp3WkS7y5fe+apZ1566umnP5zhlZtf/PEPv7/3we35bEwwsdZQLGMRs74kWDx489XRYOAsyEggjLwDjIWIkqLMQ0DwxOvpPPQBAAjgAB4BQEAOwDkPAAEAdKl1XqJ2L27ElQNrlVEqihNGKEbYWqOUctbEUSTT9OKFi1UxLctFMR5rVaiyRJgKETFKwUHADkzhdAZVGQnChWyvrLXavZW1rd7SUqfdT9N2o51GIk4aSRwlUdQA7Ks8V2URnLVaUQTgrbehPvr6WpfPOyZqL1nsAPC5nhz1QObllFhXFcV4fGKMbrZanf6ylPE8m2l9OplPZ/liOpk+2r13OhqMJ2MaZGUMZoAIQZR6MNZ67zQmZD4bN9O01VplvaUr1579xrf+4edf+RZ1DoypXREwBGycqaw23hPGiOAIiKucB4ef6JXn2SyEEGQU11xGyihgTHxeLMATKaWMmA1Q5CVhNOl0GyQBxAqdqSo34zIY67xRWgWMnHcheACPEEbIEwKYkPAZScNprWoNjxp4WKs7OSAhhOABggfACOFz+oEPnMvgjbcaY+h2+5ixSuv5dLy0urm1fbXXXwcgAYODcHK8f+fWGyeHe4iz7tK6bKWz6eJnf/2XsYgLq959580sz4vpoFyMQ7EIaP2lL377yrWnNy+sfWKGF/v88tWXfv7Dv0iTlveIxKTR7kdxGhbFcHByenzkTRBCOgfeGQQEA5hKf+jhWrcy6h0kBI+ABPAOYwALPsCTgpgUUpdlMZ/n6VQKJhhnBACcZBQDArDOBWONdw4xyoVMogRZVZWFNkYXZaUzzhMshMqmPgSCbbfbarfTK+SpZrvTavcbnW6cRO3uUm9prdXsMkEBAFxYzKcUOasza40ucmM0QphS1Or3GBMAcH46Jcw5F4BgmRgHVWUqUxmjrDXWBQCoLCrG08HB3snxLkKov7wyGo098nfefWMynU6mw9kiywtlXciVKpRqCA4EM8GjRko5dwA+BI9heLy/vn7pv/iv/5t/+p/9UftjT4HWNj4AgJBw1pS5qpT1ziWNrhASE+pDCOAB4RB8LW+NiSCEECoRsLrYQqkosoKImIkEc2k9LBb5bHhmjANEjLUyiuIkLYuFIyh4pLQ6N6tDGBOgiFJGPlvUpzG6Du56IIQxISEgew4aDgBQWxcTQhDYKGokaXK580y7u7SxtdNots9OjnfvvWNMgQmdDIanx4dx0rbG5PPi/v33llYvJlSwRoqB7O8/evOtX+zdv733+L7DLG33N9Y2rt+4udRtX7/+zDe+/e3fNcnj/cP+8lYIXmsDAN76k8O94dnZow/uzuYz711ZauMtozJOUu+gLBY0YoDxh3XeupPtHAA4BICQDSEAgdpZnACriooQzjCrcjVH4yThjAtCCMEkeO+9M0bVem/OWedgcLSPwCAARlkkueBtjAklgCKBkZdxp7u01O4utTr9bm8lbXUa7dQa67wNPoRQ6NypsvBGJ40WCuBtBVYxDDxmDEvEwFrnwGCEfAiYEgy4CqCcLRdKVU6rIi+KxWKeF6rSylrDGOeEIRFtXX22112RaTQ43H+0e/vOrbf39/emi9IBeAxxsy1ESoSvbMAYmJQ8SbAQ3mnvPeWs0Ww/dfPmK1/9dvu3HwE13ttzpwRrqmpRZLlaGGcbaVPGLSq4dw48YEJ0VRZ5ZpyRPJZxS8qIEOIchOAJACHcB5/Np0AYj9PzHpeuZpMJ48IaZa3yvsIoME5kxLU32GOCiQ+eIIwwIASAA3xGuYB3jlIGHofgnXOEQAjIOUCEgMeAfS3vVPP3scdJ2nzhC1/94le/vXN1tYaxBoCDsTrcv/fo0e13XnttOh8rrR7v35+N56fHx43mSlGok+MjYwtnjXZKF4VMWtpjjwnh8srTX3jq8uWI0aPTUgo2Pjk6O94fTzISRY3Wmtb2dHD29ms/sVaBAVMUqlKjs7NsnhnrlSryxRwBJZQxLgmNEKKMM0Jp5VRNKUQIAQRnjQYfAjhnARwKAQF4BFDfT+d8cFtr1zcvbHtvs/nQakUxRYQE56w1RlutymKhnXcBE4KCaCedNGVSUsAMAaEME2+tETIG8GkzXdu8tLy21UhbXFIgVBWT8GQZAgDDpJkmjLQxJuCdswZ5BoCcM944U5mo3QdCTVVppZUqK13O5/PpdBYwtR4Z67Qxi0Jl2bTIM6MUR7B9+erG1k6SpolMiKDOhsKYC9PpcJZNi0MpJIqiRmuJioZ147AoBBdJo5ukLcZIbosAnhCWZ/OLOzeuXdv4MELOjheVLj/aI4MDY7RSWmvlXUDAauyk9wY8+GBUkc8mI/CBURQxFosYE2KqyloTaMiKhS6r0WgAhKxuXZGNdrPV9QEGJ8cOoOZbzrMpEEKYJJGkNdfUE+KfZHEevLOf4XugJtTCucsYAgfeASPMYQ8BEMIUA2WMIQBMup3ujWdfvHl19aNfB9jqyq3us9s7OzFN0qRz7+6dh/fvnx6fFMr96Id/0uz0arU8Y8uymGlVaFtFyaoqZmM5iuJ0Ze3C2fEHr/74X31w63Xv3MnBPhVRo7OeL0zcXnn7tV/FaVPpaVlkKs+sykcnp9aqC5ee2t58fml9C1FBRTRf5Lt37927+062GHEmcSwxwfW6rTlD2FGP3PnRrh4YgvsIVHVp5+bLX/1mWWb3br8+Gh5SDAhTo22ltVKFLssyLypbWWOIyZ66+MVet824mE9DpUFEkmCidOa9A3CYApcsSiRiKC9ybfK02eZcUsasMcZUYC0mhAphytJ5h3wgmGNMXMCqmi1UPnpwN2AWvNfWOWONs7N5Nl9ks9EEuGA8toiYyhWLYpZlRmUNkdSiG4f79wcnh61O+9KVm9eefq6y1cOH75+NThjnLGpEcQNRiYknkkkhG2kSxTJ4A94ga4jHX3jlq2nMf/5Xf91K0meee7EZoeW1BkCDhnNyGg8hlEU+n42xw51OlwuJzyUJCGDwvlK6KotFzKN+s9PtdhE4V1WMMUyIMY5gMZscZdk0ajRVvuBCdtMmjhsOwXyeLVTmENA4xYIba/Q8i5N28MFb63XljAcAjIARZv2/HRaoViH+eA3JWg/WRzGP4ialzDuotAGgmFAGzlcGQmAUIs4ERtR7hiCSstNKW4n81I9YTZNvfuP3W8216Si7/8Fuof1kluUWV7N8qh0mgILzTmNkMZb5vKIYlQvz3muv7mxfvPnc5/cfwXDwgdKLFy6+zFhaWfAhyQq3tLrx61//taU+WJUKJpFvS4h4/PVXXvj3/vCPtm88117pGA/HJ+pf/LP/6X/97/YP89wbFSqiHbYOhCCMy4DAWHBOMSZr8VqoKZWEIIchQMKYqbLB0V6pi2yelUoTwJhDuRgwLggBhJH1uS0yjw2ywajPep/BAAAgAElEQVQxONZpd9c3egSwMWoyHowHY2VVWeYBdJEvabOOhOBxnLA248JaU1UOAHOZMkIBqAveYlSqvNIKgg0+FHmmc1U5NZ2f1Ya8AJA02p3u0srS+sWLTWtMad3Z8f6du+8cH+wbbwBT563yw2Gn+/v/8J9cf3bjr/70r955/ccEGxnLOJKrq+snh48raxpCgtX5fEYgxEncaXav3LxhdTGf5zy46Xi/H2//x//R91565euuyEenuwlzdUsUAGiatvIy86Yy3iCE4yQmnsgo6fZWAMA6VRv9GmOC9yKKBRFMUIIJIAzgAoB3UDmjtSpUXiwyKs7DCFOIOa8bN3X1HROCESaYUiFKXaIA4LwPDp+7lnyWOUAtuli71dc/CT445ziV3huCgBGQTMSRbLZbScR7nS5FvzP/Pt3fP3m8Ozk7KYsFABDBqbGBMAfBB4/BA8EYcwSk0eiRgIPDj3bvv/HLH0XSXth5auepa9l8cv/9t48eH6bdjZW1G8NRvnv/HqLEBWOdNpXpd3vrG6sX19e++fVvfeHLrwDnAMAxbK3L5W6bYQuhCoAgBADAGPngTVW72QeCuTUGgCCAcG74QhEhlEIiYr2YHu7vmqqqtGI8Dt5XusJEAEKYMCCKAniOIkmShHMGIuZRxCIhkyTmQjYakmI7X2QADgE2RplKS0iZTLiQOp9jQjDhwYdKm8IWdZHKaDufjsfDwWQ8KLIiBJ8222mru37xmrXaWwMAHEdcSCESTEiIJFNVnsTL/RXOmXGmKPLFbKzneTCVFHyJwedefCXPBoB8VWSNZtpopc00raylBJlKIesYJq1meuXm07GUewf3MThBXCrja9dvfPc73wEAaPDV5c9//MnSF1/+vcHg8fD4ZLEYU/CCeYxEnEae+DoLwQg7gKIsSm2AYJkkjEYYYQ+AMAsAIXhbeVMZrSsIhLGIEJFni2yWYTkJhNQMa2uNqTQGb51zlTHGAgDygDHGT7TkPxW5+Xcb3rmyzDFCtbAHRqhuCBBBADwmQCnlkseNuNluNxLuvc4X80VWNtJPAps+eP/en//f/+qt1395+9at8dmJ85gDEc3UQHDBOecBHGDnvEOAhWBp0pWRn44Hv/rFD60rvv3d33/u2ecIS2fTXz1+tLe2JZvtYjw8HY9OTVV4bCgKnJONtbUvvvilp2889dLLX62jvx4CoN1dqisnnMeV9wDE+wDWGB+8c85bTIjXqs7pg8e1hjOlTArWavUqrY4P74cQKIujOLHBVVpxITEBSoh3jHNJGUpb3e7SUpJ2G40WYxwTkqTN5dXNtJkao43fUyq2xtf7SJ1ZGVPVyhHeVYvFbDKsTVW0d45RWXfo4yQK3htTMU6jRHZ7y5hgSggAuMo4a8F6Bw4FsFVhy4xBWOr2ZZIUqhgPz2ZnA/Dl/v1bWxe+UWbjOI4BgHFetwUY50AYYFzpHIA1Gs1Wp9dMO9lsuMjm/X7PE7f21LP/6J/8V78rTugXf+8rZ8eXD/YenB0/Ho/OZvOBd8A4DwjXN5ELqcui1OV8NnZarS1vUME9ggAkgPOYOgAPIS8y571IkvbSSqPVzctsNjytJsO0v6KyrMgzledalWArAKgVJAEA1VTXWmze+eD9ZyUNGoI3la6f03kJ6LxiGDDGDGNGGKWMIEIB4wDGVFzI2h/7t64DcOvWe/fv3lZab1++dvHyDVO5PF9kRZnrolB5qYvKGu+wceCs17boJ+v9pa5Sw6PDo/mfff/seP/1p58XFL31+k+PHu8dHI7u3Lp3cnz64MH7zirKSZKmS81kc3Prxo3nrlzeFpJ9Yg5J2uJCUkSZkGWZg8MIYWOsM8Z5R+pWxhMYrA+mthSQUdRoNJK0hYJxznjngAHCmCIsophSBLVZC0JcSEpYt9Nrd5fiJGUsttZVetpqtYSMG812FDUQwowiAIwAglVVUVTaBG9qlq2pqrJYFHmhdWkq650llLWa3f7KepyklVZ5NkOYRZHkQlDKGGPO2coFYyoIjiDEhVxkxunC6BlDsiHb7c5Kp9U4I4Qisn//7V8EhQhwwhjjuqpODx7NhoNKqwDCewcOi0i2W/2Vta3Z5HQ2HtQkUmDw4pf+3pdfeu53LoBEwqVLq+sbq5PJ06fH+8eHu5PxyBjtEBQ5r2wFALZwldWVrbxzVDQQ4QGICQCIoEADssb76WxmA8RxKuNW0u7RRoqY1FotVKFUUWkVvMeEEMYpY0LGxaLwziHnCSEI0LnbgneYfGYHIWdN7ehTNwEAe0yIcwYhRBjDmCCEvXdalxCge/2ZnZ2bQn4Si/Hab27duXt7Mp22u0tra1tR3JiPh0f7u2VZzVU2mZNSydLpqjKFqkqttc60zwLpRkl7MR/t7x8cHZ386mc/abfbWT6vtHp8fOosVFrZACJmhEC/225LKSiOBWEA1XzMeysfR4UkrZSncaDBGB28B2dtzeOxxgcHmCEARinUBlAAAIgzkSRpK20BslJwSdNKK21sschYJKWMrS6sq4LVLlSEEBnxOEnjKKkFpBZVUekiSWKtCoxxFCeCCsWEsSpfzMajU2U1ozFGOMsm1qngcBQny0sryc41xiI4V0JnQkhMiKkkZxQDZTHHNfwWXPAWwEpKMGOUseB9O0318pK3hQMTcUibMWqkYZ4tLa2vbG40Y5m0u3GzeXKyf+/ddx/v3p2OB6aqAOFAPCYkTtIkbTXTzunhLiYkTpJsPl3fXH/xS9/4W4LkPBUQHFZX2qsr7Wc+9+zx8WA2HX3wwXuMi0U+KxZZQNBotrmQGHAUJZgxC8g7C4Eg6itrVaWMs5ixgGA6H2MRRVFDRjEibFHqeuvljCHMmJRR3ECcDfSBgcoGgwDoeeXnM3ZHqqO/xnvWxnuEEO8cIQBACaEUkxpb6wN02n2ZfDL6A0BRaMIki5JKq2w6osFQVwhkEDfGWE09Ep5BnBOtbBVUqFw5HJ1g5JIkBSQxbRR5VhTj0SjDFLxzlVUIYdGQgnIAF8e8k8bEmXI2rIq5q1Sw+CNLRwAAqKV4ojhZ6AphHGrlw5rTA6hWL6x1vMH7ukBUI8a4kFUx5YJFQiKMlJ6XehEwUIqsU2Uxc7pixLNIxDIWnGFMnTVKFd4aUxX5Ip9Px3ESx0naaLaN0WWp8snAOdd1rrckRZyImGtV2CpEcdLpr7TaPUpZCMFa/6S/FChFjNMQkA+BU+Yw4FoWBVPglGLCCT4+eBglcmN9tdGQ1ldxo5mkLUJIk4vN7au9pVUiRNJqG+ce3b+9/+j96WjoPTAeWRNQAJGkSZRSis5O9ozRlBIUTD6bNm8+f3Hnxt8SJPT+nVuNtNlfXqfsXEpuc21pc22JSqm1mkwGp8f70+m4Vy5pb0IVeECcNQCgMlXwEJxXqlRFboyOkjahcjaZ6tI1ez2CSVZmXKaIEoQRRjh4F6zzlWGEEIwt1Gp+QIlHCAPB4D+77d+di21hhJx3dXuB4I86zQh7SrGUIkkTyTEmn4LDm8zKV3/2l2dno4BgsZgtBgfjiDHkxqPTzQtXgqPgKLNUI+IIIkXunDZB23GpVdZp9SiTNlCAKIRQKBPAOacQ8YITD8RBADCcSiFYmC+qfA5VQZyCioCvarukesRJ0ltaarRbxdmQMWaCC85hBJhiAOyD9854BwghTAilXEZxnCSMk1BXKbyzVllvEPa1YJZznBDivTNGE0xiEaWNdhQllDFrjTIKewghlMViNDhxpgneccqEjLnIlVaVVs4ZLlirmSbtrlZFLZZMKJRqHry31mBgCGMuJOOs1r9xDjAjgF3wHiFMGSUEBeuCMUorRqHT6be67bqWxYQUsUAIhfWdZqtbQ1+tVQf7ex/cfvPo8W6ezTEmXEhrSoRwmqSNOEUhTAbHEReq9LzTipN0OhoMTg82u1u/cwG8/dpPMCGNtLV2YefKjeflk/TrqUvbABDg+oOj44O93cn4bDoeTMcDSWJGuLEG6p679ZXVShVZPouSNhHCqEIbZY3x2OXZPEn75/L/1mil6pvFSoFr1aQapoYDQfDEZeSzeQ+ckx5r7KT3tRowwQQDqq2BsQdCWRzFzbSdxKzOMj8xHtx9J1/Mr9z83PXr32sKXk5Pgs7VfHB6cP/s5EDGUsZJ7nzpKMwX+ULloshnEw8QQqBUEmL0oiwWRQieC+msxghkEjvwqiwcJ42YAQClxCFMkGeEUYKrci7Gp9Df/nAajUaatNqMc+MUj6S35+BwTAjG2BpTH4cwIZSx2u9eyJhgao1hjDvnlC4AgGBSV7e9c4xzhplDgVEWy0baaMRxHDEJwXiPCSaIeKPNdDwG6wgFYzQjJBKRTyymkRSSU8GYqPI8YGBcIIRq5DmijDJCqXDOALiqyq013lkh46iR6kpREBgQRYABjMqVKbTKbzz7Qn95OW12tFZ5kSHs67CpG9zGOExJWRSP7t1+/53XDh4/MtZRmSDEvM0JITUjz1nVTFrOmcV8uraxKbm8f+ft11/98Qs3/tPfuQD+w3/6X07G8/t33j549OjBnds8SS7ffP7aztX6nxHAlfW1K+trOcDe40cn+3v5cJrPpvN5xoXkVJhKc6XiJF1e2WScYALNVgsQc7bCnPeX111ws/l0PDqdz8ZFVnoHabvZWE6t1wwTxHj9YADAOOec4+zTEdH/tgWic0kI7z3GCGP2xMAHYRfCueUHxmg+HTMKKDTjJP2bF9m99/Zscnr9+S//va99DgAAbgIABPi//of/djY82b64Y1k8mE6Ph5OFNQChyKeUQkDEOjeZDTFQFIgNyNrgwEguZMIoQlU1d76IIUGJoJQFD5QyrdXdW7+ZHt/vNFtPMy4/vgCavL+8olVW76nWZhhC3EgppbosPYRIcGtNZSsi5fLyatrsFHmmyoIy5L1dXV2Pm52yyMtcAYBWRTYdM4opY93OUiRIlEguJAlQLjLvLKWs2+slaSIpxRR5ZymNojjJpuM8mwBBlIApsqrI2MpqqYpzN406rcIYIwQY2cpR5IMH770gBDPOuCDIpWlbJo1mo805KabTwfGeWgQmyPrWjow44YTKRtJqZNnAVBUXscqVKjJMBCL44cP333nr54OzUy4TFABjwYJZ2bjYX97CCC8WC3DGO9XudiNGZoPTKG6srW1Nx4OphfbfgKUvLDx+vE8BoNNtvvzlr00ydXa8f3py+MGtd99747WtK9e3tq+tts9FXxKAmxe2b17YvvX+B67yRZ6NR6Ph6dFIFYySdndpfWvHBSjybDgczmcDTOXy6ka720u7S8PR6cO7whpDCIlimTZajLLgPbiA/Wd46vmU8Qk5LRTAO4e99Y5752xVGUNMUWhBGP1k7WU+PlmMR6122+r8ZBxaDVQMp05nk5P9g4O9pN1DWBR5MZtMlCojLlfX1hFng/HAA/IOh8C89dZ4G5x1hjGunfGZoRwQWADiXVDK6dg7CzgQZw0AtNLuytq67K98fCYtDp12T0gJzk0Hx4hySlmlS1NhjHANacaYLvX7zXa3Vh7vL68DgKtKXWU1ntdaU+P+VVloneXzIpaCxQkWCSNMMs4w88EzJrxDSmlMCHBGGQRDlCpHo5Mkbcm4MZ2NK20oIZxyX1WdTr/GFfoQvHPW1rQRYExQyrhoCEFFFEsZcyERl8ZApVW7xSUA9a0Hd8YY+RvPvZy0IgAAD1VVFnlWqFlw2DKPQDAeW+eGg9O9R7tngzMTQhS3KCApU+8AY8w4r4pS5znyJhGME+YwDT7UznSjwckP/vhf/+E//oPpAu7fuX33vd+cHh/ki+lkeDo8O6K5gYQBAHRS2Umvbl+9enxwcvj43sP33927eyttdS5df+7a9oUPH8bTN64BgLZwfHA2WF4ej8eLIqusW2RzpZSpCsZpFEtCJaMYrBNRXGdjMop5Grc6PU5FLV1fXxB7CE8g0J+dD0B9tfPofwKvrR8Mx4FwETHBuGCUUkwAE5w2G5/49ePDR0bnF7e2rt94ermLvIGf/+hPjvfulfl0PhwubzYJ5SLmS+ui4VBeGTE4w0waC8aDM95aXyHrnPYoh2ACkcYUlTPSMc4JJiQYrwtzVp11GmmKIWGCiXRpfWdzext6v7UAMECjlcZpzDhttLpCNACgLBeqLHyd3DhPAPW6y61OX2vljIllIqJ4MR82Oy1KsbUmeON9ZZ2xTtUUME4xJiSKG4lMpIgF5945j7F3ThV5CDYIzgS2iCBwkYgvX3tWyvjB/fce7z1AKAB2qsxqF/h6+2eURDRmnDMuMCZMkDhux2kc8+SjfYhDlXAO4ABOjvbyxWRteWPjwvkZ3QMwETUI9wiKvMjLklGKEMm12tt9dOf2rYP9/SwraUwjmSbNLqdxCD5Yp6opVIpi6PY3+/3lyfDs9PjxdDyIkzSbTyeD4f7+3nh09Oje7Ye776pFKRsRq9W1/vif/7OLOzcuXb3Z7UYJBoFge2t1e2t1+rkvD88OHz+8+8ZPf/DGT2Fr++rTL7zSfsJ+FxS2t5e3t5e1heFoPs/yxw/vDganZT6LJResDYQDuPl8MHx3fHzw0FnTaLZbzaU0aamymOUZWAe1F53/Lfvxz2r8zehHCCNwmFCKg6RciljKKIkbcZLESWN5af0TV5hNhgTDM08//6WXbgIApvDmaz862dvdvHjl6S/9u9l8AoRhRL212Bo9m3qjVLEI1npPvfcIBUwRZcAFM8h7VwRvKCGEMYwYdsZ6jJAbTYa9fo80WgpZbR2lEjCD8QTWOwABggNEFx68M1Ekk2aDcVkpU2lljHbWOmfrQz/jotXpx0lat8CLPKu7ZI3mkjGF1gqe7C+E0IjHooWbadpqdhuNJIo4I5hACBg74wJHzjtT6dIZ7xgVkgqyceHy5oUrXMj5bDwanDhjTKlIs80xxUJEccKFlFLEjTRpNKUULjiEEIVPqWpzgFFe3frNL0Zn+1sbO1duvlD/PAQ4f2iMBCyrUGiLnDfaFEd7e+/e+s2du+8cnwxKrWEyXdu80gqYUhasNa4CFyIukySmiNSO1MZoVRajIjdGMyaOjh977/PFzBjE4zRudBjnmCv6oz/7N/3lt7avXLv21PNbl64sr/c6HACgnZD2pQvbly4c7O4ePd7N56O3Xv3zWCab29e6/XUZPamfUthYaW6sNK9fWTs8K+/eeuP+vVuDk8NSKQQWML3zzuuDwUBrVdNrKGXYBzAuGEvIuZls+Mh97SOD5c9kfDz66y+MqQIyzjsAYFwIGSVps9nqitYngUDZZGDKrN+K628f3rpdFvny1s7OzVeuPve13/z6x9Pp+ODw0fHpfr5YFGU5X0wm83lZIIspRghxRimmNGYRtobNRgPKeSwjyZNgnS09BgiMICKVgaLQ88qMx/NsUVS6wpWi6zsACBACgAaGlY3NnWs3eNxNmqtHe3uD08NKkwKcyRWAS5vpxcs3AMBUGsAaU4xHR6lpN1qps0oVc1UWdVGyhq/LOEmTpSSOW0kqI4IQNpUOFrwD5VzEUoJJCKHSCsA1ZBQnKcN0dHzgsKt0TilzWjEC/d7S5adfwkIwXqNTgT7hdFP06VxQC1D68PDum48evNPpLD31zIvpk9Y7QqAs5Hk5mY+z2dg4gwnjhB0dHr3x2i9++Ysff3D/zqJQxoFz0OypotQYca8rqxfWGs5Is9EsFuP5JO4trV5/9oViUZwc7c3mY8YEUI4ZixptlrSsNYyJELyDih4dHp+enu7v792/c2tlbWtj8+LFS1dX1zdWV5ciARTB9s7O9s4OALz/7mv33nvj4OG9pNHauLBz7bkvcv4xGwuAzeVoc/krTz394q23X3/44PZiMXPAEMJ155wzThF1Wntn4ziZDofknMUEKIAHDwh/3GH8/+P4+LHnYz4DCABTRAgGxrmQUdpsd7rLvaWlv3mF+Wysi+zowXugiqJQe3u7G5tXRKN3Mhjc+Rf/y4N7748ng7Pj/eH4VOsyeLABjAPCEyAxFZwQLAXBDHMsvWN55ikFThHF4D2yDvvgncFUNhZlxS1EgudF6YHwRgfoh6/E825As91s93qFsoTFSdpazKd1QHPO292l1Y2L3f7K2cnBfDbxzgbvyyJnjLe67Ww+zbNxVRnvg6lMbbQYCd5ops04iUTMwDhrtPIOgnUQKANPEJDgna0sgLW2AQCP7t/Ks7knPoobGBDjPElba5uXmq3kb966v2VQgOOD+8Ozo7W1i1evPRsnUQDIFwohVnljjC10mS1mw/GgyAsAwKhx7/Y7r7/2s7ffeX04XmBKeJxiwgExY1yRF1blwSiwGlNBGGtHS4v5BCO0snGx3V1CCLf7K8DIYp4BwjMIYe4rXQEijItIpvTw4HHabFfGz6ez4+Oj4dnR0ePdKJKXLu9sb1+++tRN8QQccOPZl288+zIAHD1+8O4bv7hz+431rZ2bL3y13f6t0/PmctT/ztf6a6sP7r57NhoKwSut8mzOCNO0KOezMs8IpsF7/+SYErwPUNM4anb1Zzk+5jmJwIOkHGNEGKMUcxFFcaPRbLc6n2TulrOz4EOz1Rwd703PDrXxZ8Mxoum9u7fv3L197/49bYz1AGARJkxGziqvAw5gtQvUBARAwRpPMQ3Be2+iKLbWGFMEC8iSEHywpNLeMTLLCiGspkTrap4t8tkcQCcbG4A/eimZMmMEp+3W8cGo0WiZpbX5bFwWebPV6S+vt9r9s5OD6XhgKt1sd6OoYa0JwauytFYpVXgHmFBrlVYZ8sBpG56QhCgCBA4AfPDOBZmkCGPnnffGWRuCLfIFoZCNzxbzIeNCCBknMaWs1e59aunsd4+qAnN0dHj37V8tJrNrT7/Y7i4PT89m0ykAzLMsBB8Y8UAX+ezw+PD48GAxn6qFO9rfe7S/r5Q1DjAgAiRKWkC5dQC2dFox8PTc5QZ67aXR8DDLpnAIiAjnLOEsOBAyRoRYgEWWVVUIATvrrfdUaXN58/LOUzdiEUspG2lSzmcfvH/7eH/v3fbrm5tbO5efunT1mbW1zoc76vqFy+sXLo+Hgwd337315qsXLj219bEsGQAkwM7lq4t5Np2rxSIbDE6Hx4PgkTV+Ojybj6cEoShOwm9nvP9/VoM+Sq9NqKixtQqas8b6T2k7+HJ+drQfiTjeuMIxVmVpnB0OBtP88Fe//HlpIErbxAMQRDElDHmnqnKu9cI7MhjmYJEjFlfWUGGDAuS8dyKKbTbLy5xhy1DiEAZkrfFgsHe2JEgHGM6zOw/vlzrT5eS7z7308Sld2Np56eWvApIsWmp11w8effDH/8f/+Muf/ACwK4rpw4eZVgVCrNXprW5d6i5tOGNGw5PZ5BQRwBgDYEIIQd5ZRTwQZ4JWQXCCOOGUAGYYwOMAhgtJMXHGWF85a7zzszwzzsRJM+FEyrjRWZIyxkywKLbh/62tuYeQm6LI8x/+6fePHx+JKF7aysfTWVnmebYgQmqHJrPpZDzOVZ5l2fHp/snJ42w2OTs8qpTRlWm0OxbNC6WC94QiHMA5B84E55BgBDPMKWA2m2cB0yiKrYfR8KhYZB6DqTQTcdpfkiJtdVejpIcw9t4rVdBGp0M4ozyWSdvY4vHB/nQ8yCez0qPTaf7o6PS9u4/Wt+5tX76+cfFKv93cXjvflrr9pW7/W5WBhx/c+bMf/GsMZHnz4jPPPl23soYn09l4PhlNs0mOsUAEDf8f2t7lx5YsO+9be629d+yIOHFemXnzPupWVVdX9YtNimxREilZlGkI8ECANbAHBjwwoL/GA3tseGyPPLABA4IhEIabpg3KJC2x2dVdXe9b95Gvk+cZr/1ae3sQWdWkTMogQMYsgTyZ58TZEbH2+r71+7bb9tQG7xMIIBUTCoA4EW2mJ0GGzDkh/BVa2F+vNJqUYPh66eM37IRo9aw2iyZJbPvjoTXLtpnP6xzhm6p13B9++oc/Ptzf+RAiw9mT99rI15vdhz/7KVXN20/e0WVz9vQdWWhFColSsnY4jWPnx3j1+vX93e3r15+eNrmc02J9IQgHHzIEZgTCRDSCc2EEIFloQ4tKN6rQXczXfXtI/Hy5qpYNuADlL90QH7z9/IO3/5yc+Q/ePt1/8cmHP76/v++HTTt2JM1iddmzry4e/+5/8l8c99v/7X/5H0f3RlDIkGKw3rIEeHr5jDKLBE2lqwJLibogCYmZAUGrIkfHnIAIQACpLBKDsAxNvTibvVXVdTFrEvvjcQeb68WTp8vzNf7VBsau7w/Hkyw0SHr96uXHP//JT/7s4ydvfXD5/L3tKdz+m58QUVE2pPJxf7/d3X3+6Ueff/zTzc3rwQ1TRJ8fTiSVVCpkKCpd1saYRVkVpSHIllNMiZ0XVDcuw8vbm9LoZrEmrBCxXivTnNnRD25IDH3Lx/2mH1rvQoxh6Nu+Pckf/sZvI9HLLz6+v7uasq8n1/4HP/h1QjkOvLn/4heffnL2Zz95//t/57233908uXz65NHTty+mykIr+O6vfO+7v/K9zWHc7XY/++gFAAUXur6/v7l9+fknQihCTVQAQALKQqFKJFVGAPEXMEAIwDngA+fmb+lgkmo6oaSUkIRISmtdmD/vQx36rt1vT8cdCDp76/tfvvrq809+sdltH7/7waO33nv01nfr1XoYBobMMTAHSFiYao0JAM4ePz/sNs/vvnV78/rm6tX97U01qy8ePxucN4an6VMbHFPmGFLibns7SpN9hatZ0Zw//+Hf+0f/7J+XfwVqEr7O1UkAs6a6ePTIBidLqVPRLNaqqu1gX37x8Z/86//d93Z7f0skQxysG8MwCE6lLowiUxgpaFHPSBICZw8BOEHIOWXGspIJYPLrs2CplFYGCwXaFM2iXq6MMSGzzxAJDof7DO/9uXeXU+TkonNWqaof++1hfzjshxBO7eHFl5989skvyvpCletEVW95s7m9fv3i5vr16bjb7jch+L4bhr6dJhBXg6EAACAASURBVLQYMEZOqCAnSElKXVa1UrrUFUmlCIRISWBCIagAVFkgqKxNnYGsddaO3dBaO7jROzd2XY9EgcPQd+wjAITg7TjI7eammS+runn6/L35Yr3dXG9u3+x3GwAoTCmlsnZ0drh58/Kw21x/8fRDlZ4/ffbOt79/+fz5oyfPHz9dTuvmYlleLJ8dLOx23Wm/n6LEdvtNhASKhJKcmCHHHIFzFiilApxmV/EBjcLpb7cM+vqY7HG//FEgId28eXlxcaFNCRK606Hr+wxY1cuQ4X6/cTm8+/3fuHz+HpAOoGJi6y3HEIIN3kMOQqAkQKLF6kwIUZhysb7QReU++WkIzjvLkZUxmijGyALKnEc7xDHU6zUyCETnxnHo7DiIf68WcjhkMxfHU0ZSy7PL4zCiNrpaSGWUrkLvt9dvPvyTP4guHLa3ZVWNw9G6zvd9jpy1KeVSqVll6uX6gjlAcswMwAAYcsqZ0fU5TTF2GVEUZSFEAKgAuCi0MQYlaFKzRROCO/WnY9eWphSIYRj6th+7YTj1fd+S1FlAzCplOLXDV19++dHPfvrl55+aevnyq1dE1HWn/f7udNyfTkc79IMbhMAMRErNZnNTViwogEjRYk6Esijrsqq1NkRFzgkYQaDIAgFyxuAZgENwx4MVmFzg03HXng7eWeeCc9aNg0CMCUJwOWcppRCYmOX93VXfHufLdT1bNMvVYnX27J33vbOff/xnEwIoJZ4Mhvd3V8PhtkbevPnq5VcvFufr5fri8VvPnr39/vry6beenQHA0sDy6ewnx25zd7vd3Xtnp5fXzSLGAJGFEOw8AACRAABEEEJkyCkD4ZQJ/be6+hMDhxBjDN4FayebCgD03XHe1IqEiLLtT9YNSCRnzfX9laoX3/7h8yfPv4OFeX318vbmq5gABQkBAlFQYp9CsMF1HKIqdrvt1rtxtlh/63u/Olutv/z8o/u7K1U2iKRKAoCCFBoBAEMcxrZFQMoqqdJ6250O293h2dNl7K38iyOaOcH/8ePf/+zzzxMIH/nTj3+62W6GfqjQGFOP1ivN1awSmdx4jGNgb4NgZs4AhMSTViuoNPPV+bkq6mxb63NkK0GAhJxzTinEIXFkTokDAEZWLtphOBV1Vc8agQgiqrIRCJBo6NzHv/jEmKqQReIYXfQu2K4d+qEb2uA45uRjvt/ffvnFZ69evTie2s8/+yyG0HenobdAUNVlWS9MVderdU5paixMymkSRJmR1aR2K1WQNA9QmCSZGQEFAgoM3j2Aqf1gx5MUyXnuuqOz44S6mBoWJABITn8BURKR0Fpubl4zMyLWs/nq/HJ9drlcXzTz5WJ1NqVbHnYb76wd+uD9IKB4fHE8HWzwN9srY6ovvpw/uvzF8uLy9Q9+/Vd+40drDQDQtf31zdWpP+lqMQ4vAMCYCgBSTt7Z5HzKKQEIwAyQAeTXQFyECRH3l9aUfzNPh8kkl6c5DvYQPWZAko+fvtOczQEArG/brhus0hqGMaKYXTwuTHWy7Xi8d943q3USiChJqoIUSkg+WNt6O3pnd7tdjOPxuPfev/XB977/a79ZlPWHf/qHDHn67giJpmH9qHORbLAYOCVi5qFvr69effzzn3b7y+sXH/3ot35nfrb65p3f3e7/5f/0P/ze7/3LkKCcNQyw2Vw5F32GwtemaBBEZWpNSkkSxARp6HaerZBYlBXopKSs6maxOj+7eOz73kXvvGOOmRQRIpIQoTQmsY8xcUIGwSnn4EJwm9vXzXxJREjEoABy37XBu9vrzbReUShCgoTsxrG3t5u7/f397e2bzd313eZqfzzklGWpckqoyNS1LLSkQhcmCwjeccLpxMDXd/ScQ/BcaV0WVWEqIZBjio4FCokaMsJD1HwKwZ0Ou+50cG4Ibk8KMoupTSwlosQEkYQgmsKaMCSOMQQGBHrY900qhh36e746HXe6ML/52//R5ZPnb7/33e3m+u761XZz48Yh5OBcGvpWnI6mLApT7U+7+/uNqWaff/rRV1988Q9+55+Zuhyc8852x+Nxf7+7v2V8WNAp5cnIPtkzEyKCQIEB80Mm89+CJPwXDyJJSlVKayUeoEBKFaYw8/V8+o0YfDe2QEoWVYipWKyTng1u7I57AFktllrXMYacEIAliok5pwsF85xzWl08u3zy/NVXX243N93psFiev/Pt7+vCvPjs56f+5IdxSk9zzo6jjc7Nm3UYBoXAMey2tz//sz9Orq8q8/f//j8O8S8UQzGL0Yerq2ufYXnGq/PLxfppCD4TxhjMqlYoJSkBEL2HbAWwHdtjfySNlTKFNrowUhcMYhyd9yFHQFEIiaQUGS2lUgK0hhw9eheyopRyzhxTzOydDyGlTEgzDtieDpub14O1IHQWyAm8s+x8YrB9N/T9MFiOoR2G03HXnqyPKAQmD0U5Ewi64JwSkVa64MROqq4f6rKs6oZIMoiccggOOAEjAAkwiClwzCkRKiIZY0rwIO2NQ9+dDu3pEKNL0coEAmROmaQiLZlBsgREIZCUQoHBcwg+MVAW8oMf/EZ3OkxhOEhUmOrs4vHZxeOuPQFASlwU5fmjp/VsEYJLPlZaju0hxqBNVTZVSG6/29q7q/CJ/+TjX3z8iw+fvPOd4+7w4tOPXn752atXL1PiBJhz8s4G72KME0aGABERiQhJZJzgr5j+Mun8b/gKIMKHpU+Akkgp1IXJDoQBANjtd4fD6YE1mZEBWUBSiuoKUQlFIVvrB2QJABEAIE6fZfoEi+V5NV8oY6qmaruhPe7qZvH2tz/oTofh1XDc3+vCSGmcHfzYC1CH3QYT1Kv1xcXZ2XpZzVfdMBx2m+HXwycf/bx5s8Si6Lu+qOrj/j5EPn/rvcG5eraomnVFREQIMPQtppxTFMSYwdqBgCWmHDnnbK1PztOciqJUSnenQ3/cTgmZEx8yZpbCZ0ChlGuP0Q/eReYoxNRblykDJNjet5HvhNiF4O/uXm83NylhUsZzGNrhdNwFOwYX7dB3bV9W9WJ1rqs5FYtm3TSEwbvBtj50AHGy5RUlFFVVmuUMoKr7+XJt6uU3qGoEqWUlGRBU8ilTJpAoCEDEmCacY0qJY2zbY9udnLNKEWmJMqeUQSRUoLSUaZL1GABAAilVSpjs1qacyfa4iyEUpmrmy7qZN83q/PLJ+uLJ/v721YtPX734NAR3/ujps+fvNYu1RFou1sftjRuHsq6KUnen7e31q2F/vVo93t3f/T9/9Afzj3829q5vTzmL9dmjKGUADMMwARpSDBOVLeaHAY5E8uvLYKp+/ib9cP/fQyTArzcaE5wUhRAiMVsJBgC2u93huHcuyJJPdsCiZCG0qlSpgvfj0EupymoWnUOBColEOaV8xxgi83C4I6mmpsL9/fZ03KWc5ov16vzy9voV5Ycx68IWSQZdGCoLY6pvvfvt9771wXq9qirDw+HudNjvTodDN5sv12ePtrttjMEO/aFtB+cOx+Op7QfrmvlyffFkMVuW1ez6q8+VLsqiEoQEDABSgKC0Wp21Q5vYy6KomoUpZ3ZoT9u7HFgXSulCKiFAUYG6MLpQ/rj3zlprc8qSjDSGlEGBHL3nN/Tq1jk7dONmczX0bbVYjpFDAtu149DlnEmaxOwjI8Pg4+B3x+MJODWrtVI6MyhdSvW1D5KIpJqGGZTWUsqU0sTmySnpoq6KikACZ06MGYUAIMHMib0deufG4D0nnnbfmEFIqqqZgBQTp5h0YcpqBih04L49CkRZGFPOAGA2X1Z1M1+sJUmltQEA7+w4dJubN19+9jOB+N1f+dGv/eZ/8KPf+t2f/+n//eGf/uHrF5+uzh7Nm9UPfvh3zy6f10099Kfj/j4myAJCzHebq4lEu91cSyjLouQE7OOiWbEgJw3HaE8nHzMASK1zThwipwcS1kQA14VxPk+3Z/ga/YdiIgH+u66er3Xk/x8tZqKafvMqKZUpSySpZbFen82MSRwUSk48lYObzdXtdgNKR1BZwhgDZqNRISZiYgAhUmJXFEpwhswhesg02ZmEEPVsBgDt6aCUfPudd198Nrx+/SoxLxbLZ++8mxKPQychX5xfxLAMgcMYvv3t7/zuf/yffvd7v3p//eLTn/3JfnebYvr9H/+rf/6f/4t//E//KQDc3/VXb178/u/9zy9ffLXbH5A0oOz7wbsw9O2hakpTSZSVqUXOw+mQ/Kh0IRDLauY5kVSVmS1Wl4h0OuxOu/uhbxXKm9tXwftZU1f1MlFGIZBIswreIwpTzQC1H1mFVBiTEly9ueYAOeehH7b73dD1cHtkykxC5OxDCMHFuJvOeWvdse+LshIgM+e7mxsikjJVK4NGFYXZ7zb7zXaxOnv69J1CKgS1WFwqXblu8J0VKEoNQggByHkC5hJqFbwb+r5rj9vt1dSbCcwheFUWWmptVF0Ryeyc7bsu5iCk0IVBikKtxrFDhKJQDClnsThff+v9H8judICHuDj59cpDSOmzj34y9G0zX7XtXggRvNvcvtlubs4uniE8WOeNqUiCQKG07tsjMxMVCGLox+NhS1I1izNhtU9AJaTFGYKYyi3v/TdenRj8NJg7AexjDNNCJCKBQgr1wLX9c5LttNoe1txfs2T6pgfKzDlngYJjOB5uh+6saGpnuWt7EFIWpqgaF2OWRlCZAVJ6COcCAAScOPqQEoqJLv+Aa2ZmIpJSTv9ous1MkZ3r/nK32QxdO2VXKa0F+Muzx1XdDN3h5ubV5ubVfr8bBps5tP3w+z/+vY8/+SQEd9wfDrvNqxef7o67sl4mJIIspTKFqYpymmQoy7qsZgjg7BBRMiQpVVnVChU6Q4BCCGeHsW/b7uD6fjwdg88pweDs3Kdq3khZiDx1JgxIBbLOokgcxyijg9Ph4J0NHHIS1o5956xPpBVSAsAsgLTIKLJkYI45cQzZDi44SDlxRJKlNlLqwlR9u93f37Xtvj9FIUShCgB49Oidr5MLMaU4dr0dehL60eO3p90LKeWdHcb+sL8/dnvrvSFZSGWMUsaE7IVQKJMsVPQThqip5+cT08QOLaNIzJ7744EDhwnV48ZBTgNyiVkgKtLTZGDKKcZw8+bl5uaNtQMATDMNpqpTyiFzAtCl0YVGmtfNYr5YvPz8w/Z0SNEt5hdGFmEYxrEbhAJZ5sg5cF3Vs1kTLh53p0Pbt/1x57yftuqQIWfIKQXvU/AxsJRq2hajQFJqqtp/uYi/aRNh/usqxIlBgJrW6GK+fvzk+er83JSVQHRjf3N9e+z2QFpXjaqXFaceUEhFQAlCTkkAiAkIA+GXDVvBgClPkZQxSCWVLhIzYmoWiwfXWmHmi3XTNG9edEPfc1wXhbF2oEzD6Rhcv/r0YjidRntUSivE2Xz94vNPP/rpv+2703G/O/VHAFBVsz4/j5AEJyKppNIkiUBkMEWthGZmIQQhkTKFLkSqd+0OADjF7nQ4ON8f92N7CoFzBCkhAUQHo/OVVKpsYggZqwwQMwwj+3Ach947m3PynCZTIyQZc4ycSRtlFAsHmMW0wdQkEgdrgRPHkFOWIEQCgVhq1cxq09Q5p8Nhb8eRiIyhEPz19ZWzQ4rkfCh1eTru2edC1WU1U1ozxwQpC/DBtf1+f9gcTtvB9jEGKIRWJZYKgUSExMDA0hjOQ1lUZxePl+vH3tk3V52Ng5RGSoqZre+nb+TYbTt7kqv1hXN2uidpbZBk4pg5ldXM2sFZRqJmvhJCzJfr9cXjsmgKUwkUzFEApJyVorqp3/vOD/e7DUR+dPl2s1wf7ncvPv7Z9dVVSBkCQ0oSValrUS/ms5UL9v7uKobgvbXeeWetHTjG6D0CZHgACkykXAqEJI0pp9uD+Hq7CQAgEjP+pdaJv2q2RgghpVJKm7Jq5svV2eWyWRSm9G48vm5ffvXFJAKKotSmQaXi6B5cFJExS8hBTq46Tunr+gqFiF+3ryZYg9LaO5tSruqGY2pPhxBcVTfNYi0Edq0X4sDadO1x2J3GwV6/eTFrliKDMdXq/JEy5fmz8yy7iFImEMNIzuliVq/PVFNDkhBjDJ5HC5wBgBTllB/OYUZZ1KYyQErEsW9PWUCO3AXn2tYOY/SAAIumrOaLENzhsA/MKSNDGp079kN+iGyLPno7Dt6GlFmbComU0qRBCFmgULLSRo0uAXBCQKSMBD5HCcCsa0VSGW0KWZRSl1VdmZmutIs+pxwCE1HKyQ2cs+cI169fnI67acgWgNbnlxePny1W5y+/+OR0OvB+a/1g7TDYPmYWSiTmjByzn5AiSeYIAdg51xPK5fri0ZPnuqjvrl8NfRtjyFnoolRCArgp+yJCcnaQppwh0vRFTnM9EYBynl6mCzObLQDAORu8t0Nv1CyMQ5sDACMkkqg0Iab16mI5X0bvlTSzsjJPTLe7u7l6raRA/KVjNvoAOZGgi4unABC8G2zft8ehb8eht3ZAeOCkc+IMGQBSziIl5+y0GUCS0wwx0QOe8a/1BFCyItKaSiUVCZESpxRFhmDtfnN3ffVV3/cJMHIOCaQqtRcMmdlRAsgADEIkAAROgAxZJfHNcBtkQoAYkiea8lmiUkVhquN+y66vZ4uz1cVyvj7cbXNwESDFTCWQADcMKXBIwZgyZiZpAOVqfVHN1hlkZKiatVIVFaSaGRIJTv3h0I2996PQM6OUyOSd927MhFobIDUMtu33MGHYkEJwAIAkylIhUbO8mM2XbhyPp7Yf7W63U213Op6GfiAg+LpBRFKpmZnqzLKqdFki4iQeS4lIrBEBMAnIOXHKQAklUMZ61pRFVdfVrGpKqcWEc4F88fTp9nQr8DanPA6eA5CEeqb9YHNOIlGMQZGSKLUsgvfH03awgx16hkQkQYJQAjMWuhQFJZlstihUgpBkQoFtf7+er+bLuSmLU3/YbN8MwwEpBbYSJJGSGclU9XKZU+o7lKYsp48JAPLBUgo55Sn7MnG0dgjeheBDcEhETLY4SCmIEEUyZVHNyqI03Wk3my9NWe63m/3dNZIM3lWmHj2QKpSgkNk7mznknFDgYnkBJDiGsm/LohybxTh049B3x+O0980PJmlIwJCAE+PEHUg5U6Kccs6CJmHrL6mCxF/h0JqaUcyRpAKAMFrE9frssqqrYbSz2Xx9dgn9MDi722+KyKRKwUkkzJwQBIhEkIADMANDyJmnzHkhEpJIKKWcwIOkVHJxuq0IFKfjTik9bcGJAFKWSs7mtUSFQkgyzDycrPNdiDlCenP9+q133l+uL5wdYgh1s5CliczkA2lBgJqU1hpilCByzigwcWTmDNkHb4PdH0/Hw201r0nKDHFa0KasFBokms2X5XwBUhZVZQ+noW8zYt9bIgkoBYosWEhUlZFSJWLBycxNUZrAlkeXIIQcgKOWJUBMQrpoIzPnkTSoQs8WVVlUddXMCkMg2HtnB++DWa9XZ5cXZ4+lVPd3d7fXL9l5ZuYEyXkCyjmFlI/7+3HoSKuYeIwuMctSaWNIY/AQ3Fg2DVACkRlSggASBKCUQF418+VsvhJC2HFk5rKaSSmHwRZlJaVKzGTqSZmdOBqFlEpFPeXsPkTnoiQl+/bUnQ4TDlYXRkoVvDvGOymVliQ1EcE4YnRlWVVaFShSIYtC0dQe1I8f18366tXGebBd6/tuHPokQBdGG/3kyfME4J09qqIw1YI5BGfHcVttEscQ/NC149iH6DJMzg9KOQPHnJJIHKNAgYJA6X8XZvjvP4goTUwRIZwdd9ur1apWWk+RYc1yzVSk7bG7vbH9EISaNxpyAk6YARPgFGHAOUeO2YU0xbehQAJVCEkKydphok7EAAKFlEJK9M5aO3K0KDIKECiaxXqxOs8hKSRVVmNvX7/67HRqmcHH4O34Cr68vblOzEoXy7U3puPk66aWCo0yhFjPFoUyyXPyIQpKOSOqkFM/DP3Qd11rnZcFASjgnHNCKqRURhmBqMpKqSIbnM3OeYrZIzGbSymVLKQQwqdAkKVBAB+jQ8SENgEE7nwaAZOSRiBOdA9IMWcOYcgiqaoqq3pWN0QAIsQIIESMPrFPOe63V4jy7PyterYoykZKedod2tMBYp+YIQNJJQURUc6ZmbNMBSmSFRWF0joLzgIUlUiUIEWY4DcPpzQnnC3XVd3klPruxHFs5jNT1yknZUYkyqjggUISSZqZWkjOYmq+M1iISTDnlIWEFKMi1SxXs/kZACTm0+F43O1MVZAgo0k6lbIHwe2BdKmqosyvYj2bP378fH3xSAnpnVUmL1fP7242Lz7/RXfYnE4HKVVeLqXE88tHOcWhbyENGlkIkXNlY7NcX/johtPpeNodD/dD33pnMz9g3lLOCVh8E5kapwvgL73ZS4AIIFkkysSYKREAL9arsiyIIMZ4f3+729gMfP70eYxht7vrbICiVnUifRIQi6KekHKYQgIAwpQJQkwgAoeUcggppACAJA1iJABhVPCeiyRlGdWQBCARFlqpQqAAFJP5VGl9/ujp8+fvr5dnShVFWd5v70il6zevQvDSpbJA2+/7A6CAsirBWySdc0iXl6RUMvVsvqyaZaq4O7Z9OLngcoIskSP3wzD0PcdAUobgiQABEYCUnlVNYSrKgCnHGASmsjYh1AkCImWqjvtbKWeyIIFAqHRBEUSGOPQH6QWI6J0NbLU0qlQKTX9sJREIyCElBkAy0syqhVJG5JQzBA4MgigpIwG0Ty7weH98fei33XGfCFePLmbz5XG/9X3vhwEApCZtlNFGmdLliFJOfcIIHnJSMuly1rfHOG2AJJBUQACsIDtSjedwPNyP3iZmXZQEYuhbqWRKOacgUHCC5KxK2ZQlvfvDX0dULgROXBSafRj7vUjsRktCZJAxJgFa6RlS5ZNIQKZZFdXCxdj1Xdf17Wk47Q7O8el0GtqJBOqZcxZIpDjy+vzi/OIRKTydbvb761N717ab0+Gma+8E8sX67Nvvf+fdd94jiKfNVTkzpKiqaqWkgFzXTdXMvHcJcpqEAUg5T0koCIK8tcnnHDOH5IPPnKUqiqIKMeYMOQuGDIAZBAAS5nlVaJEfP3l2fvk4sQeSqOTm/r73/uPPPjOLR+un7765ub3f7+ery6qahTAiAUoSlAFSTDkBZCEzKkGGSBNpJQutKiULiSo6V1eNoMI7j4KywPZwbLtWa1OU9Tj0N29eHA8bUqiU9HZIaZzNCl0QgX/85PF3f/D95WIW3ZHAL5qKBzcwYIglIQ92bNvN7Y3reuvd8tFTKMrrze2QUh99lzgSZpqCRh3HoIgKoxerR6TUw4C+UjllYOYYoh8rY6SS3o0Zsi51WZdSgsheIgP7HFxiJ1E8evTkWx98f393r4pSCCmSULo0Zs5CusGRMNGl/mhH60UupKyIamBp9AyyyhkdxzFYF50XMcoMJXhynW2t76nQlSlzzhxjil4VupwVs8WsmhupIMS+7bcSYd405+fns3lTKELIMdih2xujtVJVUVSVMUoqEpUuF7OZIomI3rvRDpwZibwbxv4UvE05IiQBCXJKwSX2HJycLy68s6E7phiM1FIqWVSmqnOA0Q0hWcTCJx53B86iULVpKlUQcOKhZwakUhWoCJmj0lXI6fZm0x7a+epGkYoxrReXi8VF0TRvv/c+yfTF5z+/3Vw5O25uXwzDrj/cHOfL/vB0ub7Irq9K1Q1tBCyruri4KAoVOGTGxer8sN35GKy1g+28synmnH3OoEWdM8SYhRBAlLJwoxuHUVUFCkwIKEgQCYGISADt6SAqE4IjqarqQhfq/PLpbN54TsrU292hsx8P/bBYnanCdN2RBAMAIjLHxBw5igQCBZCClCcFBSdVGxBQECogRRONdBp4IEFIqEgWhUAEkhNDwY3jV5s3N6+oP3336fP3ysooVeiSnj19bDQww9VXXxlZXLo4nMZD2wkAo+Ry/dinsHnzyrqASnV2XF48EVIlwKyzlJoUklRS5OBG9rEHSMjAKfuQnGfncmIAroqqkNo0DTBHN7ALiBjZzUy5WC0vLp/NVuvE2HaHtjvubq6MNihkBkqYEAlJIgCQGI4teIgxCcYsIHkMwCm4xAeSQogMlDI4gUAJQHgsjJBYSCWxMKKCmFJOiR3HoFRRaE0EzCEhCyp1Wczq9Wp9Pluuc0qjFoqACLSkoi6EQJiI8ILh65R1CQgAVBSVUgKRiCaXzdC3kxtiKua/FpFQVkUNkeFhQlSCyDkKFAK0bO92g/WL9ePCNM5ZTmBmRmqhlAbiwpQiLQBAKURIYRyUUhx9Nxy707brT0oKDnl7dVOWzcVb7zx6+vyd934wW5wf2vuc8353LaWCyDGG02HHzJQBBQ7DMUQWKZjZUikihUhaG7VcnDlvh344ng59d+yG3g9DSpxySBAyZMykwKDAGG1IHiMmgUgkHuyvD+P23tsBYXRjCE5JM3kwYwwvX32mqwpE7/xrUVTL88dCwMBeaJUxMaQsHsowIALEnFLGBCBBJPEQxyRQIBAJSQIRkhCIiRk4S6Rmvs45AU8hDmtT1a7r79shFep4OMwWx8ABoEUCo8zy/NlidalM8/TdxDG/+PgjuH4NEQY3etsG71zKtLtDaUbbU0xAyD5VTSVmS6MVeCsgCuDMYThuBaWcUnQ+O58iSCk0oVYkMAuRi1IvcS6N0aYiiZVWSpMuao4Qo2OOwYah65TSCSH5kDPnBAEsh2Ct70+tiJiTAACBxMwcg0DkoKVRSpMCiYQkhCAAQd+koeeUbBii9TxMYFM02jSLBgm8s8HbhKBJoRCklKCUgXPOUqqyNqqgar4Q4kGSzSmF4MZx9M4KghhTWZEpZ1NGqFSki1limJIqjWkKUz300olkjEEIKotGpKCk8kPIGUmq7tR23Wm33Z3aQ1E0LoTROfEKzx4/nS/Ws7rRRanlhB/0iWNRochBkp7NV9kHgcmUTXXe+CGcjrvukw+7/rg8u6RCPz/79m2GhQAAIABJREFUzvLsYhw6IXIYhva4s30vgLMPGeVjqW+3t+PY5ZxiDEIaLTVoPW+qyOCaYb5YdN1x6Ac79MGF/fYuMXEGhJxTSiIJRJmlHQciSVJmqQTkxCwEMHDKCcHZwfrASmWOdhc3AOmP/s/f+9a3f6VZnyfAEsC3Jyz0vKp99oAEAEkg8NeuPSKOIWXMIn0zEEiIWQjUvyTMTdFxOSdEMqY6bK6P+3tIyVR1oUus4OLxW1XdVMs5gDx17WG78X5YnV0+fvqO31wBicu33ooxueje/d6vAuDHf/Yn2+s3UqPzMDNGgIoAOAxjsCiIM1sfg8gADBgzc2LfdXYipAoGBKgKmi/XzaxZnT+WkkLkiFjUi2a9rhZLpanfbft2d/3VV6f2IBCVKZWulJRKaMcBJQpGALCjHfp26MfsIWcAhqnIRKIoLBDlZHTWIheCokQJgCJjBsghxMzAIocx9sEPjpgKWeDkktK1KYtognd9yBEgR2uDd0OXQvDODkIIVRRFWanCSKkEpsnbDAGCs/1p30dAkk1zRo8U5Mo7C5nKWilZCSEQC6U1ZEqJy7KeLxcy+YAZtFQ5Q+KYc6rq5vGz9771T77rnH3xxWf/5o//r89+8ZOuHxhScNwed4vl2fLsvCxrU6iiMJMkhUR9f1SCZvNlZnZ2KGfLt56/Xxb1iy8+vX3z1ebq5rDfgqS6mS/PH1WzmTFVUdZrrdMi5pwgJ2a+3213x+3h/uYQbwTibL7GHF1IWgCgMqbQRs2a2g3e2iHGUJuKE/sYxqEd+j4EC0IQUY6RU2Qmjh4DPWQ0ZciQlZBJkFKmrOZEQAgcLWVx3G9TyrPlGQLb004qVZ+dQY5JyMm4IRRN9/WpBsKc/8L+O4EgAQAREnIGAOAUnQNmRTLYYX9/N3ZtZWaJo7WjQDx/9DTGJLCKWUWOPvAwjoUdbLDX17fWDjbGul7N1ssnb71fz+aqUtzZsW1ffPaRtaPtxhJAZxCQC1ISYh5OQ+gBgIyQUmXmmREkVVlWWptSm7pqmvmyKk1RNP14sOOQ3EC68mPLfmDm03EHkaO1ObIgkIiUpiDrogBMmDJhCsAJJFgjQqTJ4g4xZwCeutUi0xisCzr4QnshpZIKVaGEEiwxJUYQyBhGO5xa4YG1IWmCDdGxMFSWldJ6dDay1bVC+RCyGGMwZUVSKa3d0EJVTUUExCkTBADguOsEQmZVmMoYDCE8BFGjlFAi6eDC0N8HP55diMXyXArOOYfEnGPIwDEEs16fP3r6X/6L/6wE+KqF//a/+a9ffvmzcOxLM9OF2d3fjEO/390VhWmaen12uVgulNJuGOzgokAplchgx6EvTN/3Y+9CCChVzDw45/rheNptNteFKZv5YrW+mC/WpTZaakkkSCZBkzd76FsiOn/0tJ7N26493m9QSaVKIZUhlLWuS4oJF4t1Yh6tO+w2283N6bgLHHLKOIH/E6fEIorpAiBArRWiVLqSZiZVKSARQc751370H97efGm7Y1nVIgZEzp6H/YarIiUtlXqg7eacmQEYicSf89jBN8nVAlJkSICIEy5TCJQSg7UoRFMvctUE72F/H2PUhQnR5ikenQpdNUGkyLA77przy/vPP+y/+uTi8VtSqnj98XyxrlfV+3/n77m+Pbu46PbH03Z78+ar6Hh3P8Y4ZhZASAl0JRdnaz2bJXZPnjwvTNXUi7qZTw1QZkjM16+/DM5CDloVWiuR0th349g382VhqpxS2x76sYcEIUxMb59SmhIgOSYMUSPpWZPCJK1w8D4xRwABKIBTzAnGAD6yMtJzObETC3ARUChZFMaISP40hGBdSkrCSL1SGgXqKgBAYsiMKCEEO2lEMElV3iWO42ilVFMAV/AeAYzUqZztc0cgYojjYAVoEJgix9gJkCASiRST297eDeMxMy3XFzIGy9FGNxCKDClaezjsNpubX3w5vvVuud9aOx5zjlKCoJy8JQkxOn8cWgA31ihQkaoaGMd+Uhnud7cQmaSC0/HT4cPQWRSKpCStSUoqCo4hQmA3xlOOkYe+LZXRhTHa6MIsz9Z1M3vvg+/13QkALi6fFWV1t7n9ox//r5GDCxEIJRIppUipQoh6nhLr0SuJulDNvBn6Nng3upE5csycmHNGSIIRCSJDhJyBmMG7wMmRAI52vljd311RQXVRQQiqKLRWh+5A+gxITPvYnIABJlseSQKYwG1fa9EZAECkJEQGTIIAU5KYIANJ2Z8OdV0lNx739yHaqqmYebSuqGuhzDA6F3rvGND4mO/vN6tHj+v5ujvtdrtrRJlS1EU5m80rU9emXj65fOvdd6Pj+1evj5vNqxefbt68mp+ti8VcGjVfL1fPnmhTsvcXq0sEQSSllIpk8K49toPthuM25IgiK60IgVNAzKUpmtmqmS8ZhPexPZwcBwQCwDAMITMJ7ayfnGRK6apuoJQppwep1DsffGJgZpIiYwZOICKgKNBURWPqKglwdhAZVFZJKEMVGVHIYhoID8Ef9/dxxwAgtFKKHPgQrB2HEFxZG4EIEYIfAYCUIUE5susHmNyNSZRVSUIRFt46JVlpijF1p23KCBCLYkZSJIYUMjNwzJKHPTMTc6ErAHnyN6erXUr83/93/9XjZ+/0XfvpRz8pSnNZPAkh7ra7qigZZAA3WeimcyGEiDEsluchuP2bDcdwfn4eY95uXs90U9WatIqQk3cgKQmVI5d1E3k8HXZ9e1SkTKHLalaWddvvV+uLZrGaiOG6MCiQ3WBM9eDgczYDpqRVUQmJ0fUhMQBWdVVWZlwvT/vT0Lf322sOISCD9ylNYRlCCOxtr6UO3jFDyCASghQkzZvrF3Ycnjx7Z75Y98d7kLIuy2FsMzCJUpMSSgnOPgWIMCFphcAHx95DBYQ5J4FIACBQCkqQGRAIlFTOjgTC2eH1my9iCI+evSO19sdjs37kYjweD+1xI4So6koVykX3+WcfN8uF5ma7u1Fa17Pag9sdb//4394+Wj0tdPn8rW+fXVyWVf30+TvLR+eb188XF+eL8wtdm3o9b9ZrJrSHgz0c/Klt22MIPiUIwfXtcRx7AMQEIacwdM5ZjgFRqtJsbl6jEMVsQVIiUQGA2hgh+qEVMeYMMXIYLcdgiqqumpyRIZVFFTj4YRjd4OyYkoCcc4QMOafIhCKDIlXIcr5Y77ZX/bEdx5YdI0BVzmazue1GZUoS2HWn42nHMZj5opk3CC54y5GRRFE0Vd2Q0Na1mqgoDEmVeDcONiUPAWyIRs9ITTTsHIJXugm+77p+CumqmzhfrHRhBK6qWWNMQ//wt38n+NHZPkQbwhj8eGy3V68//9d/8K+I5K/+5m//2m/+o7OLS10YRGQOUtZlOXNDt1iuf+3v/kNT1sfj/Xy5Lsum7ffe27pZotKH3X3bdoU0KdEw9CkDCPQ+AIIpK6EUSok0PVYgRg7e+RDc2KcU+vbUt8cMoHXhvevbIwCsVxez2QyFyCmydzHYYEc3doAEKQoBgoTSqjRls1wtz85X67OmWSBRSgEFEhICJI5lUYRgT+3hzYtPX7/8FCW9/4Mf/fDXf2u7ub54/Ozxk+fP33nvrbffgwz7zWvnvJnPUWpCgpxEBhQocmbmxJyn8c6cxNeZRTmlupqF4CCm5HwYx0IXGum020DKXXu8evn5m1dfDOOAilDKJFCpenN7tbl+HXKoZnPSsutO+/12vjoDSUQCUDBzypFzCskmSPt2f2y32/vbtj9mFEBgmrperlaXF83ZmTS0P96/ePGz168+7fb3bz7+sN/dt6ftbvPmtLsPbkw5Qc7W90N/tF3P3ufIKTIwpJR1UR9PR07x/NHTqpwf97vRDk2zGAebOKUQmEOhqsX8fLE4K83MjS0RloU2ZVmXpS6MVkobTZBBcM6QM6TAHKIUUisZxtGPIyYw2tRltZgvzs8v1mcXT5+9KxHbru1OhxAYQNjRde3ejz1zUKqaNYuqmhEpIUiSyjGdDtv93e3YtbYfusMuhVSWddf3zlk3jjlxYUqli2n/0J16RFBKgUAiWdZN0yylUhLZn62XdVXsD/ecWBdm6NtPPnv1zvMLXZhmtn7/B7/67vs/OOw2Vy8/+eKTj7/64sVhd3qh9DRefTrshMAYAwJKNCB58hF1w4CISpXJdTnnLCSy984qZzhjFlzXDSKRUoABEueUmMHmcLq5VgJM2czms/liPZsvy2pWKl0W5ZRUdd63fXvq/1/W3uy5suS8E/tyz7PeDRdAoQq1d1d3s5vsJqmFEjVDzWhkyQ6FPDHhsSPmxU9+89/kCEc4Jhwh+0ExI1myRhJFkRQXNdnsraprLxSAAnC3c8+We/rhoFuUZuixHJMPiBsXD8A5J/Pkl7/vtzRV122UtrqvESaUCYZ4CAFjgVFADKVZkaT5aLqvVKc6ta1Wm9VFvd20SgUAtF6ovjt95Y1WMsua7dpHKPPpbH6tHE21bgilCDHn+nazFlOapjnj3BqjdB+8pxgJmToIwXsPIYSAMSYII4TWyzPwIZM5Jlz7AM4rpbrttu+abbWuuxowpowBpYEiDKzXXVNXOthRssNF0vdN3bbBB+sC1o5QwJxLzghFEaxz2HmHIFoAhe1Gb+3CQ8BR68l4vjx7ZV4oH2zwptddW69s2x6UB8p21ugYY5KVQqZt127rDRfpAAFboxHGXGTlqExH4whUNetqvaSUMSpHk5mvlk2zHWTczllM6BDHAgBGqzQvKGWcckwJAEjb21RqbzcrBBU43fsABEHwzlljleUJm+TTohhJmUTnremGqVStFwgAeRe8j057wD6GGFzCkuix6rVztm2a4U8TioP3jLM8myKMGVmDxwCAgEmZ9kob2w1UTsYFQjhJs0E+hdDQEHCMCcZ4lpf0jbffOHr2cL1ceFufn5+/ePZk26jZiI6n+6PJzmhnPt6ZB+tH49mVazfv3vv6yfHJg48+8F73fTucipI04yIJ3hHOEBLWauuCsR6hKJ0L1gLAEPzUbDeYIestUBI8ME6EkIQQBARQjD5EAESo9U5vq6Zvtm2bb7d5WjDGx9MpZWyczKezPaXrZrupNoumqxeLJRAcPVKqdc5GfJmWw7iMIWJMOC/SrMiKbLKzZ3S7PHsRnedpGrxfXpw+ffbAQXjy8OPZfH9nNrfWdLobZVlZ7ljtLID2PurOdcxr4p2FGJIsF1nWtXV01ltrwuA+wChliBBsLcGYYcAhaqus1qpru+2iqbebamF0K/OUpQmSxCEPTPR1pVVPAiRcApCuqdumYoxuq03qMp4xKhhlhDLsvUHEWqOBAiECKFfgun6hmt63XdVvVNfoahu9FZwwLpC1zIPX3e7O/mjnADCu23a9OKu3Vb2tmuqlg0gIl8VECIkRJ0Q4G0UmrY9du4mI7F05HM33HODF+QnjwjmHMGNcZlmRpHn0yLouGO98IM56OtB4HSFYAJmOpiQCCrHXagi2bKs6mECmO8VeNp1M0qxQdd1EgyFSCK5vjW6NbbxTzrk45PBGVPc9utRORYZQmhej8U5eZozLPB8VoykhIKjEQGMITEjuPG0rd0m173nXEkIoZUUhEMYxBKW6VqsYorXGB0+vHRzoZhXBU3brxh072d0/evKkVV0MgVI5hItUq1XXb/NyvH/1xs7+bQD68NOffvKzHwbvytF0PN1Ns7zZbr6ARDCmg7AmIhJRQAgjyiFaZXqvvYmASOzamguZJXki+RDZywkjmCVJZm2vtfVOtdta992aXFBA1WYnSeSonKZZQTnJy7FIkmnwxWRpfWjr7Wp5NrzPtJBGpqPZvvc+hEHsRpI0T1JC0HxcZN5Znqbeg5DJenl+cvLs6OhxkZV5ls4nO9dv3vnSl7969+6be9fvsCJ7/uyhrdvGXL5OmOAEEAqXLSGIkVzKi+OgkByNp6brfK861bXrldNGqa6pNnW96buWMjYpR7jMIoDFgYJzyKdZYiga7EqdiwTTGNFmsXIhTOWUEIExCiEC5ZSSgQqOuGRMQEDKKQ0uEjjbXiSRIM5QZ8H4Qsrp/kGZlZnMCSAXoapW681mtVloq4DQ8e6VXmlvjdXO6gYjHGUhECHCAkExhE61SvXZaCxlOohdL2Eu760xlGqIxHs/LkcYBYQxGoyq8CU30RiFMBYy1Uo327bpOtVpsN4lKRiFfUTWBWdsr6JrrO50X9uudrpzzkQYmuwAAN4BgogQGjpo3gYAgnE6ne5yySgTMQRKsjQdQqYjTlCAoLVSqI0hDFTO4H05ng450KkthsthjDMmyL/517+flaXq67PT59Pdg2/+i395/eZbq/UiRKCCJ0nBeIoR5VxKkcZIrHXVavnw0w/u/+xH9XY9me6W43nwQTvvQ/Q+OB98CIAwIgxHbJWKMQqZhBC6tjZG+xiN1lZbYzqnldbaaBtCBBwjQsY66ywgRrkQIsGEREA+uqpat32num3XN6rtYwDGWZoXWTEqy3FelFIIRAkiw2kXe+Oc0RGwEJJiDjFiRBhnMiU+6MF8L2KMMHEu1Ntt27TKqr5vqmpltGZC5qPpeLzTNGvVNV29jdYRwpD3uu+6ZpulBSOMccGEoJQhQNE77z110G03utp226rdbIzq2211cfqy2ixtsCRJkvGYpanDYKKPgLFHeZJhhKpqqfpeJCnjife2V61I5Giyk+R5wN4FizFKRY7AY4wpFZQzF2KvtLUBU86pYITwgCjAiCf7k/2rk71xNsrS0Xq9Wi3PRZpdv/PW/rWbEeFqU61XK+MtxlymOU8yLhORFEmeKWcixRghG30MoK0zutdGb9YbY6xz1jlnrfcuhBgxQpyS4Ix31lvtjPFOeaOC1ZRgwJRgGgNYY43SBFNBZZ7yLEmFSGIIzpgQNAree+Ojs15pq22ww1wPKIYIlCaMSoxZHBjyDlBAwflE5EYZ02mjFXIRReyM7do6EuS8ghiYYFxwBNE745yZzOZccMYZxGCNQhiKcjSaTCkgszObOH+70zWltCyLw3/+u3ff/fqPvv9Xjx98+Kd/+L/d//DHr7/53p177+zM9q13dVUtL15p1TlnvVbDi6HebgaLoTBQWGNECMcAxqq6bgjCQBBC2BhjQ0DBe+8AwHscjCVdywjr2lRnCRcSc0Yw5QIoTRAVCAUcvLOAwAfvurbvu5YikqR5MSmTvEjKjItkNJ5leTmeH1TrZbWtjVFHzx6121YZy4XMs+l4Or964+6Vw4PV+ZPTl77pOgCXZAlm+zIf8ywHgJ3pbipEX68+e/BRU1fNtr731jvXDm+D9916vdysquU5okxkWVqWBFAkGBESMQ7BK6OM7ge6gW0a8DE6q9rae99u1/V20/a1HJVCJECwdsaAjwhctJySLC2893DxKkbIkgwxFryPQCTPCRlS9IKzFoAghJCP0fsIHrC31va6884jLgVhqmnidpNFvHPl2vXdGwUm3bZ+uX25bjcBwYjt5uWYyBTLYrx3+OjBJ9Y6Z7x31psYY6CUMZF33QohjBgDb6vtBtXboYIdep0YMUwI41IkaZaXSSJ0vUbgY/QhBAAP2EcECGEJ+SA/pZQxziWTzuNBbeK17uu1NwwjzAmKgvngRDJCDDwEYEwp21mrehPBe2fDJcgGAMQG37fKex/dc8YIF1JIWaQjwEhrW603EmU+Gi4kF5Iy5qz1zoYYinI8JNoPse2X2ipCqBT8xmt3fuN3/2XAsFj0VdPxfPb2118/uP7G9//yj376w+8ev3i+OH11cvTk3a9+8+DmHQBYnJ9slheYEEzIEERjrSEAmFBCsA6q67tBBBidj95bp6BCCOG+byNGjIkAECAiCMYBccGBcc4GZxlT+XhqSXQBnLPCSULxQMAfIicQwsG7Xve97puuFgnLxiUXIs3LJMmSNE3S6/M9CN5PZvvPHz188tmnFydHa7Zwzh4cvjaZznV3JjNpvUWYYZ4kOR1PaT6eUipHo1Eqks3y9OXDjx49/CR4X28X77z9ZU7p1WvXe61Wq/PF6gxvycjMj58/xEIwzqkQEaGBAwPeg7bBWoaIbtv18ix4H0OUnAacjGdzORnXtq/b2mLAnEEAFlEwHUDMijICSZLMY5BpJrKMUmKNdiZBlGGMnbNaRd91AMAIx4Qg5GMMgBGljFPJHUDmR5FMZDliCTOmbrugjfe+aZvz5Y8++tlPx1cO7rz19Xe//pv/5Lf/+5fHzx59+rPHDz45e3FkjMKEp0AQZkbXSqsIgCiNMcSACZciCyFGSmWaFeNyWo6mUiaMYbZ3FaIdmiABecAOIwzgO6UgEMZTRrPe2LOTk9Oj43azgBAhxmCt8RawZ4wQQhGGNM+AkYgYSQutfat13ymlbbPqvYcQHADBQC6dQLVfNGciFQmTXDAjFeNkUBTqtQpYC5lSThBmTDCZymE9eGcDeCaYzBOMMBMMYaCvf+nLt+5+eajbDneSw50kABy18Mabs7L8795595c++MkPfvCXf/zo0w8Ob772pa/9GmWdVl21WWCECWXWGGsNF1IbnXABAAPLf1stvPMowCgfqd5a1/sQrNOIkhBDDD44IIRGgKGiDt4bo30IVHchRABgnKepHtIFKeLGGkE55zSGEGLUqtNt0/Sx1z2QyBlPi+l4Op/N90eTHcGLb3zrv/nowx9Ovvvn9z/9yfnJyenRp5RA358QsJuLV9ZDkpaMECoEYzzh1HtPogtOJYKX4+lFW7188cj09er86I23vvzVX/3WeOfa40cffe87f/z88f2j0xNAnnGepHmaFVxwxgQFhMALQgIAON+orl5duBDzySwZTTnE6ZVDkuTVxdO+6zzBDCPw0UKotLFRy8mIUIYIBOOZZJgz55TSrbCMUQ4AVrvQKaotJoQAZjzlGMsuDc7nUu5ns9FUptqjbScxVu1GG99ZhQXP5DidzAEjG5wLsDh9qlXHpORJcefW3Xuvvb1anh0/f7x89aozdURI9Vr1SiZZkmYIs+A9CuC0wc4xRIq02JntjyYzSlmIppApBgcQgSCEIgAgMtBgGeJsMjmYzA6ch0f3P/LxLx5vzyjnPJE8Ec4p5zzgCAQQYMqYjD7kKeFMO8iM61JltB2lUSvdNbXpa+diBG2dDRADeN9KA40DS0EmSY44Ms73XWXASdYa5ZNEUcZkIinhkUQMNBG5oCKVeYwhTTICmNbtGv7+wAA3MjhpAew2L/m3fvt3y1HxwU+/n4zGRPJ+uQoYI8Zs9NZ6G31A3hqdZDnjRPVd122Cs1IwE6FTTbW18LnDD0DEwQWjiCCSfu7KiAGABATaGRysMKm1WmsVvKeUyTQrynEihZApWOcjIIQ9kiAYhADRI8HbdrXdVHxbN9vNenE2AKBdv/C6v37zUHK42J/X203w9fGjn6RZ4WzkQqaMORfXx0+tNTLJRpMd0ykfA8FkNpskFClVa6c/+PiDVdvz2eHXrtyFYue86R8eHWFCnNOj0ahMTbZtdqe7Vw7meZrbbh2cEmnGeT4ppwjhJ88enpyekyw/uPU6EVMP2HvpDHPBU4iIMj4p+6512iOEfLTB94FiIkiSpn1vrVV1tyloQSgjzqq2mbI0STPgsunb2nYk4Tssn9LsjfmN0mKudeTKBR0g1tgYIDIfJYQjjI011mrnrLbt2dEn68XZ1ZuvsRt3d3YP3nn79V/+5fdOjp588slHnz57kU3m0XtrDIpACNFa6bous9JqFUPUfb04fbY+P4KBCw4RM6CUIUwieB+cd84Gd+32vTQbaX/y8vTl6enz548fLi9esZzRTAROLAEfoe260KrRdDqZ7TGM7rz9S9umfnz/k4wHn9ENrCwWGmkvuc2E6UTfKa1AqS5AREAiWI84QqkHslXKKQjgIlBA0GuvVMVln4o0SXWzUeOyLIrJwbXDnb1dq1W1XmJCJtM5Zfw/kZAOAGp7znGYTSf5eHJ+8+b5xYlMc6ON0aptKqW6IaieUua9izEOSeUIY5GkxcgWUDhnteqb9SrGAUIOMQDCKEYLDgb0BCE8SDEvEYaAu7b23g9HC+99iME7W1M2BCEKLhnnhDJCKBOMUGxNHT2mIo8YLc7Ozk6P7tx7597bX5uM5+vVSZ/wgxuHt++85r1dL89XywuCubOhrbeb81eEsr35HuPCGm10xxEegnZIIkdFofq+VY0splXX/NG/+7d/8md/2LX18clRVdcMAwGke9XSzWw8nogiKIOIZRHn5Y41yhmLMBpP9natX2xr5f3p2ak5fVn39Xp9oV0nsyKhe0LStqutV4hhyhmBIc80EMZ8UBH7iFxEl85fg58FAgIROwAfQvCeAUoJmXC5Q2UJgWjXOK11q1mERPJsYh1o1VpjAIBxwhilFKeCXz3Yt8acPv9oc/EM/Jfffu8bd37zt37ln/zu+x8/eHZ0vLo49dYuL149f3y/q9ZSpmmaK4TB+YRLQTnC2HsHEZjgvdouF2fWGMb5aLIz2d3Py7E2arW+8ItXXdcsFxeb1XHwjiWMZkmkxEZAQAghCAsupEyS6XTv1u3XQgACuFpvjNWScmWt0bHvO9XWHbIUBU5lKrmNvqm3IaIA1gUbQAw0lEF+AQCAaIzBKB9trdoOYwALkuVJWu7MrnnvcaBdW6u6pr8o3uPmld3GwbrxQYO3Nk+LndluUfCX2rTrldpuJeNFMRaUYx9jhGgsEIZ9oIASLjGhMQRDhevVJbEZ4S+gNPjcPuQyI8x/HuwOfuA8wSW3zHtndd8DgOraQUzIRSJlImQqkxSAcMoNYoN9dlu3223dd4pQCUBUp+uqiWDT6Wg639/Zu9Z3jTae8XS1PDs7fj6e7r7xzteSJF+cn/zF//UHmBAUHTgQIuFCsjRJMBQTrgNsVhcvjx7ozhBKRkXRtTXGtG/WHrVlmnrvVd9RRCTFLqKAkfHeGKuM8gERyhgmDnC1On919rLte4TAGkNDzHSRzcaMCMY45zKGiKLs9138AAAgAElEQVT24ClixinwCEWKIvUeMEEIMUokoRJRPkB7yHlBZc7SaT6lEcB6q3tVbzrbhoyRQrK0aOrLJHdCWfDaGIUQzvJRVZ0dHN6+dfefTnZ2EcKb1cW2WhFZ3Hn9TZKkeZo0m1UwfTUqJUFpVoQQEQpBa0IAsS8eINTtlhAyme7LNE/KLM2K4VV19OKR6tu+a1pV664nGLFUCpkyTK013jkKIcRIEWGIcMyuHd69dnjXWnty9KRaLxhlZVEI56umCxjFGBAFX6Spza11zjkkiPVR6RC1Cc5CBAAMEQGOEB0gDAEgeuPsYNoRwolzClFSbzeMC6e1EDJNR9Q5u6nOx6Pd/7gQKin0hLw4Pl6fHgdnGWHBQ/Cu71trNeeDly8BAEopAATvtFaq77XqBn8v1feDFhMGy7QYQkAI4S9s4cLn6wE+//CFkyFCOMYQYojexxhiG7Aiw7McVkKS5Fyw3f19a621thyJyc4+F1K16sMf/0AK2XdV22yt0cuTi8lsMpntZcXIOZekbDKdA8BovDOezgFgQAR03zlnKWVGK0pZOZ7uXrt+fnpUFOM0Swll58szra1XPfiQ51ljrUCQZmNCZdt2EDAps7reEClDRMtq8+TZg8XFCoRMxlMqBAbEMMmFtEHb1qzdmdaKMR5JRDKhHhDC2AdGGOMyaA2EXWaHOBcu7zMjQmImMAIUDY8owazgyYRLYkzU2vcNeMMoRglHAgX8OWcJI4yRtR4AZvP9g8PbmL5Tjqbj2SyGePzi0bPH972zcjS//kYts52rBwdLhhmDvSv7XVtX62XXNJShZrX03hutvPfBu0EhlKTZbGe/GE+Bgurak6MnA5/XOhVDyKXMhFCSW28hkhCC15oApkIImnIauEg5E9du3MEIby5OTl88WZ69KMu54LI37aZauegDeCwIpxIgMcYYrVgmrQ9G2bpXfW+U7o31EDz4AOAhAMIREYQRGwgsqm9PT9VytXr84BMuZJoVe1cOdg8Oqe3t2dFRWcww/k9sBZwCBs8pn+RTisjmYj1U5xhTkSRDnxku/VQoAHhnter6riWEeO/7vkmSHKEwoGwxBoQwHVhAf3/E8Lm3Drl8/V9uEQgDAYSYDy64MHRhlOooZarvGeeUEK1b8MFbKMfT0WRuu+7R/Z/FEJM0SdMcADddV9Xrly+PGBfj6bxtqkuTC6uPnz8eSPAHh7cvXr3su1YIqbVSqtvhBzdvv1mORtu2Wly8ckFZo4zqKBKz+X4wRgg5zseT6X6ajcG7CASYIFxG5Ou+Xq7OVpuLum1I8JGxfr1qN2tvHMEIYcI5pGkxKqf9auXAKUptXjApKWUsywVmngoDmCIKBFFEMWDOGCJAeAoUcIgcEU7liCYFSVJgBSPQOwwkTTKRMxjLFvtat87brlU+uDwfTabz0Xhn9+Bwvnd1sjN9+OkHP/rr/7upq4HjQAiBerM4O3rtzfmNt96m9L2+V9V68eLx4xdPH7w8PmrbjUPOOEOAEUIwpYzw1958LwRvjd5sV1276dradLXRSsg0RsuFzNKMYMop6traag8+eO8xBkqpTIRkUGSj8Wg635lXm7Ojx59Ui1cMYDKdMCa2qja2Nd46ZzEa2u0YUcaxlISEGJ1z0nrd+7ZvO9U7bVRdRxdD9DFECAPxh2NCApIAEAC2fROaCpZnp+cn6aMHVCnjXH1+/Hz/8Db8RwM5ME2DXRxPZrPp1LhYLS68d0maJWlOKYMBHiaUMT6QLocoZsY5/9xZaZj3McTBGB0TOiyGv7cDfD4uPYE+/z6i+IVRLsIoxAAx4Ig9woPT03q5YoIQYHVVeReK8VTglIuYZkXw2juEUKSEA0Dfqmq9iQF1bT04aQ4m3Umazeb7o8msKMeDw+lmdbFanvV92zTV7bfefvDx+029VG2VCEZIgQmToqjXS1HKnZ2D2fxaXhTEO8llWhQsYVV1vllvmqaVWUmTsQ5BmW4wfmKEROc5ZXk53rtyfWd//+zseddujFamrl3XY0q67bYVMi3Load3aegAiFNOKbPGI4djCAyJRMiRLHKgxNsEcxu8CQbAUyo8AmtVs60wG2dFmWbF/sGNg+s3kiSrNsunDz/++IP18uJVvV0JIYVMGefD46HBoGCuXr06LwAAHh2Pq/X5rt598ewTazrvDWGkKMu8nCSyYJzLhHdt37V1tT5Tqo/guJBZnlurEYAQTCCMMYoUIyk8Q31nnLKRWJ+mJADFJBVJOZowwtbnrzariyxN0+zg+vXb0cOq2pSjcae7pt7qvlIhCsHSLE+SFAAQcEiyLAZd2ExJ3WtrTUPZkElltHXOheCdsyh4kaQAAJHY6F2IIYLpdKMsbat6NJ6dvzwONh7cvvMPpuP69OjJx+8/ffZk79q97nDba316/MwqlaVFKjOKSIyBAAYfEIVgvTc2WE8RTWXOhXTOuuBDcJSywavQB3fp9hwwfEEkjmH4bQxx2AqG+mdYTs59vkjCYBMNIQY04O4AnnJrTIwKwHedqpt2NJqmWUqJNN71vSEMBJOcpbRIteabzZI0DKPF0KifTOfT+X6eR8b5aLqflbO+axERTGQ++OeP79ftxavjZ8OeTtnQR7S92U7GM4Zllk8JIQhRQGC8X683TOPNptrUlY6ByTSVWa9taDYQMeNCa261Gqbjtas3i9GkTNLF8qxaL5RVMUSjdV/XXayiDRFjhBFgzLgQkSCKsRBtuwDsCSK5EAVLS5HLQLEyDhGnlO673vXAPIgsEsAcz3auzGbXx9NdSqmz5mxzdHL05OToidJ1kmZSSoRws90gjPNyPB3PEsETgdnnOh+GcVmWzu1dv3WHC8oFCx5ElgshCZEYoQ/f/95QDl2quimO0digkjTHEISQqZQAEB3GlETKnLVGYwQBDZ0tyorxdG/vmu7bxavn2/UZJoFSbG0fAwrBjsqCu1SIpK2I6bYYA8cgKRkMCwMQG73VPhPaSO6MH8nUGtf3bd8q3XfKKmMH22JwEXkffAyIMEolIQRhTJtNOxrvbZaLzeJsdzyj0/HlpVsAB69ePHv5+P6zR581rSGUX6yXq7OTQQzB2MD6wJcVi/d+MF1zFj6HLDC5jOAc8uK9s2A/31swiiEOEx0jPGwFl18OSwSxSyDIOx/8sNt8US+5cAkTeVFsVgujlUwyyth6tdquNtP57PTZ0zRLR5OZECNGWfA6BE+wKEaSENx3bbVeILwJ3mutMEJcyJ29gzQrpEyTqxm9cWezujh++fDD9/9aJCIvx5S2TaspB8YLhHCWTVGE4H3TNN5aCMF2tdYtSQXQYEP0EWunHVJAWJ6PzrYvKWVSJJKw8WR+bf/GzuwK4xysVbJxohNcIISNs73ujDObi3NECaUMccaFRAgJxhnjA0ggCEKECCxTxAUmYHwAEzz4GA24EK0gWGTpLC135geH1+9hQu9/9OP7H/5Aqy7NCsa40pesHoQxYWxgd9bV6tqde1cODimGdePauvLajsq8aVbf/M3fefHsydNHny5WZ13TN2213Tw1vcGUYYopcACIMaLgIlgUwelOcsYIZgx775HVQXcexHi0h3GFI+RpnqZ8lI93dvYODm809Wq1OKvWy4ihb5VxmvFUNRUATUSaSzmSvNumTncEY+bj7mTuovfWWmsUaANYBRoIRdnIuWC0atqua+um7ZXulPHGWczTJM0QJRGIc67r+9C2dLSzX61WBIAQ9oPv/BlEyxiVaXnz1tuPH316/PRxcNr0/Yc/+uunn33CstITyZhgXBijLpPGMGJMOGe9d4N5bd+1i/MTLhKE0P71W87ZARw4OXrS9w0XkgD14Rf6+scQPfgvhFaYUEzoz5vdfrEPBIfXqyUAZiL1IQZtAELTVk1bJSLtdGe0bZtWyJQxQhlDOFhlvLcAUI6nCGFr9eriFGHMmGibbTGaplkhhHTUFaPp2/NvvGbf6tW2qurN6oKt6r5roicAAD4Ya1yvXNdVECBGgoELuV2vLvlxiFKMnIveds5ZJljwHgHO8lGZ7wQb6tWGEOCc7s0PdqZ71ureKKV7pTrj7Fk49tFpZ6N3yIceIRRBaeWDp5SmaT7Jp5lIcQjeWQIEKImU8HI8z3bTgyv51d3i2rV0PH/+4NFPf/ydkxdPhrrUaNV3LS0ZAMg0Y4wNWlshJEZIa5Vw9vbbXwKA3tLnj44+/MkPXp08H80O1vT49pvvXr15c3V+sTh/tVidLS9effj+d61qymKeJrl1XQyBEY4Q9lZRSqM3EGy3aRDG870DIeRysbSR9h2TUhajkhLIi9Hu/tXJbPfhq+d937Z9zRh3BPrzYykKJtOwVRA1pyQTaaSq6xsR2U5Rbk+Pmu1mNt+XUr7+xlfPT4+MM4vlhQPkmSQQQ/CM09HOvNm2m81mCLxSzivdWRdCiJxxIhL68ug5QUEKMcrThFNKSCKElPLV8aPV+at6vTJ9xwmbznbTcuIJXay3g70EIQRjEoJXfa/6PkkzAPDOWqMHb+zBKf/5408ZE6PJbMhfGiFsra7Wy6wof9EC+McP8nMWuZf2J9boEAY6fse4EEIKySnD49k0BjaQkQbOEqaEENq1tVLdtlphTGSS5uV4Mp1nZZ6WI8YFl2VZzvtdVW/rarVSdeecRT4E7w14hknw2nqwwTrvYsCIEsYZwZgDGKeRVl1sQgzUQ/Dea637PlqPSChHE0KAYkKTXMpUezvQdPNyrHRfbVfburLW6LqOxoJgspxiQigiOBJsQ4jgADTCXrfgbbF7cO9rv/r2r39TzHeeHj94cP+jLJve+9JXr9+6F2NAKAAAIRRjgknQWhGChwen+g5hnGbFt/6rfwUAPsC3/+j//OijHy7OTpqmwc8e3rn3rmq32ihnO0ZBMDSfz375V39TiqzdbDari3prg1UQPUSPwRXFuNtsULBJVqRpPp7OBWcEy9VGlUWkFGHwFHAxGe/s7k2m83I6K6ezbDW2Abyzuret1s7jaze/VFdb07eMoTIfTfI0T5LxZJJmxbZa9V3z9OHHzflJjHH36vWDnf0PP/0Zz6ZCSEwKbZQNMJvtTGd7y9XC+sisoxQZ552zECgA0NOTE0agLFNB9yUjAMgaDd5zISkBTggXbO/KlXznmixnm7peLd6HEGNwAJRQTDAePOmd0QgAI5Sm+WxnD2NitPIxVtsVQtZoFWJomyqGSNml1/l/8TEAScNOYb1z0VvX467GhHCRFGnCJVOuo5QxLuigkmWMUoYQBt1b75XRIcZW9cpZG2Lat7ImlGKZZpPpfHc36Tu1WS2b1Wa1PGvrynQ9wgihEMBbY2IMiKbRWeRDkiZDXRHABo/zMg/eY4cp5QBgdO+0i9EarSilPE2kTAljjKeMpyEEIjJpFRdZmoz7vjW6H0rIevkKIYREkerAkhwIozShTBZZqfu6b2ty9Aw92pGL8cefvv/+j75dZNNxOU/SzFmLcEjSHAC06srJSKkeAIRMhzpwOtu7c+8dIPTsfPuTH377L//sD0+OnmT5SCaJsSZ4E0z37NFHTx/cx4QgSq7fuvfee9+IJjT19uLs5cnRk+XZSd+3BBPBMm91liXj6Xw8mydJPp7O86K02n92/0HT1Vq3XndJll25cm3v6o18XAze8eVsPxBMqGQiFWlqPdHKd03bNpXVbZ4m9+69+c1v/e7XfuU3Hn/8009+9t3lxav9/Sv7B9eXF6+qzXKxqibjiQGKURSSE4qUNjECEFKWqY/Y2JC61CjbG+VcdM5SmWf1dtm+XHbrxe7OdDIpsiwHJovRVEhBCInWYkLL0ZQXk23X9327rVbNdoMJSbMiSbMBQ9B9H2OIMaZZcfPuW0marRfnXd9ghDrVDrtB8L6pqzQv8nLS981/kUkfhsDVnzOIxkNThBAAH2NwPoCzMUYKwQemrREJl8E7yhjz4nMElnHBP9czDEea1cXpeglte5Hlo53dg535YTmeMy735oezyT7jfC1ks155bwgERDyAt5EgQFZHcI6xQC6RNwCAcjQN3nsTSIQIWGsVbO+cCpUljEiZsjTJkpwlCRcJJgScF0wm03Q8ndteNW3VNFvVd2fbbQgOt4q0ynLZUNnIIk+TiXc22PXZxd98/D78yf+ejscOQVdtvLWjYjy85hGKQkhMSAyBcsw45wOXG6HRZGcynQPgh598eHz0/Pj5E0olpbJrO++stfri1cvX3noXnG+qC8a4d+Zxu9mcPX/nK7/+9jvvjP7Jt05ePHl0/4PV8txpbY1fL88WZyfnp0da9TfuvDHd2aNEvrx4dOPW7c16tb44bcBPJtOr16+X47Lr2qatPcWyHPFsNJrv71+7O97dxyj95G9/ONs7nF/cODt+Ui9eKqN3rlzdPRzP59+6dvPmavkqy8vDm69vq9UPvvOnf/WXfzyB+dniYrta8zQtyh0uEt31yppUSg9YcPDBmySkWqheWYuoMm6zrdrz00pSiCqRh+PxNC8L1dVts1oujo+ePax7XxtHRPHy+MWLJw9W1VKrLkky+FwJhREWSWK0Mlrl5fiNd75+6+5bfdeEGH/wnT/56Gd/09bbyc7eZLY36DUJ/od9gP//CwDD350WBk4iAAAQFAAQRuQSbgCvnQ7aX92/GsEarerthhCS5SUXydCmGAxnhtO2NcZYZY3qe0WwbOsmhlfVxUokRTmaZkUpmBRUKIrREDsZgUoGQLyTEFrruhhD8C5G74PDhAz7A0TsffBBB++Did71HnkUQDvNrDJaSVvIxDDGMaEUMGcSKIlUEkIYYb1MZJlp1ceupy72nbJBdaxPOvlqs0qKQjn9cr1YL8/SYnRw/fbO7KrrWqsb7ywXcjBd40JKmdTbzc7uAQAMH157692d3YPTl0//5rvfrjbbrCivHL4ZQTx5+IHq2qwoUQSGGQQPwV87vHX3zS/tXbleZOXNW3dnu7sAMB2NVLMlGB8/e/j04UdcyLtvfmW+d61abY5fPOrq7ua9r1y5drPZbiiJCLQUbG9vf+/qNcrw6enzk/OjXluejZLRRJRTUU54OtXO3vnyr2RZQSCevXz04Cd/3VSv7j/4uJxN771x8/CNm4dw0ymgEuaj3bd/6ddenD57/8fvM4ISKQgjGAIhnCQJ48Ea7SI4HAG4FMFxrCixhtHvf+ePheBXdvdv3Lp96/q1SZlhQrTqQkTWaOes8araVN3Tz6xHz14+Ozs96XSHMc7L8eBxGUJQqmOBB++9d1lefuVr3/xn//XXJgw4wB/cuof/Lf3b7/953zUxBilTo3vn7C9KcPlHDhcD/js09e++92EI2kCXENMAUwF4SlnXt4ODUJLmjPEkzQHIIMgymlJKGReUsjQrQppNdnaTJKeMqb5fVRcxhnI0HU1m3XZbbxfadIQAZoxRFoBRnIKRYKgxhFKGI9ZOxYAJgQG9Gbz8CAJMCOGYCNLrOkQfnHO+cc5qa1TfEsqkTBEewo4YpYxTJifziHGva626qA12gboQnceYUCEiwb2HjWk0EItFZ0PXWVvCZDrXLfPBSZlSigEgzYrRZCYzWZTjGD3G5O6bX3n9zfdOj5/99P3v3f/4A2/xzt5BkhZZMaZUKqPzcjybX1F9uzg5qpen/N6Xvva1X7/7xpe+uN3t4uIv/ugPXjx5wNMRQgGCX529+vqv/dbv/+v/OXj37/+P//WDn3zv4ux4Mn337OTJdnNhbZePRntXr8129r33Z2cn68VZgJBNJul4T2SlQ7Tpu23bjsYHjjAmxcHrb6SjrFo8T5k4W16MFvN6fcEIvnn7+vA/PH/+UGk1mswO77wlZbGtVqcnL6v10hodMZVJZpzHzkbkEUZAqSDIWkyfPvnszbffu/vWe++++9VxLvT2QtWVj16mpZTp3pXD652K6KTStmvrrq0pZdQzypiUaZLkXMgYg7NW9z0XMnjftfVqeXb6EvopHI4AE7KzezCb75+/Om62G+esSNIY4v8LCvSPHz/fTfvcpCcEIP4yucjbiBEmAiHWtXXfKaMsRJIm4/HkSl6OrdHObKw1ru8AgHMpk5RShikgROPAcrRRq0731va2r2ulOms6TIBxCQS7YAGF4DXByRC+TTmLyDlrbXAA5PPrRQjhGCMghCihiCGrIkIAEAFsCLbvdK8ALnMPKCKMCyHTAUajAkXnGcWJmOQip4SA8x4IpsQRePHy2flmuam3Xa9DVavO1evVvbu304QlIh8YWUmapVlBKJvNrzhnk6Q4uH57/+DG6fGzn/7orz77+IO8mAbgVV27Z08mo9FktluhwJgYlWPV1IywKwc3glPvf/9PT48+s10jOO3a+vzl0XqzPLh65833fn002q3q5sff/Q+EsIuzl6+/c/N3/tX/WNf1+z/4y5/84Nu7O9PgunI0vXrl6tXrN7OiqKtVs90oa7CQTKQRQBkvAZI0E5j1tl+sz8DbvMjKcnwwLlLG8kw+fnL//s++Lzm/eft/AoDzzea73/2jR59+MprdPLz52o07b1Tr5ZPPPj09fVFtFu225UJibXR0HiIeuvGAGcH09vVbd27dvXl4M0/zvq6qxUoQPJrM204hkuYTduVabDRWZyeh2sQYeJmYJnhjjdFK94RzSgghFAC4kNaaxw8+/Pd/8L9898//XV2tdvavrdYr52wxmitl6qqKEQEQaxUm9D+bcPr/ZWDwAQME8vOzHwAQpRBCBBtCwBEhAIQxJmTIDwXsAWDvyuHuwX6MQfWbCMYHZUzvnOs1b/saIQbgCaAkkzIZYYQx4pRCjKHvm75rMQqUJ5QyAlQb7b2yABy33ttIAybggw/GOG8JsGAcQtSBDSGG0EEkFBghlAo5hDYDwECq9VoH74f2ORAGAAP9ZlutgEA5KRnlQqZpUVIkjFbOKgV+vd4s1xdNr0iS0Qj1euHbhlK03m5HO3fK0XRbLZ3WPBuJYoyHbN3Nih0cjkajrlr+4Nt//PEH37MOKVMTIc9Ongspr/zGb733S7/eb1fFuLhz963t9mI0Khk9QM48/vjHZ88eNM02eDuezu++8e5v/f6/2bv1xnDzrwLce/vLjz+9f3jrJgAAIY+ffPLo8YP57m61XXGOZFFM9q+Pd/aYlG4dbbCI8gCk08Z0Fx5WwEU+mg1dagiua2tjTRUceEsxZC1JKHvty79SrV79+IOfDiESVdu8uji7WNX7125fv/vG3rUb4+m+Vv3Z2cvjZ89ePPk0eh8MYOcxeEppJNGDpyW21+ezvckUWtWtVjjy4On5qw2i/PR8YSLMr71Gy/n2b/7Dy+Mn6ShvdKAYJ4hkkx2apUDw5/oV8erkOaFsMp0/fviRNcZaHQBzVmTFhGDYVhvvMAQWPQiRW6Ph704C//mVEH++wPl7w32R1hh+jtmKmATvkMeI2Ogc8pgACMrariYUffNf/N6vfvO3Vsvj9//6T5aLkyxPnNVdXyndeg/OIxdZko6yvERgfcTGaoRxjD5gPwTsWWO06lDTccSJYNgJjBhLU0QYIGO2Vbd2lNIsH+WDSaMJGFMHoe/adjAjoYJTnnjBEBkiM6yx3mrGRDou6mo1GIEBAGF0EAYxJBavzrmQKlVdrxKRYcaAMQCodduoplNVJBhLQsu079WrdomOxVb5w8Obe1evzfKMYtDaQrTPfvyzb/32f3vn7p2zxx+9ePjJ4uVjoirdd4jkWoU7Nw/6rj17+tPbNw5+9eu/vXtlP1j/t99/MhKMOlJk0/F0hgnZu3YL8dQG+MY/+51/8FQIh9e/crkednfJ8dlRpesdcTVAvHJ4dzTdlXm5c+1uIOTps+dni5XWHlEmJZ9MxoSKqPX2/Gyys8d1V1LE84LKDBg3ujV93TXt9d0Z5TyuLh4++FAkyfnxiQvs9S994+z05YP7P6m21Z17X7527V5Wzm5l48Pr995779eePvjoxbNPdFOrvu76bbSOC0b+h9/7vXI0dcYuFq+269o5QCgNRHz/e3/14UcfPPjs0+OXR6fnx2eLs223HSDnXilrDWYsTXMmJY7gnSOEemf7ttFGlaPp1Rt38vHEWde3xpvQttu62iilBi1kCA4hBJf++fD3aphfNM9/wUAQEMBlQ/ryMIABkLUmBI+jh4hwCIRGwSQTgqcZFXS2s5fmiVet850QlAncVCvrbfDBQ/QOWqX6tuu6tiwmCCLGGAFCl7sIAYiMMoyJ9UF3fb2tVN+jSAiTkcUQTYgYYYwR9s45q41WWTpiQhBE/FAxWt2b1uhuqK5C8N55gEgoBYjOWowJoXT4iQBCCNZorXsIMfrgQ/DO62CNM84a48zp6fP1atF0dYwhQNRW2WAAIdtr1ata1dvNels3vaqjDwjFr3/jnx4cXO+q5dP7Pz1+/qCtV5Li2fwgKYokTa9cPcyLnGJfFPmNm3euvf4G9P1Pvv/np0dP0qTM8hwT9tprX373n//e3sGt/4e4Nwu2bTvPg/7Rz2bN1e61u7P3ae4595zbN2otybJLIgYMdlwmEMdQhR2XCSSGIlSoAsovDoXhhSoKeKCKwgXEUHGR4CQlJ0S2IluyLMm60pVuf09/9tlnt6uba7ajHzzMc6+uGxxEpDBqP+yHtVatNcf4xxj//38NFWk2+Kd0dV764Z9sdJMvzrJeKhibbO7feO6ju5d2m9odHR9WdRMQi3qDbLg52bgwGG0k2SSO0oRThpB1JgSESBSo8Ij4gCgJXrVtXbbrBaW439+01telxJx5RJUxy9VysZzn+apq6+AJY5yyaPvi5atXn59s7whBvVeqbepyTUeXXziZnbz+5pdWizMIIYrTJBmyKLp759ZsdjbPZ0wk2XTK4hiLIUEG2XXnVB+pNLxnVdSBLTopFKN1nPT2L19v2qoqyvnZrPWVlK0yDQKPURIIDZ1HHf4eF/v3MoyWjPMuwAihIuK9/jDuJct8qUwtm/Lo8J1B2kt6EcZe1jJOBiaAUV5qqVSrWul6baQAACAASURBVGWNp5Q1kwknzAXEBRFMEMrAe+McJ0IkAhAr8oVsG8Y54z7UJScJwiyKmXMOrHXWWqUQgLU+IAgBMRr3+oQnPak1OOdVgxBWbVuXhYiSrD+kjMm2ieIEOidMgA5FYq1xzlnOiaFYSykb0gpMGaUMCOpI2AhjTChgRDDhVFBMTGPWxbKo5ieUDnrDjel4e7o5GI5e/sgnj04Ozw7unD58EBxMti5fvf70jRc+cjybv/rKl1armZQNOH/3zk3G42w4dcY0SjtMXED5qvRhvbV9FQAIJ7v7F/6p0/Hk/vDy5RuHt94cDzYohY3NrQuXL1sLZ8cHdbkOwVPGeJQk/X46GLI4c4C8c8p6BF0xjXZTiTCmlBEaERtM04D3QkQogFZSyaZSGonEtE3ZNo05qxp1Oj/vZwdJmo1Gkwv7lzZGG316EWfJ9PrT1Wq5XJ7S48X63bfefve1b+bLGfKACWE8EVEy3t5tgBkUrcuqApRNpgFI1ai21d5ZQoggDABw5xFHCEbYWuO86wRjpW67pFkr6Rw4axB4BB3W32PCArgP7Pvf/0h4zAJBEMAwQrJ+Np5Mkv4AePTw4J2jg7tNvdjf3d/Zv9Qf9r33XKQBMd1CWUvvLMKYMYYJKYuSMhyzKPjAmIg4d9Z0GZCIEsQZS1MexZ3rYNPWjVOUYYYjzAABxTiIKAMA2dQ++ICAUiaSBGPiIQDAIMsYIut8cfLovtHaeYs98c4p1eLO4YRQjDFQhgkJPlhrHFgA0EoGqxHCASAgAIA4SihlQGmHI2TOMcIQA62kVVXTSKPPtKnqat1Pkn+EvJGlqdZpkl3YuzTcvnTxqY8/+6nPPgsw3tq9f/utpi4x4ev57J03X1svyq2diz6w4eTi8uz4/PSRd+78bDEvyp/42b+M2Z8xD98dxwe3I86SJOr1sp2dS5yKwzu3b73zxnw5X69XRKSIRpwlATPjHrvfMQTWOReCA4+8A+eCcxiAAMaAnHcEEwgkXy5Pj49Wy6UM4EXUeFCY6gBe6souz5cloXQ0Gt0/vB3F6WCY7Vy4snft+StpYq0hLBm9e/Pdw6OTWnsLvLWhtUF6qLX1iJmAK6kaqVvtiqqcLc6cdcG7KEqybBAnKUGks5YkBOfLWVUVXESMR0WxenRw5+z8tK1LBEAo7iYyBIsJ4Zz78EF/3//vAYAeh9EHr0AIABjnjHPkXQhOMDYabwxH06SXYsaWy3Oj5WQ6nU630izDBEMAxlOESQhgLPI+BCAIYYeClq133gcIGDMRcRZZ59umrcvSGKO1QZik/XFvNAmAKllUZSF1a4yzSnkdAAHBnFJBqcCYQuc0iQjGDBPOKL7+zItb2/u9/hAAvO+y4eCs7aQIOy5pCB4hhBAmlHZ2G5gQQoiHYI3WRmstMaMYE8o4prQrKhFMMKEIBUwxZpQKTih1wUkpy2L14M47jw4flPma8thjXOSFDTjJxtPNjd39y8+8+NEXP/rDz3/4E2k6Pbh36/z0aHZ+LpUOwA/v3b13++ZiNj+4f/fmu69/8+tf7PVH+1f+OI74g8MGuH3n4dd/9x+AsbHge5cuXXvqRSnb1175gwcPbld1tVoteNrrjTb7400qIq2NtYGKOOn1g25C8IApEhEizHsDQRMU2nymq5x4H6ydHR2dHR97i2mSSSDLqprPF8s8bxplAgDlRMQO0PliNlsuatNK5wpZtc4hEdN33n6zWC+VRzzKgFFnrPHWGHd+eNAfTRgTtdI2OB3AI5BNyzklCFhMKWUUOtAy6U5qY3TwXkSJtur44GG+nDkLABCCASAYBeuM864DioY/Urv87v8fVNz/ZxgegAQwIWhrJUk44wwRUEp2iP8064/G273eKDioirKpy+n2HqU8SYZpzxhttC+NlrJtGKaUMmNN09SEMue9t7YsVm1TO2t8CFnSQ5QgzpSWxnqtHbLeQsMEiRglhASEAwnOuw6+Gryz1njmuIgAo4Pbt4fDAcEk7fWtMR1rlFLWNc46xkLHVumOWUweG4l7711wHcUCBQDrAgTwHgMAICGizg220QoTzESPIYLBe2NUU7dS6yZwCoS6ZVk3+mFTl4fHx+u6evq5X/nuXAA8+6EX3nnz5bs3X3cO8uUyrOpVVeuApZJaGtZzVVV2qkH/T2Nxvnjr9Vdf/84fOi1jwSiBrekuJ+jhwe2HD96e50sgvG4kWiXZZA9j5CFo621wxCXOI9Pp63JCKO4OOow8hq7ijDiLmiJfzE5kUzOeAYmNbo1BUrm2UQ24Uqq40lwUQjCEfa8/lA7de3hw+97N0cZk79I1Kq0DKrAAE4JT1hljrfG+BfBVWxMttdWdBBCnjOKhUpV3TrWNVtInFnWgaB8AP96j3q/oYUIZIzgQJRtjWkJRgBDAOaeNbT8Ib/5+j45f78ABDp4QwkXEeeSdbqqqaZusP0zTVEQJAHAREUfrotSt0i60TV1XRdvUzjuMCaWMsIiIJBDSKGXyvFHKtrJYL521UjYIIT8CzPJ1UUrZdr3wAIYhHmlB0sgShoIzRnVOGRizEHAIynnrvUVIHB/ey2eiU3HqoLUAEEVJJ1neaVw6bzumhAOHELZeGe+6vKsTvsSEKCO7H48xjkRCGUcIm+CEiDyGTh8bALyWAWNEiEgdw0zESRBp68KiaGw4Hdx8+08+SqkB0ZQLJk8XWhoaDS9cHGOM2qYZTccf+sTHeJT9GZPxxitf+dIX/8H50fF4ug0A29vbG1tbLuj18sRpZVop5VoFrO3xYGNfKRmJhFDmHSglrW5ArREGggCxOGCEgglWA/KCMKCCIdCqLdaFDUAIq5u2LhslHSFciIF32ChV1bPgPaEs62cOuLLaGoMwNNpUUtIo4oQ4hLySJQDhgjFOlDMRj41zWtXBGpKkjOBIcBDcW6WslrJRsnXOEcBdq5XAY8KuA08IS3p9hEkIHgXqrFG29RYYpQQIwsg7Bz/AAAAACGAAEEKeUiKiiAninGrbYjlfUh4Zo89Pjpt8uXfxMheRlNra0DYyXy7nZyd1VSMheJzSeOwciDgOPijZdJmWlE2xWkDwYAOOuMWgjKyLulnnztm2qcH7iIk062NEAYBj450dDEeEMcDIGB2k0UorF7zRuxf2mqrUSlprMMad0DRmPE7Sbu+3whitu6OgOxOsNcpqaw3BRMRJJCLOI+MMCwEIQZz1ev2u2+W8s+CNM49ZvNoYhLn1COOYxZRgRiOeZN55JHLtcV61sxqm6Xcf42//9pe++IW/jzAbjqe1VpRGPBtvbexu7lwu10vrmvPzs+9848s3nv3IaPynABzf+c533n3zm6uzk6yfbW1v58vZ7u7+aDQ22jmlRRQRcGWRBy6CdaYtwXnBIi5Io03byLYtbZtTRiIPmEcIc6MVMdoTI5sSTA0Yt02tnWE0YVHq66JtpaqlrKV3QIgQNIqilFLWtjUObDmbSVlGsRhPp03drJYz+jM/+5cf3n97uVpxQZu6vXfrzdnZI4JwW+tOn5QwwpAD03iEKGVey16UXrn2zPaFS21RrOYzSgilTMqmWK+8s6ptZZljQriIlGwIhcFoyBtWl4WxljNCKQUInYjSex5bH7z2uD/5HP+M0YELHh/8H/gc6xQAgHeYACCHCUQiCmh4cnaymuer4NPeILmwj4lwDtpGnjx6WNVlVdXeueB9W5feQdTviyhRsq6b8jEZmhCMcG/Ul23rvQXwRTX3XiFKEEemcd67/mDSluXZ+clwMHUuPHxw88q1Z/YuP7l36Zqxza13Xzs7WhutAFySjhazk8ccIEIY451KjXPWaN2Z11PKuIg6JxLnnLIqEMTeM1rsUN+SNN0bCSGEc04YASwIQ3HSWmUrAy6A851EOCEUWIRYNByPoyiTdVHXtYhSZ+HWO2/+V7/813Z2L2T90fnpyVvf+frhvTuMJ6Pxbl3pDj0aR4NDd3L/6KF3jhI3HkYPHyyuv/C1z/7YZ//Y1Nx84923vvNNawPjImjjlN7Z2b164wWE8PHhbSUbq3WxnEMwpjXJMJ4d3yc8uSDr/ngbCGNgaCTWheJigACK5RxjEaURZ9TJxhgdIzI/P3p4/6Y1LhnEyhhrvMzX1JGYpQYsAKBAwIAzBhyOWFTXOWjL0qRczOoV2b10hf7IZz9zfnq9rtaURVK2d249dfOt185Oj5pi1Wpp2tYajyCAkc4bhxiEMJ7u3Hj2w/t7TxzevZnPzs5PjqVssmxYVWvAmOLIGB0MIGackrw3IAwgSQGg27QAwNrvIw7iTxvIcsEYoww85USIKIrFYDDsDcYn57MAufc2zfqMcSUb55ySTW2N9ZhSkfTAB6zqtVKtK4ELbYyySnunAUgIxgPD3lNGvfPe4xCMsho7b50PyNEoUkomvcws2+PDe1eu3Lj6zIs7OxeEiFxQZZGrZp0k6WA8VEpKWRBAXResO0ibuuzu7kmaYfw4nr33jx0vfeCQOmuUkt2h4Z0LAJ0DLgBYY4xWqq5ZHAkWsTiSRjPO0yh97DMnpdE2WB/HLCAGAEAYogRDRBiAx1//gy/000zEaaOa9WxRNzUz3sC5bB7KpvYBx0k/TrM4GfT6wyyKsEia9ez+gweFhj7/7gx87jc/tzo7NLZhIkrSYbk8c05ubl4zTSM44YJOJhvB+zyfL5YzXRTzo4dlkSvZlsV8NN3NRtPNrb3RxuYkfZpSZoJvtPEBY/BWNk0xZxiCD8Yoa4wHbwEbB8Y6jBkKhgYaUACHAGOMunJ7AGOw9RwR4iEEH4ukH/UptMvJKL6wMxlN9/qDcV786JuvffPdt1/91ld+tyjzfDZr6sY5h7yzVlkPSZz10owT1tTl+cnh+cmhUZJQhgihlBHBaRR577XRIQSHwFpJOeGIIZQ45wDAO/u9bvP/L8YH4KXIAgBGmFIqCMbUIxwQQoxxRvDG5q51gAAm0+1e0l0TNSWRbg0QRCmxgDBqQgjBO+8tCeAx8IhxQAgzABeABDBWBxAQgAJYD8YHGxCmFDHRy89OSQ/30qFgbDieJknv6ODuG69+dWtzS0Rc2cbasFyVhJDRZKtjpna69V3ft5M8ctZ0zwi9FwaEUCBAKXHOEco6PS9nTefEqtvm/VdSSikivTRLsgERCRVR21RHB3dXs0WHRxRpAs5ZJRU4axTCnlKMMCIoTqO+VHU5XwQMcTaO+1vWGq1Uvl4Y7ZSxqFhTykSc9AfTQT8W/Hq+Wn/za1/jYjSZ7njvx9ONyXR7XTWN9u16Dd50ak4iSi5euf7spz8LAJubl07PT8fb5yxJiqLMq2I+nx0dP3p09/XDg3emO/t7V58BV3vTmLpmIhVpJnpZnPQxgaZ0xGZtMbNOGq2NB8DMIWwBy2AAgKLgEDgAgsFjoN0FIYCRMlhHCaEmBAh9kU6HG3Q07CX9fhwPmEhFFtN4c7QxEZz2Rn3rXV2WWBuMCQDxxgRngw9lsXp4/yYA3L/5elnkG9Ptjc3dANCxS7Hg1jkdHKKEIRqCcQ4w8oBc504MAISxPyEH8X0e1hpisQOCCACAsTJfnkrTCXwbwXmcpFEUd8UZEaWEcu2sUdboVsrWGiNEmqQJp4x5AEEC8Qgz57Sz3voQvGFcYBoBctZ45zwEglBklQcA40wvzUbjKRUUwG1d3L+wt39w983DB4ebFy5sXrhUrFFdlwC+qqr3weFdYSAEr5XsOGudwf37BGuEsNIKADDGjPFOeyZ4H4Jf6wVCCL/ng4IR7m5Uw/FmnPTqcl0vF+165Z1jXABBThutau8YABBMMUOUCkbJsD+oihXgmuIo6WUW/GJ2viyWSCSMeeKdsV4p2RbLuq2Wq2i9OteyWuS1tH66tdcfjj/9Yz9540r/xpWfeeVbtz//d35tNXu4MZ1Odi6Oxzvjjd3ul8Zbm1e2Nq8AbGzuvv7tV9arRS+Onrx67fLlJ9ZFPp/Pbr36e/ODtze3rwwH2yLOesPtdGOjrRrZFOvlcVucDNLIWVnJKiBAjCHCtXLSOgvGgvHYIuK97/zsPQZgGGklUTAR5QR5TNigPxwNh/TGU8/1+j3jYLlcVMWiVqoqF/l60SrZ6tY4CJhRjAiNAnPEu3w5I4QsxTHjHAEMR5PxZCvrD1vZdMuOcYYxppRhzigWMSEYnDFKaeWMx4RC+NO16CBgQN+3sEAIBzA+eEwYFxQA1vnifHasHcvzWb83sdYaY601AJiLHqU2KGlU6y0EhzBmmAChLIo4AgqAgUBwoGgIXoGzCHtMWCQYQkwTY4zzHjDgtqrS8Qh70EqG4Iv18umnnv+5X/pPP/7xy3/3b33u1//HXz07vj/Y2JhMN53Tp0d3MeaE8STNsv5IRLHRep3PV/PzTrELsO/cpztXc4SQUw4wJghRxhASXRm0Cx7nnNe6bSrVNG1RrOdnjInx5v5oYzftDabT/SRKlWyrerleLxkl3hnjDO6OboQZJYzzdVE6G1iUpdkwjtNWtoSugGBnFCYEk058kBAgjAlK6Ww2wwCtPnX4jcl8Nd7YvPr0h+BjTwAAj4brIs+L9fbO/nDU5yIui/yPTdOlp5659NQz3oSb775x/9ab7771alOqURZ5z8HJ/OQeUs44QsVplGWAUduWWheEeN1LvJdVsdZWWxJZq2tlGt067IB4cAEgAAmdVI8PnhHifEsx4ZxSBEkaj8eDNI5oksQRAwcgZbMuy6JpF4v5bDZbLhdlXbfOWkQwiTBlCCPiXZwoAGjqkmkOAEmaRUnaCbl1Br0sTZM0Y3HM4pgQ6EdxsLLIl7KptTfOOwQseP9HE98PDvL9uCA5LhJCHcaIUhZFSRQJqxG8l4dwEVFK39tZefA+X86M0SF4LqI0GwRFMQGwKutvdZ+IEXLecataQIgAyIZg0sGDEAaMu6/t0t4AI9bmufMyzXoi4Y0qvdc9DD//8z/5zEsv/U//3S+/+srvr5N0c2vv4hPXqlK2TdPVTzvRu8FwI4qSLgl+XPJ3LvjgnPUIGBehcwp4fOHpRJN853piMXHOWmtkW67z2mi3Ol8m6b3BaJINxnESJVEcic3ReFrMz2pZS9lYK60lAI7KhnHOaS+K4jQbxGmGEG6NxIzG/UGRLxHB1hrjJCBgSRKLDGOSJsNytS6rQh89mp0vAODk6OiN1775kR/6kdf+8AsPHz7gFNbrZbBK17Wz7Vc+//eefuFDexevXXn5o+8hwQAz9PTzL+xf3GfUj8d9TAQmxGilGifi7YePjk6OD7UzJljrbZryjY3xanEM4KWSrdKO8gCyMkpZDYIA9oBcsECC8x6BD+C8x4Cwp4JTShD2w/F4NBkjYsh/+V/8zQ5NnK+roi5Pzo5e+caXv/blL9RaaR2sIxCIR9QHZB0KHnPBCAZGOSDw3iVprz8YMcaNMcV6hTDqjzeSNGNRLJKUcdZLOIKgtWrrymiDECKIAXqvff9HwgDB49LQ99AYxsAAHrdIHr8NeYBACAnIkuAwDb20lw2GURRRFmEWx2l/srEzGE8ZZoRQykQIoa2lsdZ7hynlPKJRJASPong4mkSMcEYJZ5QQTDAgDxgoo5yzgL3vNFDAIwgI0SQetU1DEaRptrW91+tlp0f333r1K5huPffcExe2By9/+qeN1kaWG7u7z774ybqqQwhS1rKtrTGUsl7WHwwnRitKGaWdHAay1hgllVGUMkAQQggBQggIACGEEPJaB+cwJiKK4ySL4gQHhAIiQOu8LPKZamrd1lqrNE23dvazbMA4wqg7ZLw1rdXKageIAOIIUSXlajGbnZ/ky/OqLihlmFJEwBPEhOBRBAgpI4nnVV1b5zCLAJA2uijyB/dv/eGX//Hr3/xStVw4KxenjxZnh9V6eXZ8L1jnnT15dH92+MC2pdMqHU4AAILjUXL1qRde+tiPXn3iWsTphQv7z37o0z/8mR8jdFTm67ot66Yq1wtVL5QuekkSgtfGSGU1EB2IskR5gyj22AfsA0II4UCQBwfIIwQuWJEknBHG8OaFva39fR8c+ZVf+RUAsADGMYRY28p7t956563XrHUh4G5Jeu+Ms9bqYKVXeUz8ZDIajzfSNOlnvSTuGaeC9+vVAgBlozEXMQLwwVurOBBrlKpl09TeWIQYoRQBeg9H94EAeLz6v9cyKIH3oumDAWCtRs54b5E3cRwPB6NsMEiTvnEgokE/m8Qi8dY6Z8FD21SYYG2VdQ4RTwQXQsRpL836KJhOrwuFTojFOmO8s4P+GAiGbmO2gFAgVBDKgsNaqc3dy0kct21NCFnnyzde/drr3/56pfjzn/zINIZPfvpTMvRuvfPq3Vtvzc/OKlmD84RQTAggMNopqfqDCY8SzmPGIoyR974zZnXdd7DGew8QAEEHf5NtE0IghCZpr7MV9B68c4IzayVAiJI4BFO3JSAfxfEzL3xYiAgR4JR1aRJCgTAaHKaYBQiybYpyVZRr4zTCRMoGGOWRiOKk1x/ESeq91VWttZSqYVHMOddWGqs9uKZcz84Ol2dzY1VdFgd3j9bLmbFovjj3iFqET2fnp+dHjx4c3L39VrVa6qac7Oy/P6c86W3uXdncuzKcjDGFYMj58X1nZRxzwRHnKOZiNBx2XhPaOOswIBo6VVmMAjjwBAAD4QEh8MgjhAA7b+MkJpRS4vf2Lk6n21qV5Jf+o18JBGICw4QNRj2ebJ89Onr7jT9khEFwTkvrGudM8NLaOui85/X+Vn//wv54mEURxeB9CCKKyzLP81ma9CmhjNDRcAJWcSAUMy1NUxRKKhQQo3FwYJR6LPKGAsDjP49DQAF9j7AgDAHAB+S7dvT7AYCcF5xyyiPO+9kgS1PbqOX5OaODel23VcUoFyKx1iqteZRYZ61X1mhADjNCKVGqWeczqepWlkpq66y31molq1ZWTSJSzhPOoy73j+Iej1OKIxQoIawq12VZNFKulsuqbAhjTSs//w//zu9+4YvD/RdvPLFz7dkbz33spz712Z/K89kqXxw+uFXVpUcgWy2V9h50K/uDjenmXtafCC4YEwiC9ZYgxCljlKEQwDsUgrfOGcNZTBDDQLzzyANBrJeOhhsbcT/+1/7tv/KXfvE/3N7fPzq6c3r2wIMHFETMjNXW6G5jiuMsTfqcJYLFo9EkGw6dN0WxWBeLVtbKmY2t3XK96mXDj3z0M9vTvZOH94vTs8F4YnwTJYzHCBGHiKMkAAAlkCT9OEm1NEVZIxQDGyyX7eGj02VV3b5/a7WuDRYOUe1gNZ8fP3r0+te+vDh+mGLa25j+sSlePDzgzF9/6qnd3WkwFQK1ubW5Wp2v1/l6vaob6YzDATgOSRRRxAFIcBiRKI6HIhp4oFJaSuMozTAKlKCLu/s7Oxc4tlZW5Od+7pesZSQmiIA0cHq8fOWrv/P7/+S3kigxRgfvMATKMROUcRJTJLR9+sbVF176+Mb2DjgwViMgAcN6vW6rsjeYJEmGEQ4+yLbyzgmWWmPbplFN653virLO2cdX2A8Qg7td/HsPAATfPQE+EAA+YAIcE8ZJL0qEiFVd5YulN6QqG2s9jwTnghCCKeMxAxR88C6Y0Jn4QPDOAnLOK9+BELwD31n72I5jzggNCFttvPeEMs4455GSRinVNFVbN0YqY20IwfqQr5ZR0l/Ozv7Rb/76V776Sn/jyY+/eGFvyD/7o59eKfbqN343Xy62tq5s710lVNRVRYC0TVOsc6WaKBKD0Wg4no4nW9aZvUtXrz31wsbWBWvMYnbaVhVC4FwIwXUHAsE8eOj2Zszw5u7WeHMXU1BKGd1ordtm3TZytThdzufr1UxJTQjmPOFcDAYbw/Fmr9fX1hbFsqpL40wAaJpKybafDsbTHQh+cfyoWM6t1Yh5xIFFlAkheMQo4RhjjJzSGFNGIh+I0d44j1FE057yvnGmVXZdVOdnZ+fn50VR1E2jtc5X+dnpo/nBfbteZzwhvccd6fHO9NL1J/efuLy3u2ts460EsPuXnxQiUlJW+aopFqatkFFgXC8dcJGmSS+OUy11vl5477L+CLylGHOCx4Nsb/fC5nSKrFzPT8lf+rd+vq4K2WBjYimhKPOH9+8eHt71zgWMEMaEUsI5JYxyFhEyieknf/jPffgTf04k/eV8VhSN88F41zSqkXUvG3HOuxKe9zZOUgTEGN02VdvWHRc+QPDO/aADgCLcGQ1SRoaDYX844pQFIM53MFqUxJFIE4K79nHw4AJ4Z411rbPaOhO8xSQYqxFChCBKCaOCMsYpY5w9Rgoh5Ly12gJCgsdRkmklrdGyLlTbOGcCCgQwxmQ02kh7fUqQauuqzI1uSbqX7W31CXz0xad/+hf/A8Y3X33l926/8zojfHN7X+nWA2DwGGPvjLWaMpb2e0IkG7v7OxefyEYTKZvlaq6VZFw0baONcs56731AgBFgjDHK8/OiLmZnZ2cnj/I8N9ZgKniUlFXdtk3byqoqmkZqrZS2qmlj0eNRjAAVVZ6v5k1TAUKYUK2k0cob29Tl4vxkOTvVUiKCjJceBYo4Z5xjjgnBgEMATgQmjGJMGQ/eKtU60zqvNXgbgjKqWJfz2elyuWjqppEqBFzXsqzqs/n5o4cH9x7cnx8er8+X25cvvj/XNIquXH/uuWdfyvp9zggDhIPvpcl0YzPrJcHIqpgH8PnquClyjlEcRxHnjFCKgSKLnEJg+714Z2t3OOrrplrOTsi/8+/9dWdt8BBQ6GwP12WRr+br1QJRShlHGAeMIYQQPHF2nMQvf+iH968+u1ouH96/V7cNi2LChZK6LHMhUkIpAFDGCCW9bGC0NlrJpm6bylrTmR53pPAfaAAwyoLXyHsu6MZkc3N7b7qx1R9tUpYkvX6v30+yHmXCedO0VVUuvAvGtt4ZY1trrDVN8MZDAIwY40ncS3r9rDdM037a62f9oTWGC0EJ9c5prb21FBPCCITQXaW884CBUsEoJZg0ZbFcnFktN3cuky4ZyQAAIABJREFUYYRe+eoXfuvv/s+f+43/bbj/kSvX91IMt+7NZdt++If+xYtXbszPjqqqaJtKNaVURVMu8/y8WC+qquyNJ01VrNdL2dZSNrKttTEeQsc189ZKo71xrlPqRk47s87z85PDxey8KtfOei7iJB0CIMZjjEkIyFmrlFZStrLpD0YYY2X1erWo17kNrkvmAgKMiTe2ropivVBaIgQQgrTKe48RIoQwIgihlDBMMBcCwGKEuGBRFFOGBSM0jpCIsBCIiuC9MtY4q22QUh3cv1eWpfHBWlw27SJfz+bz4+NHX/rc/4GMv3jxxvutThol23tPPHH9hd3trbYpgpX9NN0YbYz6g34vPTm8Q4IjGBFwnOKEM4a9tyqJY+w18y6J+WQ0SKLEm6Zta0pZ4r1sVdOcVySKqBAAgAmFgAih3gfkfeeBaX0gFvKiWC7Ozk8Oz88elU2JOeNpStxjAKbrgLsUALmmLp01GNgH6bydufz3tsb/GQZCiBAavLfWOG8pYxcuXg6EWWuULJtGKiXbarkuF710hEgg2HNGwAXUIb0RYEqFEEmSxEkqaEIAoU6dN+2917cyqkFtqw2UGIN1DgVHKeYxBosR4OC9cSZJs/HGVvA+L5YUfH+4qWT79lvv/pW/+OlLV5/uLLL/zV/4G3/jl/9dE+A3fu0fv/KV/+v2O99+dO9WksVXrl2fbE7btlotj01wUjUAkKQZQqhqSqWl0Wo02gFnvDbBG+OcaitfO+fcaDwm2GBMOgF0raRslFEOY4IxFpwRLCiJtJIIYcpY1t8QUaKMCgExnsSAIVStVJSwNB0wLoL3wTprjZFNUxc4Rsgho5yhTlAfsYjHDACqfE1pB3yBQPCktzHoj7Lx1qyqlTJlka9Xc7DIel23plXLWCS4qNXx+clsxQlNe4ON7e3JaLA73vr2K1+7+c7rF69ce+qFl/euXX9/05zsXv3Jn/mrAHB+7/Vvf/0rRwd3YjoQzz+3c/npQPnNd9+8c/umDlSkwx5h2BvGAhYsiwXxzsq104YRRM9ODsv18ujw3vHJQToYXrnxQmdvUdUFUAIId+Jq3rmAoYOqt61ervKmro0Nxlql81LKVrVG604ANIApi/zk0f0Qwv7+DftYL/q7BZ/3m/Y/uNHBjxljhFJrzXq18KrFPLrx3JM8GVhr5ufHrToGcASDIDQSLJCAEOKCWOG05cE6i7wB6HQUkfPGVcZhAEDOJ1HcaWEgjIw01trgnGultlJr6UEh5DHGzhtjnNHWW8c4984V+dpbOxikXERJEhltjw7uS9kCkM///b8tGzndvrBeLf6TX/1vn7oABOC3vvj6f/M3/9pv/O9/e5zB9Zde0rNHLEq5iNqmkrJVbWO08iEslmcEE8YF4YIA00YZaZSW9+7eFFEci4xwjAIBHDiLAVMlDRBDkfAYAQggjpIojiNtDXbWOeecQ5T0eIYJsd5xEXV4O9U2PnhMCGOCxRGAt1Z38piMsI7IDADOaS4icF43dQi+N9zavLAz2Nzf4v1lUZwd3DNaGaOtxd5558PGcAqAVnkl20IrwxgZPNwY99Nnb1xLGMn62Xy1+M5rr4zHo5c//LEXP/pJHH0Xs7r5xAv/0hMv2PnRu2+/mvanSX+yWC6oa3S5yKvGgzFWSSURwnGScmyNKstlK8uyKufkyWtXHj26f/Pt19/8zjfaut7ae4Iycfzw/s23X7XehYCtdcZZZ63zDgV/Ze/Shf1LaX+UF3m+WtWqlUq2bauNrouqPxzHSa9tytXifDU7C872srHzTmtllOywvoA+cM35gV2BCCCEPKeUC5rGSTYYTqfb0+396fbeYLwhhGjqdV2sAlgRiThJer2MC8YopQRzxhknEWOEM0wpoRRj5Iw2SlqtkHMEA2cCgWeUCMEJJtZq8A5TZKwO3qLgMcKECIRwsAGCI4S1TcWF2N65FKXRfD6vqpbHkWxkCMB4xGm0nJ/dfveNfDmL4vgTn/nMuAcY4MKVrWc+9OMvf/RD062tui4J4f3Rhohi2TZGScq4SDPGeZ6vnLc+OI8QCtihgAAQwcePDjFm3sFqNVstlsZajLgHLxvZNFVTNWW1Llbrssq9w4QxjHEUCYRQXZdtW2OEKeeU0EhEGCFntGobawwCwIxRKpy34EMICAXMEMOAnTdKSfDWe2t0gxlcuXr9mRc+PBgNi2IdxSlCJHijZG2NIhiJSDDO1ovzVjXGGme9dcFaK6UsyvWjB3cePrgzX6wQ4VGaORvu3X73q1/+7dde+V1k9e7l699dCUl/89KN0fZebzTICBkM+5sb23HEwCivW4YQBovAckqID6Ytq2JZlysyGSbWWwjIobC1f/nGCx8x2rz+na8eHNzCGIWAQgjaKGeNCw6se+LipY3JNhVJWZVFUTkfWNJP+uOmqOuq6GUDQmhZLor10mrTH04Yizq5G6NV15f+5xMAjFAIlgAwTgaD0e7+lWef/8jTL/2Q974/nGKC1+vzslgghJI0S9IeF5wgErwJEAgAoZQgghlFiCCMsAdnjNeGYhzxOBYxeI8CYpRxHhEEzrngHBAAihBBABiTLpo6Ghdrm0ZrHXzgQiAE1qoQHGMcBUwQdc5r1RrjKeVCCAjwO5/7zdPcjPae281gfzv76MvPOz56dHgXY8ZEVFflanEOIYw2NtPewAfPWEwoVca0bdVKabW23nogGxsXLj7x9GRrBwArJa21xXp5enzovKuK9Xq9LIu8KFayVZSzKIkn083xZDPOsqYuyzJ31iIAD6FtKgQ4ipI06ydpDxNsjdFaRiLtqMuci4jHlLIAzjsbnC3LRV3m27sXf+wnfuYzP/4XuBB3br82Oz22RgWnjaqtUhgCI5RRGkUiimNOI0opgtDx5rTW1mpPSCP16fHxo8PDvFghIjBlAPT4+PDu26+pMh8PBixOP7goaK+/sXtpezyZnz4qizzLBmkvZjh4qwh4ThHFqIPMkX//P/7PWZTOZifO2ieefH7v8vV1Pn/44PbB/Tucp0wITDDlaZxkBDOnmx7njHIAUpXVbHme54umbZVS87NTwJgzng2GlNG2qSmBXjaabu01dbFezY1W3e3fhxC8/0EnwQQQgEMhYALj0fjSEzcuX3lyONmKkp7SbVWtrFG6rtsyF1zs7Fx0xhACGCHnnDdtAJ8l6WA0cd5xQgkCCoEgoJgwTDGEJE29d8FboEAp8SF0KDouIoQxBkowC84bZZ1zGDPw4J3zKCCMnTfaaMKQiHreeeu9ts4GiwBTwqx1dbVum/Lo4M47b756OKuc2Div5DtvfevOO9+Jk36Zrz7y8c/+yL/w5x8e3P7G739+tVoYpXr9UfAOERJFCY1iF5yxRmtLCPcBGWPatlFKaaOtc9Y5pZTS2hijHzvwoLZt1st5Lx1ce/bFS088gxAp83x2clTky+CAEj4abfKkVxXFusgRoSJKOWPGaN1WGNBgsDEYTzoOvxBxWSyVqpsGsmH6qc/85L/xr/zLH3r++b/w03/xkz/xs816/e2v/87ZoztCsCQWjCLOcJxETz/30ngyXS2O27oUQlBKEAIDtFXWOGQQKuv69Ox0tlisy6KuFRO9upFvvfHq1/7gS/dvvS2omO78EX0Kng2efvmHXnjuw5ONjV42mEy2e2lfMBa817Jp60K2BfnZX/irmDEEEGfZxSee2tq7lK8W92+/tV7nSS/jcYIQxpRhTAACWF+vZsPhuJdtFFV5fHK4XOZVXRfrpQdgjCdJRghtm7JpKiHEcDRmLG7qsm0q7xxC6LGCSgg/6ADAHR0MIx6x0Wg82dweDkeYCWM0IKRUe3b8cDk7IYRk/WEUJ6vliTWGMTYaTwf9ISfMWeuMpozhgIM21hjkHALgVHTpr7MGI0IJtd7WVV5VZStrzHAAhFCnTIoxIpQKIYSHgAAzIUTECaEuKIQQoRgHhhDuiK8EYQCw1igpg/eU8apcfPsbv/f5v/e//MEXP7eYHWeD0Xq53Nze//P/+i/8qz/+iRc+/lNPv/Sxra39db4o1iuMSZxmcdJz3mstg/ecx3VR1lWZL2f5cqZVizEJoeMPhBCC9977Dk8aAoAPPkriNO1J2ZydPFyv5rYT1qakyJdlsZJ1hRmN4gQT0tWMe0kcxb3haLKxudMfjDEhTVWtlmdxEsdJgrCtq3y9nCsmst2nWYS/9dWv33zjm0cHt7SqMTgIgVGcZdmFnb3N7X1BibNqkGWjyZgTZL2LBpvKuqZpjAsAzFrQxkppGyURZgFhRKMoG2prHxzcufX6N4/efGXIWbq5+/4KibL+hSvXnn7hwzub+7GIeMR7ccKjCDtrraW7F5/MxlOMad1U2/tX4rjnHWjrEcLeOe/BGOeMBADjO087wnkPc9qoti4LYxSiwmmPKGacY0LapqrXK6dU0uvxHzDv8c8YIXhMEHmPo6yVXM7PpbY+QDaYtnVdLudNXUVR3NblejlTskUIJeN0Y7KNApyag2pdOit3n3iyLPJVXTZt5YxhTFABkeBaSUKAccY4Cw4QAYwCJqBaTRkjiAYXnLPBB4wIwpiJKHTOUQxb8EAhuOCxw5xCcAh5TAAQMcGZunSVrcolFSyKdhlLdDBV08DZnC1XVtqY58vZaQSXX76SvnzlJ3L4id/49ef+4f/5t4wzNgSMSRL3cABpJHhShKJtyk6VNU5SkfYIABBktAbnAgZvIHgbAAJ4CJAvZ/fvvXNyfFAWeXCuS2Q9AiEiqSTIJsp6cZopJbUzhFKEcCwEo9wZ461L4tQPxiGY9WrR62cb030f1PHxwa/997/6v/4P/7VV8vr1F48O7izPD42SwXuCRTKejseTvYuXojTL27rfz5LprsgyVZbrupytaqWVbhuMKBAGAVXStnKJWTRfldJBJERPauyNlA0FfePSxcOD+xtf/idPvfSpZz/xqe8uCARbV/a3ruwDwO1Xv/Xtb32ZeBOnEfnFv/6faa2Ukoyxja3dKE4OD+/defe1o4d3tZKtbGVTKy2tMcY6cG5/d2/v0lXEouOjg/l8HvdGg8Emj2IpWxEllFBjtGrrADYSghDKRNTU9T//E6C7uTNCRMz7WT+Kk+BMUeSLs9OqKqsib5sGAUYIVrOzRwe3IATnXMRjjGB2dvTo7s314hwD3b98zepalVVblV4bTmkkEk45eI8JZjwWcQIYa++s94gSqy2PUkoTAOwtdJAsAPA+BLCYIEJRQMF7DRAwBgTIam+Mgg5XSmhwzoHppX3GeMcHSNI0TfsYU6U0J6TJV6vzk8OzqrbJ9MKoDzC+9NTp4ak1Jl/NlJJRlIooRgG01rJtlZRStiE4xgVjgmCMEAYEHb4aIYQRfjwTKCCCCEJVka9X8xA8APLOBef3Ll6dTLcH4ylhTBulnMYIE4SzrC945Kxdzs/Xq5nVGmOKKRNRwoWgjMdxLxKJMXY1n81n52cnB7OTR3VdW+u00tqqJO71h+ON7T2tmvPjR8vzkxAcRQhhxONksZyDc0mSjMbTXq+PECKAKRXT7b3ecOo9LJfz8/Pjs9lJWddAsCzbgGklzWvf/sYXfus3H969s7N7rTf4YIYAk53da1efJwHqakXLumhUEwhKhqM4G1vv26Zu6jIg0jHunHfBIQ8ePda1olVR5nk5PzsJPvT6wywbl3XBmgZjRgglhFICzilBGWX/v50AmBCMfEcNAQBjdL6cGReqoglwQCnrDbLRcOJ9qNdlcKBqiQI0eb6enT+8d/Ps6GAw3OhfH4I2ArFhlnEM1hiMMQLirHTeOOcBY2AICKYMsYgHBEZBJDLGheGWizQ4rJ3RSko9x4QE7AMJBHke/d+1vUmvJFmWHnaGe+3a4Obub4opIzJryiqqSbAkkQABCdxxox8ogFxxwRW5kpYCCAhcihKaFAUVuisrszMzxhdv8smGO5xzuLAXmcViqcFulmzpDw63Z3bumb/v46LgqMLiSjaIpipkhCDgGIvPWYidr+uicnd9dBWdXTzdnj1rAE672+s337/57p//L//if/78l3/2j/7H/+np5z/1VcXMIKY5yjwrU86plDycDlMei2UAndIkg4VQs/PgCEyRmEg1qy3TSQEAmItojOMw5Ll456AIOK5C9+LzX/im/vrr39x+85dJMxFbmZ9eXq3qPpWUUzzs7w/7hxBnZrc9v1LNCuAqZHZhtTm7fMHef/2b/xsqAIiikmNWs8PpGO5uzh/up+n08eb6w/Vre//9ginfnF04KU/Ou4urF/36chrmu5v3U8p10262l13Xn4b743AYTvfDaZfSFLzf1n3b1s+eff7Fz7989erLqP5f/Yt/Og27X/+D/+Hv/r3/7uUvH/mLgncvXn5e1eRinM2sCs3SWn64/fj6268+vn/tq2BmZsYARbSUgoiOaZpO1zfvDDArrNYX/XpLzpuqrwIisvNt34D0KZ4cWhW6mP/k6Mf/sgPwaeywAD4WmcoY4/3N+9MwEeLzlz9dry76zVqffYZIeZ6atgHV+9vru+t3kq1fby/Pn5JYX3ebbuOcZ8BY0jiM4zjc3l/nPE/TKYOi55RTKinlGOfRu85xcBR8WzG5MY6iwuwQ1RjJERGyCx4UgCmzCuRUpTiLZDU1JQAY5n2cLxDcan2mbWGG9frybNN7KfG4zzkhghb5+v/99x+/f133PVX1OI1NaJxz4zSOw3FKMyHFacwlAcBC0iElY9PUTTNPEwAQmuIjA10pqghAtGgp5JQs5ckMSgmhfvf9NxdPXrRdb6rjcJzyDExx3GOW509fPPns1c9/9fdzjiKyDECOh900jFMc66bebJ8A4u3Nzd3NB9+2ylpI1QgcMJFiNUb55uvfqcp+OGagEudx2NVNXdft5y8/Ozu7evbiZ21/vru/D6wp5qrbsPNjHG7fv725fsMMpnA6nfYR8Fm7Hw63+9+++3j71W//8vL84uxsc7bqv/qL/+fNt1999tmrv/v3//tXv/hvoAp1XeV5dv/+//g3arqs1xq4/e72d7/9zTjNxIyICJ4Y8dOKsvd+vTn3vlKDfr0NdV+FOhd7hGWYAaP3Ics8DkfPUIXuj5vn//+XmgLoQjLuq6ppOwdqyMzN5uxHHpt+fdXWGxCbj0dXYRwGMjrfXLUv+hevftatzskKoDFBHaqu6YE4lTTnmSp3+3BzGqdSMjCoqkjMKaWYcxBf1Dl2znsfpjynOCMqMysTESgqOTYtpqACiOoDq/hsIpIXnou26nd3N8PxsFr3l1dPrp4+D01TVV053aOZpFh3/frFF6nE3d3dm7ff9OdP2VdNu+LK52IqO0u5MFWhziZS8sLru7iDKtQiYmrmlJ13JZeS2XmVQoi2rH8TEjKIiJqqXb9/vf76Lw77+4e7j3Ee5zgpguT09vXbNOwB4OUXv9ieXy0MF855ERiH8bA/7O5vAPzV0+fb82dZ4GE4ZmgUHXqk2pqqbrt16PqH/Z2apljIVa4hp1L326tnn335i18FltoXSEeIOx33p/0Bdjeh3cQSx8NtmsbQ1VWoN9szVff+ZgeAdeXHaPvD4fbj9ZOryyfn5/tdU3v/4fuv/sP/+b+v6vrJs5c//fmvPv/iS/e//st/huxANRdlduAqEWm323marJADXeZ/pXgGbOvw9MUXoDrHBHAC5pxSyYomILlAsdKpymm4v/nw1lWIrg5htWz+LyQrf3ISUP0EBP/xI3MEYKoLboSZKYS6bpnBkC9fPDs/f4GEcZq61eb86jJP8/3du+mwz0mmcSglbs7PL5+8WJ9t03TMoS9xXNiw+/XF5uyi6fu675OCMMntTTJB5syZiNS0Dm0d/AIXrNuAzuOgWWYzLUAEIFIMQFHNQJKUOS4uH4kWFUcDIKQhjYF8u+qrUAPAcNoTYR4feub1qveMu93d+zffKoH39XZ9FepOTHIqvqmbtktyXkCnOFVdPZYBRlETBUdopeSS5xBqAFEl1Viy5zKpAuS0DOlNzSFXdWsqmZmdzyV/eP/Nw/72NO5ymYrMyBzqunIwxfTm9bepSNevlwF8Ffw4HLfnV+dPnt3dfBhO+/dvc+UCMW9W22xij5BwqciHtg51KKXL87FYzFK05CKFGeuubreXp4d3d+/e5Cx397u33/3V9fWHGOPq/On5k2f1arNlUpFx2qeU0TnXtWmOU8mYRgM/xuNxPN7cvNM0n2/Pnj19fvXkSYE6fbj7cPtv6f/6c7ffHT58fDMfCgAAQX9xcfXsM+9bTEIuowPvWDRWCBdn58+ev1pvr/I0hwAh9CnO5Csr42l3k3PqNiuEeHfzZnf/wUhCuyXnFFiBioAA4YImNQP8I2z/C82/SvxkDY/4hiWZCXWbc0xxNtVFNlhFRMSFzmw5XEAKxIBIBMgLcEp1nseSM1cIION8WF+e/8N//E9Oh92f/9t/nW1omhok+0AGqarq7flFE1hSrpt6GZTkHGNMMc0yng7H07v3bwuogqY5g3O+aj1iLImESNgBheCD85vtetVvs+aPtx92wy3WlUhMcVwUebu2R6Rp3KfTsaTkuPZcce0RJVlWATVgtxItx8POe27bajiMlYefv/wzGe6m3c08TbXjcHkVUz5Mw3jY+aavurUY3d9fn8YjMJkHhMogY/ZQHKA49suypugspTCpZkh5iHNWjUTBedx2G5Ximsp7NDXw7OoVIqbDvDvd+jiig7BqKHNOMefIWM9Dqhu+ev7zz159cX93/d3Xf/H29QdEnOd4eXX12cufOUc5x+l0TDnFNI7TYRpPzvnt+dXZ5VPvg5TMFEYYcgTNUWCuWyo2ffX1b6r+MsX57ub9m2+/2d3fmBISFYK+62cDYCrIc5qVfN2dAfsIoxEDMHiaNOfjMMY4pDan+eNhvj7OVw/z9uKqa5p+fdb1a/fqy7+zuXqac5yn9HB/X0x2u7tS8qrfqAAzgOcaGkRo27oJoZS8TE4YkYhrFyjktqkOZXbkfHDsIHX9EmeJGZgQERhBQMAI8AdS9b/pVYXa+6BaSi6iBZGcIwAy1B97R7bgbMCyoAd2ftnYSTkzSIEcQIdxN8fjohU3xWF/vJ3G09nFE2aQUhya5OwDe/amDODa9fq8fbHabOtmrQhTnOI8fvjwYRiPp2GUkpWJgZpQo4Bm8s6TSNGUU0xlzjlJmZ3zasvKoOUkxMAWnMskxAyPbXlTUzPEhTeAK994H+o2+CAygopodqDOs88E6IUYSSrXAPoUZ2GvpjklNWNUJFKdYGHLqj1TWKBfpcxzVC3Zo0NENTXIZiYyqyJ0QOzYex9qVRNQNTU1Cszs0AESIQAzFLKKCCnUnd9cPju7etGuL+/u74fT/uOH987T8biL0/HlF/TZqy/69asU53HYf/P1vzs7X5+fX8R4LHEaDtcXFy/Prs7ejkdkJWJXkVkllhDRyH3/5q9yof3Dw26cJ33kyCgGY5kZ6oq9r2sxKZlFJZW4WvdibU4xz3NOswBYkTLMnvh0Ou1O434sT5KeXzyN1ozFu1/+6tfj6RiLHPb3r7/79rjfx5RynCNHlYyAAJX3la98Xbfs6oWDiYgUaSHhUCJgt5BUOt+Ah5VRTslX7JwXgwUyv9inyN+yJjZT7x4PwDQOFlVJCUn+PzqnpWTPwL7y5M0kxdkzAEBdd3GOkvX8/MXlk1cAOE+z4xB8pSYlLpJbaAA5q+jsQmBfN+161V90q40SuGFkqpp2nGKUss85EdW+qoOBCYMjYq+qKc7jeJrGYSE2dK524sCZiOQUiR0DeB/UHp+Kqpr++HBUiqvb0LR1W7NzS5WlIkYEnsFxNtWsCxze1c3+dETNWfIwHA0yoEczyRlFmbhtVxU7QioxiRYVKTkrm3N+oRVRUBUhgeNwIuaKPTgHUEQl5yRSfLP61DAFNCVUdCgIWmCK4/s33zjH/eb8/ubD+zffTqkEhZwSgSwaZ0DOe1e17c9++eu2a9Xo/ubN/e1dSfPxcMw5qgAoM4eq6pjBNFdhVbfdPE8x5pxGZmhXLROLCkbLaRRpve+8Z2ZIcY5xFsgh1Eg4I5d59lW1rVeoEOcxzXPJqXIVAaLo8f727t3rFCf35OkXh/r+OB6lwMVVWW+visj+4fb6zbdqCpW3ZOCYFEvRcTg2VQ/2gzWXZclnwWTQJ1pcJua6WT5JU1b9UbhuSf7+Ggro/3xRdHGcpeSFGIceayzRHEWWIPX73/+Rb4IMCAkJVUrKA1pFxPuHuzfffa1Zq+ARfEpZBbrNNo1RSypFAACBTa2o5CTnoTcoh8PuNA9VVRtBjjKleZzHIkKLd61qQnJSfBVQ2YCziU3jNA5pGi1lMM2adKksDU1smSITM3iCYj8goZEe+d7tE328iCwPkFCVqaqanKOMKcVYioqZr9qw6oZ5AoWYsklC1MC1qjWOU4me2KGrQk2Emf2i2Vx89SndV2J5pBgyPQ1HZo7OEzvkhZ49q0gVakJCIkREI8KWnZoZYyui0zi8/vartusXWg3vq1JmJFLV4/7+3euv4zxuzrZN01XNSkRTjOzqq2dfMMM8xeP+RgREAcmHumeuEK0KXajbbAp4TNGHOpghouVMKtHMCNU5vyS9zhE773MQy4Q1E7ah3ZxdPHv6qpR8++71+++/WfhBfBWklOPu4eHu+nTYubrZzGPyTvq1c6Fl9FMcnau+/cvfABmZlDqU4hzacX+Yh2mzygS+bjszWxyJFCtZfVMr4DTNOSU1rUJNhlJ00cjQv6Hj/+GELF0FAPjkR+dH5QtmKTTn0XMFP5xIgsdiAICACIFI2QEDoSg4cFzfvL+Zk+YodRO874lh3O+aumIOpRRXtS5UaE4lQkqGSI6nnHMa5SjLKmspliQXW8AP3hZdbQJftcxhnqJkk5KLSopzyRkAnPPHYXikOGc2BTMroN6AmE0+EQQws4CAgQpYXjTCxgEqRl8BMROpuRBVTvPpeDjmLEC06j1pXTe01JfFAAAS3UlEQVQNMAKJmGfGtmkAgAineWQmdhwqRiQmAABfhVSqR/LdoiQL1RaZogkBgCB8EqlAoIoIsgAReENkR4jAQGamOk2jr7yvtnXdhuBViqjPccbHdiqTq5t2Feq2FN3v7r7/878EUhUIdfjs8y9f/uRn3tXH4/13v/stU2AEcuRdzW6JQ77kbJIlz1qiLkDVIqDCqAhqkgyQwICpaUKoeI7ZOeYQ0IeXr376xU++PB526bQ7rnsr4oji8DDtb+M0QpGurp1zvmk75ir3UpIYwccPb1KcNSciT55B2YEXsTgec5zTMFe+25gugkiPrLREIjJPk8pxHE5A2K02OaVSdDg+YsEevbuC/bWkcP95cFjwNGZakuSUfFWFUMOnyPCHXzdAFAAlB0jofWi7ftVvmnaFqIj8s1/+ultf3N183N1f3328NpDh4d5XfHZ2ZUsHgz0g5GI5l6Ly8ebGSByzD7VzvoCKpCxZbNGglFIyEDlXe8/et6fDLCVHyaIiJTsgqyp2fhpnZEYkM0UiUF28O+OyhgNEyuzMF8rLH0EkxSkB5jZUvqoRqajc73Y3d+/ev3+9v9/NpTjnu+5htT9vu957ZoTaOUBhK2YGJbW+EUN2ntkvNFFEBIwotGgvmRriI0jJSH3tzbCUbGpquiT+SCilGDPzY4BeFokWErsFJQoAOcWFvzrFuQ3VFFMpBZFW620I9e3Hd29ff3Pz4U0VajNTKYfd0ZSev/xJ05z5qnExJxAtkG35tZQlZyspzqXETz+rROBc7StP7BYa/FLy0jVh53ofiCpNiZhX3cqzB1FVu7x8xuwq50vJp4f7eRzAzDl2sCSRrs4mE4yppJxkOo0gig59FapQV6EGlDQdx+EIBVZ9WUnng5OFeFE1S9Y0E3OM+XTaMzlVYh7neZRi8zSWkp3zTCwAoLC4h/+CSPCfXMtWj4rE+MiF733g31PXoP+UbouIQtOcbS7Pn1w1bV3SOI755U++vHjyRdt9Nxz3w2kAKMdhsH2c57Tw1IbKS8nHwy4Ng7G2teemXnebyte+aVFljnsxULFUTAogeOcDkstZ8rCb07yIeS1RiZmRKx/qlaiqlJyLLHwmAAC6AMZMAYDIOfQAmGXRm3hcjOMCZmX5x6fpdNjd3txfX999OB2gFAAo+/1UhQ9PLl9sLs7brq/rYJYJJJckaWxDb8DonBHG9Eipy9EDQBF5rOgW0Q1TFUAHpgJmCgUADJf2HYEpAStCAWVhUZWSS87ddl2Fmg1SnNWo8nVdt7Hr52lP6lgh53jz8fr25ub247uP79+GuiYOOcXjqcD19Xr72oB9VRWBmMs0xyVDg4UQzwMFApC6CQBBpCzINV9Vdd22XVMFLypqS8aoZgQC6MyzR8Q0Trub6/G4Z8DQrqqqbkKrpjV6FF2YyFzOCUwBWWKcxiHnKIvgBy9znKpeDoCWCdFMVUXVEBftXRCRZQyec2LmaUrzOBCz8w7AnY5753zOj53Nv6nF//5FzEwOCRfNCDP1Pviq0j/MreSHQ8BEja/79Xa9Oa8CDocMkG8/Xjfd1TyNh/0BDdpuxcyx0O721lWubroS2hRP93cf43gCtur5ZwimCMC0DE4NoYCmLDlFAGjarmr7kvPD3cf9wy1wWFRezB5vu3LB+bDp3RhHkePiO3+8XRFQAYQlPSFziAIgiPzjTAqR2EqJcZqUpDCYB1joxRRKARWb09Br39W1q1rVbKbjsM9M6LyAJ8+KEKcpxXmaBmCs6vaHodUyxTeRbOoITJmIzbIZqSoDAfDvh1szWxiqJefjtNtsL1bNitgtZE9LBCi51HUbXMgpvf3u6wUOvlqvh+NghjklJlitL/vtFbtlW2weT9N4msyUnSdCInOK3i36i5VzPue0nFjnfNdv2q5f9GoX7yBSUHQ8HqtQlvpzPOwlPxYweZ7G4Tge96YmMbZdf/Xs5WZ74XKKTduJkU22zFxKHEuc2PnN2eVmsyVGU6uqatVvUpy9a8n7OUdvbdN0wxIWAIZhRCQA9r6NJd8/7AAIEeI8Lu4NMUIVCFH/Vu7f1Io+SvH8oC6TU2JmU7FSAIDYITAbIAAjhrrp1qu6bRyxSU7TOOx3Mb6++fBwOjyAcWiqVFIsAozZRDIUOC6E6QpYBOI8Ho5HG3YI/OTVz7YXVzc3N/vD6939XWh6rmpiFqD9/W48HUvJIfTgXJmOJrqQPE/TuN/d3+9vV925pawiiyAqEroQvPMwyULtA4u6/ePpFQDIWQK75aWw887507wPrX/26otus9nd3u7vHsZhzhNIhuG4W2/WIuKRQVRLrkNTX7RjpqjqqoCOx3ic52OKU+i6YbhfCHcNfFVxHdoSLc5pEc4BYBXMWRaQDzFDxTmlec6EVLFTlaVA4cbP84HYQt16X4kImPnG183VNJ72p6NzrqtXVejmeZzHoe62i5yKJ1d325T1+vrD/e11zul0eJjGgZibdlXXTR3qqvMlPiAYM1feMxEBMHPddP1q7avgiZt+ver6OI/TeEpWun5TUszx5Jw/TMfpeoAszjtTI2ZfVWpyON3lFJv16uL5c1eFOtStmar03seD6QKdrus2eFdVXDtu6io0wTtaunvs3NIOEzAAQEJm13Z9KTnFReXq0WUjkub4e0asf9i0+a++5JOo+qOEL7EjAITLy6eb8/OLq2dNuzLVlMaSE5Lud3dVMDVzziNRifM8ngAEiZq+L2m+u79x3l8+eXH17OXucFPSmEs8Dfv3168Pp+F4fIjzCEy3tx9CqH1VIfilQGdmChV7L1aWlA8AEMA53/iakRxxxd4qRQFgImJEACJkdkhaTEwlZ5UEpmaAZIBLI+uHloAuxJdVV2/4qmlX02kcj/t5TMM+zdOU8smVnslTRYxsxIdpN06j7O/BuXE+EZELFXvfeF9KllI0FSuSxqnx9abdZMgixTSrCjMwspkBCCIysz3ShyzS6E6xJg+IWEqGecyZAQBFASDGOackOS9xDNEzOXY+54hIqlby/HB/g4Smdjzu9g+3S2B3zkvJKqXt+rbbYuNSPpbFtlLKOXofNCwz+yyhCWbLfkfTruoK4jjiIwX/YyzSGHGm7flVnEczXW/OL66eA0Admpgnd/39V75pibkIMHOJqUhUzauuq5sQgm/qqutWbdtYagPz7f2N9x4dG34qZ9EjV6v1ahxO4/SQigAwOw/IAPJHO56Lyf5JDoCV8mj9iIhEzESARN1qs1n1635bh1pLyvOsKkzOAIzVVA1UgMUMHPiqzSkmSd77q+ev+m2/Pb+qXLhIL15/8xsdj/vDcfrmd0h+GIc8j4ZIHIAXaXoppug8L2rvkgCJ2C2NgVKyFkEiKdnUlltENYOleWSemdkxQI5SRAAECdF5yz8wCQiAEKLznoNmS9lGQG0a33jPFReZc04qICXnKNYYeXauds4rQreyKcd5PJZkuURyyMhLwq+aVdWRk2mcdKj781W/nuasINnAIwIAOm+mBqSmzMjAUqxABgZmbus2xVmglJggAhoz8VKPWtL8STzP0ANXVKEz1Dj/ACdacgcinMYBAHxVLSiUZVFvCe/d6qzkJsWplDLBCZRAIY0xT9k5X4WUm7wkSI4r8EAtOudziqUUygCgUZKZlvsP03ha9ZtXv/jVL/7Or5n545vvrz++cV3fOe+LKjMBE0UFEGLg4H3guvJt17ZtUwWvaFXxddMSMbFTUxBRffT2znnCx+1+/FQemCkaASrRj4v/f+tJ8F9zESISmalKMiIHWOYp5yanpKrMgAiqaqarzdYgpDgvuSOytl3fb7cqcjzsNhdPf/X3fl033fu3346Hh2a1uXz+GT7cnO7vhnlA8KXkxYqrUDvnl4zF+4rYmelwOg7TQaQ4dsu/+cgnJZLhkeJZTcxARAUMJXPwFQOhB3VZ5lLYA4HnWI4AolpKyZIzEtRd3azrfXqncVZV9uQoeM/MZCj1Gqq2Qe8RPIInZjBWka5fJyvoXYyzJU6jKEZTHdNoqYSq7rreppiGAUybyjuskCoAypJzlFKyIQOHOI+PnNTLk1RCQiYQYBQQAdViAqbGzIiKQMvMeOF2h6WodP4RHWHqq4qdX+rdpbW92EwBgJJFliWUuQ6tc867M0Bt6n4c99MwFkkEkC1KWdpQta88c8WOmtBCBYiEFFXruusW3nIQjXmWh3z98e3Zk+ch1DcP1+/ff+f+7L/9h94HY9QCsaSP79/d3rzerPtpPBGB87hgqlRTzmNOYwi1LhgU1QKSS15G+DGlWATAEVeAHog051IkMMLvOfulNjQ1/BOlQsiGqAgAKiAK7JAJHeWUYpxjHFR7F1oRzwbzPPaXL+esSBraql9vc5pjnJ3zGQFYs86n8Xg87f/q6//wcPtxtd72/cU8p2GcBMxXnn0NLKVkKaKiABGR6tAD8XQad/vrmCdBaEPTdr17bC6aiCiYfBoCLtRCqgoiUqSYNwS1x5U4BkCi4kkf15Lj0kSu63a9Wcf9dcpZUXxo26ohZhCrmz4O03Z91bQd+EqBYswlpynPKcUC5pw3x8mBK7GAKoFLVBAZ0QEiexeaTbs568+Juyp44jAOx4f72+GYCyhhMYeGXsBKLk6oKACYANR1u2igqIguJbs6AAAFRFRgVVqGISpaSnKhinGIaUSiEJqqDaYqkOdxyDmWUpasQiHPaTju7jUdPZNzNTtkDm27CWEjZRIB1ZSTlDyXPM/T6FxNDKXLjzqlCOR93fXeh5jjqusF7O7jzW9/8+9urt+1XZ/iPE0n99Vv/ny13p5fPO3OLtrQrDfr86ur5y9fvf72K8dgKgZZlDTHHKdSMnELBrqMztWk5OUNpZJVBAmZWR8rOUb6I1pgf/0c4G98AJbhMJBKAVvaGq6um6qpljbRMjVDoiJzzhNaQXRt118+ff7k+avj7v7N97+bxgM5Pju/8j5cv/1GtKzW2832kr1vu22z6lfrbZxGEVi6KDlFEHDOL4EHAAjJTFPMueQCxQHWdUtV8FXQIABgwA60qBkxChiwlYwEpQxYiqFXcSJlcQ72CKIwMyulLHv2AEAOShlSGksSazskq2rfr7ftCubjKdQ9c60ic5pzjuNwPJ4Ot7cfuGva1cY1taC6ELwjM63Ip2mUUtI4BvbrbnN+8eRsu/GuhDo454e2ZhBCiHk2dCHUxWCKcwFiYEP5g/eIhCBgaloyAJA+ejjRJZRkWQ6Almk8liTsUetmiZPM3PXraRwwzvIohln2u7s0j+tuRfi41t71m7Pzq65fE/UpTjkn1SGnmPMMAAkzsZvHYXn1AEtr2RMSEB6PB19V28uzpZN7mo4l5yzZ/Zv/7V/1Z+dXTz87f/qqXZ0tlGlNWzd1xUzLrSQws6xQlrUtAAAoqu7TKDHnHFUdABCz6qKBzb5yHhjSAPSHGb+aEvzJqmH61PdcBC/aru/6Vah83VZ13bLzReYUJzN13olIztn7cHbx5OXnP79r67fvfrc/3J+dX63W/QLrZu/X283ZxdOmXQOwiAyH4fbju5v3r28+vNnf33tXj8PRh9pzvahbIxFzCE0LySSNyzMJoa5cZUEBoAgYApoaCCAo0FK6MGYSy2oGmdmbaBZVLZ92RhDAiswpzvM8ziMbZJHJCuTpOAhNQ45DAq1W3dZ5L1lSnNM0T+Nw2N/vD/e7Q/LTPAzHqu/9asXeL1IaPnhQKzKiWAhhsz3vw0pjRsgWBaFufcVPnnWr9TANc8pQVcNpyiJWZkBwjpXYFEDVBABEJD/OD4AQ0ZgAmBbXgLRs+wHAp5EoLBCleR59FZzzdbvyPuQcc0rzPE7DNA9zjjNKNln2kaRfD2YoAsvixuLCp3FYtNUQkRnQQWNtFWQhuvO+UiYpsDvch6Y9f/qi7ntmTnE+7B6OhwfnHOXp9PH969u7j77qDGC5gyoEMxVNOZmDGlEcOq7dNC/JtAFkNRYRKVlKXgAUi6EvJS4776tmTsOfytD/uPV/2oRDJGbyPoSmbbu+xHERXDHTlOY5nhZOnjiPw5ic83GeFvnAOE/73e39zZv++vzzn/7q1U++ZE/3t9cxzk+fv2ra87ppmcJw2peSx+G49B8AwPuq8nVOcRxGn5MpLtozc5kfhxVFkJmI2XkFVdDfFz9Y9oJC00KarZApGFQImrXktDS8lfARJJDTOI/D6ZTbrp9Sl2wGgOG4f7g7DPuTif/Fl1sRsWzzPMZxmsbTcDydDqlpISvEqRQ6tpV3oXokaCFgYvSVd7Rq+75bI+Hp8KBByFmou3a7PdtcrM8vhtNwGI8KXvVmfzyaGgDSohUCULl6mQkg4uL0HQZETHPBTzI2TB4JjYQEFYxCrZXSJ/EbAKhCfTo8LI/Fec+ZicEUnHM5J1xG1gWm8XTY3S+ax95XKc5xnuZ5XF6Hc54Z2r5bkIwA+kO1aWZXzz4DACNIcV7ODxI67/8jJPSuB6he2RYAAAAASUVORK5CYII=;" parent="1" vertex="1">
          <mxGeometry x="120" y="170" width="320" height="320" as="geometry" />
        </mxCell>
        <mxCell id="bfAW2O5BcKK6ecr0y_9z-9" value="" style="ellipse;whiteSpace=wrap;html=1;aspect=fixed;fillColor=none;dashed=1;strokeWidth=2;strokeColor=#FFFF00;rotation=0;" parent="1" vertex="1">
          <mxGeometry x="314" y="308" width="80" height="80" as="geometry" />
        </mxCell>
        <mxCell id="bfAW2O5BcKK6ecr0y_9z-10" value="" style="ellipse;whiteSpace=wrap;html=1;aspect=fixed;dashed=1;strokeColor=#FFFF00;strokeWidth=2;fillColor=#000000;" parent="1" vertex="1">
          <mxGeometry x="352.5" y="346.5" width="3" height="3" as="geometry" />
        </mxCell>
        <mxCell id="bfAW2O5BcKK6ecr0y_9z-11" value="" style="endArrow=open;html=1;rounded=0;exitX=0.506;exitY=0.576;exitDx=0;exitDy=0;entryX=0.5;entryY=1;entryDx=0;entryDy=0;exitPerimeter=0;endFill=0;strokeColor=#FFFF00;startSize=4;strokeWidth=2;" parent="1" edge="1" target="bfAW2O5BcKK6ecr0y_9z-9">
          <mxGeometry width="50" height="50" relative="1" as="geometry">
            <mxPoint x="354.01800000000003" y="348.22799999999995" as="sourcePoint" />
            <mxPoint x="354" y="378.5" as="targetPoint" />
            <Array as="points" />
          </mxGeometry>
        </mxCell>
        <mxCell id="bfAW2O5BcKK6ecr0y_9z-12" value="" style="endArrow=open;html=1;rounded=0;exitX=0.625;exitY=0.311;exitDx=0;exitDy=0;entryX=0;entryY=0.5;entryDx=0;entryDy=0;exitPerimeter=0;endFill=0;strokeColor=#FFFF00;startSize=4;startArrow=none;strokeWidth=2;" parent="1" edge="1" target="bfAW2O5BcKK6ecr0y_9z-9">
          <mxGeometry width="50" height="50" relative="1" as="geometry">
            <mxPoint x="354.375" y="347.433" as="sourcePoint" />
            <mxPoint x="323.50000000000045" y="348" as="targetPoint" />
          </mxGeometry>
        </mxCell>
        <mxCell id="bfAW2O5BcKK6ecr0y_9z-13" value="" style="ellipse;whiteSpace=wrap;html=1;aspect=fixed;dashed=1;strokeColor=#FFFF00;strokeWidth=2;fillColor=#000000;" parent="1" vertex="1">
          <mxGeometry x="352.5" y="346.5" width="3" height="3" as="geometry" />
        </mxCell>
        <mxCell id="bfAW2O5BcKK6ecr0y_9z-14" value="" style="endArrow=none;html=1;rounded=0;exitX=0.625;exitY=0.311;exitDx=0;exitDy=0;entryX=0.014;entryY=0.617;entryDx=0;entryDy=0;exitPerimeter=0;endFill=0;strokeColor=#FFFF00;startSize=4;entryPerimeter=0;strokeWidth=2;" parent="1" target="bfAW2O5BcKK6ecr0y_9z-13" edge="1">
          <mxGeometry width="50" height="50" relative="1" as="geometry">
            <mxPoint x="354.375" y="347.433" as="sourcePoint" />
            <mxPoint x="324.3539999999999" y="355.13699999999994" as="targetPoint" />
          </mxGeometry>
        </mxCell>
        <mxCell id="bfAW2O5BcKK6ecr0y_9z-15" value="" style="endArrow=none;html=1;rounded=0;exitX=0.625;exitY=0.311;exitDx=0;exitDy=0;entryX=0.014;entryY=0.617;entryDx=0;entryDy=0;exitPerimeter=0;endFill=0;strokeColor=#FFFF00;startSize=4;entryPerimeter=0;startArrow=none;strokeWidth=2;" parent="1" source="bfAW2O5BcKK6ecr0y_9z-13" target="bfAW2O5BcKK6ecr0y_9z-16" edge="1">
          <mxGeometry width="50" height="50" relative="1" as="geometry">
            <mxPoint x="354.375" y="347.433" as="sourcePoint" />
            <mxPoint x="324.3539999999999" y="355.13699999999994" as="targetPoint" />
          </mxGeometry>
        </mxCell>
        <mxCell id="bfAW2O5BcKK6ecr0y_9z-16" value="" style="ellipse;whiteSpace=wrap;html=1;aspect=fixed;dashed=1;strokeColor=#FFFF00;strokeWidth=2;fillColor=#FFFF00;" parent="1" vertex="1">
          <mxGeometry x="352.5" y="346.5" width="3" height="3" as="geometry" />
        </mxCell>
        <mxCell id="bfAW2O5BcKK6ecr0y_9z-17" value="" style="ellipse;whiteSpace=wrap;html=1;aspect=fixed;fillColor=none;dashed=1;strokeWidth=2;strokeColor=#FFFF00;" parent="1" vertex="1">
          <mxGeometry x="179" y="338.5" width="40" height="40" as="geometry" />
        </mxCell>
        <mxCell id="bfAW2O5BcKK6ecr0y_9z-21" value="" style="ellipse;whiteSpace=wrap;html=1;dashed=1;strokeColor=#FFFF00;strokeWidth=2;fillColor=none;rotation=-75;" parent="1" vertex="1">
          <mxGeometry x="144" y="256.81" width="70" height="30" as="geometry" />
        </mxCell>
        <mxCell id="bfAW2O5BcKK6ecr0y_9z-22" value="" style="endArrow=open;html=1;rounded=0;exitX=0.481;exitY=0.424;exitDx=0;exitDy=0;entryX=1;entryY=0.5;entryDx=0;entryDy=0;endFill=0;strokeColor=#FFFF00;startSize=4;strokeWidth=2;exitPerimeter=0;" parent="1" source="K38CNpmqMVMZ9SNkMX3q-20" edge="1" target="bfAW2O5BcKK6ecr0y_9z-21">
          <mxGeometry width="50" height="50" relative="1" as="geometry">
            <mxPoint x="181.505" y="273.313" as="sourcePoint" />
            <mxPoint x="146.19259607988056" y="280.86866657858883" as="targetPoint" />
          </mxGeometry>
        </mxCell>
        <mxCell id="bfAW2O5BcKK6ecr0y_9z-23" value="" style="endArrow=open;html=1;rounded=0;exitX=0.525;exitY=0.708;exitDx=0;exitDy=0;entryX=0.5;entryY=1;entryDx=0;entryDy=0;endFill=0;strokeColor=#FFFF00;startSize=4;exitPerimeter=0;strokeWidth=2;" parent="1" source="bfAW2O5BcKK6ecr0y_9z-24" edge="1" target="bfAW2O5BcKK6ecr0y_9z-21">
          <mxGeometry width="50" height="50" relative="1" as="geometry">
            <mxPoint x="188.5000000000124" y="281.81000000000006" as="sourcePoint" />
            <mxPoint x="176.11771432346222" y="257.32111260566404" as="targetPoint" />
          </mxGeometry>
        </mxCell>
        <mxCell id="bfAW2O5BcKK6ecr0y_9z-24" value="" style="ellipse;whiteSpace=wrap;html=1;aspect=fixed;dashed=1;strokeColor=#FFFF00;strokeWidth=2;fillColor=#000000;" parent="1" vertex="1">
          <mxGeometry x="178.5" y="270.31" width="3" height="3" as="geometry" />
        </mxCell>
        <mxCell id="K38CNpmqMVMZ9SNkMX3q-19" value="" style="ellipse;whiteSpace=wrap;html=1;fillColor=#FFFF00;strokeColor=#FFFF00;perimeterSpacing=3;" vertex="1" parent="1">
          <mxGeometry x="352" y="346" width="4" height="4" as="geometry" />
        </mxCell>
        <mxCell id="K38CNpmqMVMZ9SNkMX3q-20" value="" style="ellipse;whiteSpace=wrap;html=1;fillColor=#FFFF00;strokeColor=#FFFF00;perimeterSpacing=3;" vertex="1" parent="1">
          <mxGeometry x="178" y="269.81" width="4" height="4" as="geometry" />
        </mxCell>
        <mxCell id="K38CNpmqMVMZ9SNkMX3q-21" value="" style="ellipse;whiteSpace=wrap;html=1;fillColor=#FFFF00;strokeColor=#FFFF00;perimeterSpacing=3;" vertex="1" parent="1">
          <mxGeometry x="197" y="356.5" width="4" height="4" as="geometry" />
        </mxCell>
        <mxCell id="K38CNpmqMVMZ9SNkMX3q-46" value="" style="endArrow=open;html=1;rounded=0;exitX=0.506;exitY=0.576;exitDx=0;exitDy=0;exitPerimeter=0;endFill=0;strokeColor=#FFFF00;startSize=4;strokeWidth=2;" edge="1" parent="1">
          <mxGeometry width="50" height="50" relative="1" as="geometry">
            <mxPoint x="198.75800000000004" y="356.99799999999993" as="sourcePoint" />
            <mxPoint x="199" y="378.5" as="targetPoint" />
            <Array as="points" />
          </mxGeometry>
        </mxCell>
        <mxCell id="K38CNpmqMVMZ9SNkMX3q-47" value="" style="endArrow=open;html=1;rounded=0;exitX=0.625;exitY=0.311;exitDx=0;exitDy=0;entryX=1;entryY=0.5;entryDx=0;entryDy=0;exitPerimeter=0;endFill=0;strokeColor=#FFFF00;startSize=4;startArrow=none;strokeWidth=2;" edge="1" parent="1" target="bfAW2O5BcKK6ecr0y_9z-17">
          <mxGeometry width="50" height="50" relative="1" as="geometry">
            <mxPoint x="197.005" y="357.96299999999997" as="sourcePoint" />
            <mxPoint x="157.13" y="359.03" as="targetPoint" />
          </mxGeometry>
        </mxCell>
      </root>
    </mxGraphModel>
  </diagram>
</mxfile>
